<?xml version="1.0" standalone="no"?>
<!DOCTYPE svg PUBLIC "-//W3C//DTD SVG 1.1//EN" "http://www.w3.org/Graphics/SVG/1.1/DTD/svg11.dtd" >
<svg xmlns="http://www.w3.org/2000/svg">
<metadata></metadata>
<defs>
<font id="berthold_akzidenz_grotesk_bRg" horiz-adv-x="1024" >
<font-face units-per-em="2048" ascent="1638" descent="-410" />
<missing-glyph horiz-adv-x="555" />
<glyph unicode="&#xfb01;" horiz-adv-x="1150" d="M10 885v202h144v123q0 72 15 119t49 72.5t78.5 35t113.5 9.5h213v-205q-72 0 -90 -2t-31 -12q-18 -13 -21.5 -34t-3.5 -106h146v-202h-146v-885h-323v885h-144zM733 0v1087h326v-1087h-326zM733 1196v250h326v-250h-326z" />
<glyph unicode="&#xfb02;" horiz-adv-x="1150" d="M10 885v202h144v123q0 72 15 119t49 72.5t78.5 35t113.5 9.5h213v-205q-72 0 -90 -2t-31 -12q-18 -13 -21.5 -34t-3.5 -106h146v-202h-146v-885h-323v885h-144zM733 0v1446h328v-1446h-328z" />
<glyph horiz-adv-x="2048" />
<glyph horiz-adv-x="2048" />
<glyph unicode="&#xd;" horiz-adv-x="2048" />
<glyph unicode=" "  horiz-adv-x="555" />
<glyph unicode="&#x09;" horiz-adv-x="555" />
<glyph unicode="&#xa0;" horiz-adv-x="555" />
<glyph unicode="!" horiz-adv-x="598" d="M186 0v315h303v-315h-303zM190 1272v174h302v-174q0 -86 -15 -287q-6 -72 -23.5 -258t-23.5 -258h-188q-9 137 -17.5 249.5t-11.5 162.5q-23 294 -23 391z" />
<glyph unicode="&#x22;" horiz-adv-x="811" d="M45 1391q0 43 17.5 73.5t45 44.5t50.5 19.5t43 5.5q53 0 95 -32.5t42 -100.5q0 -13 -4 -29l-109 -536h-63l-111 512q-6 21 -6 43zM473 1391q0 42 17 72.5t43 44.5t49.5 20t44.5 6q57 0 98 -34t41 -97q0 -11 -4 -31l-109 -536h-63l-113 512q-4 28 -4 43z" />
<glyph unicode="#" horiz-adv-x="1193" d="M0 381v254h229l27 194h-205v254h240l51 361h254l-49 -361h203l49 361h256l-49 -361h188v-254h-223l-27 -194h201v-254h-238l-53 -381h-258l55 381h-202l-54 -381h-254l52 381h-193zM483 635h203l27 194h-201z" />
<glyph unicode="$" d="M53 463h346v-101q0 -30 3 -49t13 -40t33 -31.5t60 -10.5q34 0 58 8t35.5 18t17.5 30t7 33.5t1 39.5q0 69 -26.5 99t-164.5 125q-100 69 -142 98.5t-95.5 74t-68.5 67t-34 64t-21.5 79t-2.5 98.5q0 115 21 190.5t68.5 119.5t109.5 64.5t157 28.5v240h170v-240 q77 -6 130.5 -18t93.5 -36.5t63 -56t37 -84.5t18 -115t2 -154h-332v104q0 31 -2.5 49t-12.5 36t-32.5 26t-58.5 8q-26 0 -44 -8t-27.5 -19.5t-14 -33t-5.5 -38t-1 -45.5q0 -47 7.5 -68t37.5 -46t172 -117q186 -123 237 -167q76 -67 97 -146q14 -53 14 -146q0 -90 -15.5 -156 t-43.5 -110.5t-76.5 -74t-105.5 -45t-138 -25.5v-263h-170v263q-35 4 -51.5 6t-53.5 8.5t-58 14t-53 21.5t-53 31.5t-42 44t-35 58.5q-21 49 -26 116.5t-3 180.5z" />
<glyph unicode="%" horiz-adv-x="1622" d="M55 784v414q0 66 10.5 110t40.5 82.5t90.5 57t153.5 18.5q55 0 99 -8t73.5 -20.5t50.5 -32.5t32.5 -39t18 -45t8 -45.5t1.5 -44.5v-420q0 -29 -1 -49t-6.5 -51.5t-16 -53t-31 -46.5t-49 -40.5t-72 -25.5t-99.5 -10q-79 0 -136 15t-88.5 37.5t-50 57.5t-23.5 66t-5 73z M272 768q0 -34 14 -50t58 -16q45 0 60.5 17t15.5 49v469q0 40 -16.5 55t-61.5 15q-25 0 -40.5 -6.5t-21 -19.5t-7 -21.5t-1.5 -22.5v-469zM494 0l477 1446h145l-477 -1446h-145zM987 242v415q0 52 6 89t24.5 73t50 58t85.5 35.5t129 13.5q76 0 131 -15.5t84 -38t45 -57 t19.5 -61.5t3.5 -64v-424q0 -43 -2.5 -71.5t-18 -70.5t-42.5 -68t-81.5 -45t-130.5 -19q-78 0 -135 15t-88.5 37.5t-50 57.5t-24 67t-5.5 73zM1206 223q0 -33 14 -48t58 -15q46 0 61 16.5t15 48.5v469q0 42 -16.5 57t-61.5 15q-25 0 -40.5 -6.5t-21 -19.5t-7 -21.5 t-1.5 -22.5v-473z" />
<glyph unicode="&#x26;" horiz-adv-x="1236" d="M43 367q0 141 94 241q29 32 60.5 57.5t167.5 127.5q-57 90 -79.5 128.5t-39.5 89t-17 103.5q0 59 23 113t67 99t116.5 72t164.5 27q79 0 146.5 -19.5t119.5 -57t81.5 -97t29.5 -135.5q0 -37 -9.5 -72.5t-21 -62.5t-37 -58t-41.5 -48.5t-50.5 -46.5t-48 -39t-50.5 -37 l149 -252q16 83 20 119.5t3 105.5h244q-7 -192 -29 -280t-88 -199q26 -43 61.5 -54.5t134.5 -9.5v-182h-233q-75 0 -108 12t-76 49q-42 -26 -69.5 -40.5t-90.5 -30t-137 -15.5q-217 0 -337 107.5t-120 284.5zM340 393q0 -58 51.5 -128t126.5 -70q67 0 158 63l-187 320 q-31 -19 -49 -32t-45.5 -37.5t-41 -53.5t-13.5 -62zM526 1130q0 -62 78 -180q31 20 49 34t43.5 37.5t38.5 50t13 54.5q0 46 -37 77.5t-86 31.5q-47 0 -73 -31.5t-26 -73.5z" />
<glyph unicode="'" horiz-adv-x="425" d="M68 1389q0 39 12 63q15 36 55 59t86 23q12 0 24 -1t34.5 -9t39 -21t29 -40.5t12.5 -65.5q0 -4 -1 -12.5t-1 -12.5l-110 -536h-64l-112 512q-4 28 -4 41z" />
<glyph unicode="(" horiz-adv-x="724" d="M172 100v873q0 114 20 188.5t72 132.5q44 49 96 81.5t114 47.5t100.5 20t103.5 9v-125q-56 -5 -93 -17t-60 -28t-35 -44t-15.5 -58t-3.5 -78v-1161q0 -125 45.5 -169.5t161.5 -47.5v-125q-45 2 -67 3.5t-70.5 8t-81.5 17.5t-76 33t-78 52q-38 33 -64 74.5t-39.5 76.5 t-20.5 83.5t-8 77t-1 75.5z" />
<glyph unicode=")" horiz-adv-x="724" d="M47 -276q56 5 93 17t60 28t35 44t15.5 58t3.5 78v1161q0 125 -45.5 169.5t-161.5 47.5v125q54 -2 86 -5t88.5 -13.5t106 -35t92.5 -61.5q38 -33 64 -74.5t39.5 -76.5t20.5 -83.5t8 -77t1 -75.5v-874q0 -113 -20 -187.5t-72 -132.5q-44 -49 -95.5 -81t-114 -47t-100.5 -20 t-104 -9v125z" />
<glyph unicode="*" horiz-adv-x="854" d="M47 1182q0 8 4 16l262 27l95 239h18l100 -245l252 -13l6 -18l-188 -184l68 -244l-17 -15l-221 144l-215 -144q-9 6 -18 15l57 260z" />
<glyph unicode="+" d="M70 467v262h311v315h260v-315h315v-262h-315v-320h-260v320h-311z" />
<glyph unicode="," horiz-adv-x="512" d="M92 -311l111 311h-97v313h302v-313l-175 -311h-141z" />
<glyph unicode="-" horiz-adv-x="681" d="M57 602v248h561v-248h-561z" />
<glyph unicode="." horiz-adv-x="512" d="M104 0v311h304v-311h-304z" />
<glyph unicode="/" horiz-adv-x="641" d="M18 0l353 1446h254l-357 -1446h-250z" />
<glyph unicode="0" d="M68 371v686q0 37 1.5 65.5t10.5 74.5t25 80t48 73t76 64t112.5 42t154.5 17q256 0 374 -130q30 -33 48 -67.5t25.5 -80.5t9 -78.5t1.5 -98.5v-623q0 -47 -3 -85t-14 -83t-29.5 -79t-51 -67.5t-77.5 -55t-111 -35t-148 -13.5q-84 0 -149 10t-123.5 36.5t-97 70 t-60.5 113.5t-22 164zM399 354q0 -66 21.5 -99.5t89.5 -33.5q39 0 63 11.5t33.5 34.5t12 39.5t2.5 43.5v740q0 16 -0.5 26t-6.5 29t-17 30.5t-33 21t-54 9.5t-54 -9t-33 -20t-17 -29.5t-6.5 -29t-0.5 -26.5v-738z" />
<glyph unicode="1" d="M174 961v292q98 14 156 54.5t106 138.5h266v-1446h-309v1063q-75 -44 -113.5 -61.5t-105.5 -40.5z" />
<glyph unicode="2" d="M78 0q0 60 0.5 92t2.5 78t6 70t12.5 60.5t19.5 58t29 54.5t40 58t53.5 60.5t68.5 69.5t85 77l1 1l1 1l1 1l1 1l1 1h1l1 1l1 1l1 1l2 2q135 120 167 160q43 52 47 116l1 25v109q0 129 -111 129q-117 0 -117 -131v-205h-303v186q0 55 3 89t15.5 81t42.5 85.5t78 70.5 q110 70 289 70q221 0 334 -113q62 -58 76 -118.5t14 -190.5q0 -49 -0.5 -81t-7 -66t-10.5 -53t-21.5 -47.5t-28.5 -43.5t-43 -48.5t-54 -53.5t-72 -66q-159 -145 -197.5 -191t-63.5 -127h494v-274h-860z" />
<glyph unicode="3" d="M84 326v174h317v-152q0 -21 0.5 -33.5t6.5 -35t17 -35t33 -23t54 -10.5q24 0 42.5 6t30.5 14t20.5 24.5t12.5 29t6 36.5t2.5 38t0.5 42v52.5t-1 43.5t-2.5 37.5t-4.5 29t-7 24.5t-11 17t-15.5 14t-20.5 7.5t-26 5.5t-33 1h-137v246q50 0 79 0.5t60.5 3t47 5.5t31.5 10.5 t22 16.5t12 24.5t7 32.5t1 44q0 46 -1 72.5t-4.5 55t-11 42.5t-20.5 27t-32.5 17.5t-47.5 4.5q-32 0 -54 -9.5t-33 -21t-17 -30.5t-6.5 -29t-0.5 -25v-121h-305v140q0 37 2 60.5t11 62.5t33.5 73t62.5 62q106 76 305 76q182 0 295 -68q26 -17 46 -36.5t33.5 -37.5t22.5 -45 t13.5 -46t6.5 -54t2.5 -56t0.5 -65q0 -64 -4.5 -100.5t-21.5 -73.5t-49 -65.5t-89 -61.5q26 -10 47 -20t38 -23.5t29.5 -24t22 -29t16 -30.5t10.5 -37t6.5 -40t3.5 -48t1 -52.5v-60.5q0 -62 -1 -93.5t-9 -85.5t-23.5 -82t-46.5 -65t-76.5 -55t-114.5 -31.5t-159 -13.5 q-74 0 -133.5 7t-102.5 22t-75 32.5t-52.5 44.5t-33.5 51.5t-19 60.5t-8 65t-2 70z" />
<glyph unicode="4" d="M70 315v267l413 864h346v-875h152v-256h-152v-315h-292v315h-467zM281 571h256v537z" />
<glyph unicode="5" d="M76 473h315v-115q0 -21 1 -33.5t6.5 -34t16.5 -33.5t34 -22t55 -10q31 0 53 10t33 22.5t16.5 34.5t6.5 36t1 37v258q0 31 -4 53.5t-15 44.5t-35.5 33.5t-61.5 11.5q-107 0 -107 -104h-299v786h811v-258h-512v-307q19 23 32 36t40 32t65.5 28.5t87.5 9.5q85 0 153 -29 t108 -83q28 -39 42.5 -98t16.5 -99t2 -111v-174q0 -133 -15.5 -195.5t-76.5 -119.5q-32 -28 -62.5 -46.5t-103 -37.5t-166.5 -19q-128 0 -223.5 25.5t-155.5 99.5q-41 53 -50 119.5t-9 251.5z" />
<glyph unicode="6" d="M90 410v657q0 57 2.5 93t24.5 101.5t62 105t123.5 71.5t201.5 32q88 0 157.5 -15.5t113.5 -37t75.5 -57t46.5 -64t23 -70.5t9 -62.5t1 -53.5v-98h-301q0 111 -4 127q-16 73 -99 73q-35 0 -60 -11t-36.5 -25t-18 -37t-7.5 -35t-1 -31v-268q27 29 48 45.5t67 33.5t103 17 q147 0 235 -76q50 -43 66 -94t16 -121v-237q0 -58 -2 -88.5t-11.5 -73.5t-32.5 -76.5t-61 -64.5q-118 -95 -319 -95q-214 0 -330 113q-31 31 -51 68.5t-28 83.5t-10.5 81t-2.5 89zM401 461q0 -138 9 -168q21 -64 106 -64q34 0 56.5 10.5t34 24t17 43.5t6.5 51t1 66 q0 174 -17 226t-98 52q-22 0 -38 -2.5t-28.5 -11.5t-20.5 -16.5t-13.5 -27t-8.5 -32t-4.5 -42.5t-1.5 -49v-60z" />
<glyph unicode="7" d="M55 1004v442h893v-262q-114 -184 -207 -447q-57 -158 -91.5 -275.5t-49 -205t-18 -135t-4.5 -121.5h-347q18 257 136 571q37 99 91.5 220t88 190t106.5 215h-311v-192h-287z" />
<glyph unicode="8" d="M80 479q0 59 3.5 95.5t13.5 69.5t31 54.5t52.5 40t81.5 37.5q-46 13 -72 27t-50 46.5t-34 90t-10 147.5q0 28 0.5 45t4.5 51.5t10.5 57.5t21.5 56t35 55.5t52.5 47.5t73 40t97.5 25t125 10q175 0 287 -76q36 -24 61 -57t37 -60t18.5 -64t7.5 -55.5t1 -48.5 q0 -44 -0.5 -68.5t-2.5 -57.5t-6.5 -51.5t-12.5 -42t-20 -37.5t-29.5 -30t-41 -28t-53.5 -23q111 -45 143.5 -98.5t32.5 -183.5v-168q0 -58 -4.5 -94.5t-29.5 -84.5t-73 -84q-109 -83 -323 -83q-267 0 -371 141q-40 53 -48.5 116t-8.5 242zM395 477q0 -179 11 -211 q20 -55 98 -55q21 0 37.5 2.5t28.5 10.5t20 15t13.5 25.5t8.5 30.5t4.5 41.5t1.5 48.5v60v4v41t-0.5 35t-2 32t-4 26t-6.5 23t-10 17t-13.5 15t-18 9t-24 6.5t-29.5 1.5q-24 0 -42.5 -4.5t-30.5 -10.5t-20.5 -20t-12.5 -25t-6 -34t-2.5 -38t-0.5 -46zM397 1044 q0 -44 1 -65.5t6 -49t15.5 -39t30.5 -20t50 -8.5q57 0 90 23q24 21 28.5 51t4.5 151q0 33 -3 54t-13.5 42t-33.5 31.5t-59 10.5q-29 0 -49.5 -5t-33 -18.5t-20 -25.5t-10.5 -37.5t-3.5 -42.5t-0.5 -52z" />
<glyph unicode="9" d="M70 320q-1 36 0 118h311v-100q0 -17 0.5 -28t6.5 -31t17 -31.5t34 -21t55 -9.5q70 0 94 31t24 96v301q-32 -29 -53 -44t-64 -29.5t-98 -14.5q-89 0 -160 37t-108 100q-53 87 -53 293q0 163 22 244.5t80 136.5q114 107 328 107q119 0 203.5 -35t125 -78t62.5 -112 t24.5 -105t2.5 -90v-649q0 -116 -19 -189.5t-76 -126.5q-115 -110 -329 -110q-75 0 -137.5 11.5t-102.5 30.5t-62.5 34t-37.5 30q-34 31 -53.5 64t-27.5 83.5t-9 86.5zM383 1051q0 -188 6 -217q11 -43 42 -62.5t67 -19.5q62 0 92 41q16 23 21 56t5 142v48.5t-1 42t-3 39.5 t-6 32t-10 29t-14.5 21t-20.5 17t-27.5 9t-35.5 4q-28 0 -48.5 -7t-32.5 -22t-19.5 -29t-10.5 -39.5t-3.5 -40.5t-0.5 -44z" />
<glyph unicode=":" horiz-adv-x="598" d="M186 0v311h301v-311h-301zM186 793v311h301v-311h-301z" />
<glyph unicode=";" horiz-adv-x="598" d="M168 -311l104 311h-92v311h301v-311l-172 -311h-141zM180 793v311h301v-311h-301z" />
<glyph unicode="&#x3c;" d="M2 592v254l1022 461v-285l-672 -303l672 -295v-283z" />
<glyph unicode="=" d="M0 252v260h1024v-260h-1024zM0 678v260h1024v-260h-1024z" />
<glyph unicode="&#x3e;" d="M0 141v283l674 295l-674 303v283l1024 -459v-254z" />
<glyph unicode="?" d="M168 1026v111q0 34 1 56t4.5 53t10.5 52t20 47t31.5 43t46.5 34.5t64 27.5t84.5 16.5t106.5 6.5q80 0 142.5 -10t104.5 -26t71.5 -43.5t46 -54t25.5 -67t11 -72.5t2 -80q0 -34 -1 -53.5t-11 -45t-19.5 -40.5t-40 -47.5t-58 -59t-87.5 -81.5q-95 -87 -112 -115t-17 -96 v-113h-301v100q0 89 20.5 144t96.5 127l153 147q31 30 43.5 45t20.5 41t8 66q0 108 -84 108q-26 0 -44 -8t-27 -18.5t-13.5 -30t-5 -31.5t-0.5 -35v-98h-293zM291 0v309h303v-309h-303z" />
<glyph unicode="@" horiz-adv-x="1835" d="M141 485q0 195 72.5 374t197 311t299 210t369.5 78q127 0 231.5 -34.5t174.5 -92.5t118 -135t69.5 -160.5t21.5 -171.5q0 -187 -70 -357t-183 -271t-233 -101q-64 0 -118 33q-25 16 -40 37t-20 34.5t-10 36.5q-16 -19 -26 -30t-37.5 -34.5t-52.5 -37.5t-64 -25.5 t-80 -11.5q-51 0 -98 18.5t-89.5 56.5t-68 108.5t-25.5 164.5q0 143 55.5 277t160 222.5t231.5 88.5q37 0 69 -9t52 -20t40.5 -31.5t28.5 -31t23 -31.5l20 80h184l-67 -325q-59 -280 -59 -340q0 -33 28 -54q17 0 28 2.5t31.5 12.5t44.5 36.5t52 69.5q59 90 90 202.5 t31 223.5q0 94 -27 169.5t-71.5 125t-105 82.5t-124.5 47t-133 14q-142 0 -279 -64t-242 -171.5t-169 -259.5t-64 -318q0 -124 38.5 -224t100.5 -164t144.5 -107.5t167 -61.5t172.5 -18q98 0 193.5 23.5t160.5 53t134.5 78t101 75.5t75.5 69l97 -125q-41 -38 -66 -59.5 t-76 -61.5t-92.5 -65t-104 -56.5t-122.5 -49.5t-136.5 -31t-156.5 -13q-70 0 -142.5 10.5t-152 36t-151 63.5t-136.5 97.5t-112 134t-75 176.5t-28 221zM690 492q0 -83 38.5 -128t92.5 -45q61 0 119.5 57t94.5 150t36 191q0 76 -38.5 124t-100.5 48q-69 0 -126 -63.5 t-86.5 -154t-29.5 -179.5z" />
<glyph unicode="A" horiz-adv-x="1067" d="M8 0l293 1446h467l293 -1446h-342l-49 330h-269l-51 -330h-342zM440 573h195l-96 644z" />
<glyph unicode="B" horiz-adv-x="1067" d="M102 0v1446h478q92 0 161.5 -12.5t128.5 -49.5q65 -43 88 -106t23 -158q0 -58 -2 -95t-8.5 -75t-19.5 -62t-34.5 -48t-53.5 -41.5t-77 -34.5q34 -10 54 -17.5t48.5 -22.5t48.5 -38.5t34 -56.5q17 -34 22.5 -82.5t5.5 -149.5q0 -181 -53 -270q-21 -36 -51 -61t-57.5 -37.5 t-67 -19.5t-64.5 -8t-67 -1h-537zM432 260h133q33 0 55 10t33.5 22.5t17 40t6.5 46.5t1 57q0 111 -19 150t-94 39h-133v-365zM432 881h143q61 0 79 35t18 122t-22 119.5t-85 32.5h-133v-309z" />
<glyph unicode="C" horiz-adv-x="1067" d="M82 354v713q0 86 15 148.5t57 115.5q116 142 393 142q229 0 346 -97q37 -30 61 -67t34 -79t13 -73.5t3 -73.5v-172h-345v181q0 69 -22.5 99t-97.5 30q-67 0 -88 -34t-21 -97v-719q0 -77 22 -110.5t95 -33.5q33 0 55 9t33 20t17 34t6.5 37.5t0.5 43.5v180h353v-129 q0 -63 -4.5 -111t-17.5 -95.5t-35 -82t-57.5 -64.5t-85 -48t-118 -28.5t-155.5 -10.5q-113 0 -195 17.5t-132.5 47.5t-79.5 78.5t-39.5 102t-10.5 126.5z" />
<glyph unicode="D" horiz-adv-x="1110" d="M104 0v1448h527q171 0 254 -49q35 -19 61 -44t41 -54.5t24.5 -55t13 -59t4.5 -51.5t1 -48v-722q0 -46 -1 -70.5t-7 -65.5t-21 -73t-40 -60q-53 -59 -130 -77.5t-186 -18.5h-541zM442 250h109q73 0 101 25.5t28 97.5v692q0 71 -29 101t-102 30h-107v-946z" />
<glyph unicode="E" horiz-adv-x="894" d="M104 0v1448h748v-256h-397v-332h374v-256h-374v-348h397v-256h-748z" />
<glyph unicode="F" horiz-adv-x="811" d="M100 0v1446h713v-248h-360v-324h329v-253h-329v-621h-353z" />
<glyph unicode="G" horiz-adv-x="1067" d="M82 471v539q0 129 21 214t72.5 142.5t137.5 82t217 24.5q202 0 308 -56q37 -19 64 -43t43 -54t25.5 -54.5t13 -62.5t4.5 -59t1 -63v-129h-336v135q0 23 -0.5 35t-6.5 34t-17 34t-33.5 21.5t-54.5 9.5q-31 0 -53 -9t-32.5 -20t-16 -33t-6.5 -35.5t-1 -40.5v-721 q0 -22 0.5 -35t6.5 -35.5t17 -35t33 -23t54 -10.5t54 10t33 22t16.5 34.5t6 35t0.5 35.5v164h-135v240h471v-764h-336v133q-35 -46 -71.5 -76t-73 -42t-61.5 -15.5t-60 -3.5q-50 0 -91 11t-70.5 27t-53 44.5t-38.5 53.5t-25.5 65t-15.5 67.5t-7.5 72.5t-3 68t-0.5 66z" />
<glyph unicode="H" horiz-adv-x="1150" d="M102 0v1446h351v-584h243v584h351v-1446h-351v606h-243v-606h-351z" />
<glyph unicode="I" horiz-adv-x="555" d="M100 0v1446h351v-1446h-351z" />
<glyph unicode="J" horiz-adv-x="681" d="M33 0v250h117q59 0 78.5 23.5t19.5 86.5v1086h350v-1067q0 -74 -2 -109.5t-13.5 -81t-35.5 -79.5q-18 -26 -41 -45.5t-51.5 -31t-51.5 -18.5t-57 -10t-52.5 -3.5t-51.5 -0.5h-209z" />
<glyph unicode="K" horiz-adv-x="1067" d="M102 0v1446h347v-655l266 655h356l-293 -684l330 -762h-367l-292 707v-707h-347z" />
<glyph unicode="L" horiz-adv-x="854" d="M102 0v1448h353v-1192h360v-256h-713z" />
<glyph unicode="M" horiz-adv-x="1579" d="M104 0v1446h467l142 -674q45 -214 80 -428q18 150 38 260l173 842h473v-1446h-312v920q0 78 4 141l-227 -1061h-307l-229 1067q6 -246 6 -260v-807h-308z" />
<glyph unicode="N" horiz-adv-x="1150" d="M100 0v1446h346l304 -938v938h299v-1446h-353l-301 942v-942h-295z" />
<glyph unicode="O" horiz-adv-x="1110" d="M82 440v598q0 101 21 178t81 140q39 41 88.5 67t105.5 36t93.5 13t89.5 3q95 0 170.5 -19t123 -45.5t81.5 -71.5t50 -81t25 -91.5t10 -84t1 -76.5v-553q0 -46 -1 -73t-6.5 -72t-16 -77.5t-32 -70.5t-51.5 -68q-36 -37 -83 -61t-100.5 -33.5t-92 -12.5t-88.5 -3 q-75 0 -137.5 10.5t-107.5 27.5t-81 44t-59 53t-40 63.5t-25 66t-12.5 68.5t-5.5 64.5t-1 60.5zM432 358q0 -26 1 -39t7 -32t18 -28t36 -16t59 -7q68 0 94.5 28.5t26.5 93.5v740q0 69 -27.5 94t-99.5 25q-64 0 -89.5 -26t-25.5 -91v-742z" />
<glyph unicode="P" horiz-adv-x="1067" d="M102 0v1448h584q189 0 264.5 -67.5t75.5 -229.5v-297q0 -102 -20 -167.5t-63.5 -100.5t-98.5 -47.5t-139 -12.5h-252v-526h-351zM453 782h116h5q88 0 106 36q18 38 18 186q0 110 -6 141t-37 45q-25 10 -202 10v-418z" />
<glyph unicode="Q" horiz-adv-x="1110" d="M82 442v596q0 101 21 178t81 140q39 41 88.5 67t105.5 36t93.5 13t89.5 3q95 0 170.5 -19t123 -45.5t81.5 -71.5t50 -81t25 -91.5t10 -84t1 -76.5v-551q0 -48 -1.5 -79.5t-8 -80t-19 -81.5t-37 -72.5t-59 -66.5t-87.5 -50t-120 -35q0 -95 2 -105q4 -16 12.5 -26t23 -13.5 t24.5 -4.5t28 -1h148v-219h-283q-128 0 -185 50t-57 184v137q-44 9 -74 18.5t-76 36t-83 66.5q-52 60 -70 136.5t-18 192.5zM432 358q0 -21 0.5 -31.5t4 -27t11 -25.5t20.5 -18.5t34.5 -13.5t50.5 -4h5q64 0 90 27q26 28 26 93v740q0 69 -27.5 94t-99.5 25q-64 0 -89.5 -26 t-25.5 -91v-742z" />
<glyph unicode="R" horiz-adv-x="1067" d="M102 0v1448h492q45 0 77 -2.5t77 -10.5t83.5 -28.5t67.5 -52.5q43 -50 56.5 -117t13.5 -160q0 -63 -9 -110.5t-22.5 -78t-40 -56.5t-49 -40.5t-62.5 -35.5q52 -12 85.5 -29.5t54.5 -38.5t31 -56t13 -70.5t3 -94.5v-307q0 -67 11.5 -98.5t37.5 -61.5h-322q-17 32 -25 50 t-16 60.5t-8 98.5q0 17 2 123t2 127q0 36 -2 59t-8.5 42.5t-17 28.5t-27 16.5t-40.5 8t-56 2.5q-16 1 -34.5 1t-39.5 -1v-616h-328zM430 866q136 0 152 4q49 10 62 48t13 131q0 94 -22 120.5t-100 26.5h-105v-330z" />
<glyph unicode="S" horiz-adv-x="980" d="M38 340q-1 23 -1 48q0 36 2 75h346v-113q0 -16 0.5 -26.5t6 -29.5t15.5 -30.5t30.5 -21t49.5 -9.5q31 0 53 8t33 18t17 26t7 26t1 25q0 33 -0.5 48t-5 35.5t-11 30.5t-23.5 27.5t-36 32t-55 39.5l-211 151q-45 32 -67 49t-50 43.5t-39.5 47.5t-24 53.5t-16.5 71t-4 90.5 q0 116 20 191.5t71.5 128t139 75.5t222.5 23q81 0 142 -10t105 -27t74 -48.5t47.5 -65.5t26 -87t10.5 -105q1 -26 1 -57t-1 -69h-331v100q0 64 -17.5 92.5t-79.5 28.5q-25 0 -42.5 -8.5t-26.5 -18.5t-13.5 -30.5t-5 -33t-0.5 -36.5q0 -63 11.5 -91t54.5 -57l299 -207 q40 -27 60.5 -43t46 -40.5t37 -46.5t23 -55.5t15.5 -74.5t4 -96q0 -114 -22 -180.5t-70 -116.5q-50 -52 -133 -81t-229 -29q-245 0 -357 90q-38 32 -60 74t-29.5 90t-9.5 106z" />
<glyph unicode="T" horiz-adv-x="980" d="M27 1194v254h929v-254h-288v-1194h-355v1194h-286z" />
<glyph unicode="U" horiz-adv-x="1110" d="M98 395v1051h351v-1090q0 -20 0.5 -31.5t6 -32.5t16 -33t32.5 -22t53 -10q29 0 49.5 9t30.5 20t15.5 31t6 31.5t0.5 31.5v1096h351v-1040q0 -39 -0.5 -62.5t-5 -63t-12 -65.5t-23 -61t-37 -57.5t-55 -47.5t-76 -39t-101 -23.5t-129.5 -9.5q-98 0 -175 15.5t-126 37 t-83.5 60.5t-51.5 69t-26 80.5t-10 78t-1 77.5z" />
<glyph unicode="V" d="M-6 1446h354l154 -1120h16l150 1120h352l-258 -1446h-498z" />
<glyph unicode="W" horiz-adv-x="1662" d="M4 1448h332l104 -1118h17l168 1118h403l199 -1118h12l80 1118h336l-174 -1448h-453l-197 1130l-188 -1130h-455z" />
<glyph unicode="X" horiz-adv-x="980" d="M-2 1446h352l144 -465l139 465h348l-256 -680l256 -766h-356l-131 555l-134 -555h-352l250 766z" />
<glyph unicode="Y" horiz-adv-x="1067" d="M8 1446h346l176 -639l177 639h348l-361 -936v-510h-340v510z" />
<glyph unicode="Z" horiz-adv-x="894" d="M-2 0v283l502 909h-439v256h801v-287l-502 -905h514v-256h-876z" />
<glyph unicode="[" horiz-adv-x="724" d="M178 -426v1874h518v-137h-217v-1600h217v-137h-518z" />
<glyph unicode="\" horiz-adv-x="641" d="M18 1446h250l357 -1446h-254z" />
<glyph unicode="]" horiz-adv-x="724" d="M29 -289h217v1600h-217v137h518v-1874h-518v137z" />
<glyph unicode="^" horiz-adv-x="1492" d="M233 637l416 809h213l398 -809h-283l-225 473l-238 -473h-281z" />
<glyph unicode="_" d="M-20 -154h1064v-102h-1064v102z" />
<glyph unicode="`" horiz-adv-x="555" d="M2 1507h354l195 -260h-262z" />
<glyph unicode="a" d="M63 252q0 54 7 98t16.5 75.5t30 58.5t37.5 43t49.5 34t54.5 27.5t64 25.5q117 43 158.5 60.5t115.5 52.5q0 99 -6 117q-20 53 -90 53q-27 0 -45 -8.5t-27.5 -19t-14 -36.5t-5 -45t-0.5 -61h-314q-3 29 -0.5 60.5t4 64.5t13.5 65.5t28.5 62t47.5 55t71 44t100 29t134 10.5 q183 0 290 -55q40 -21 68 -51.5t41.5 -57t21 -63.5t8.5 -56.5t1 -50.5v-614q0 -73 9 -104t38 -66h-373v92q-47 -41 -74.5 -61.5t-82 -41t-115.5 -20.5q-54 0 -96.5 12.5t-69 30.5t-46 46.5t-28.5 51.5t-14.5 55t-6 48t-0.5 39zM399 303q0 -26 0.5 -39t4.5 -32.5t12.5 -29 t24.5 -17t40 -7.5q38 0 62.5 11t35 33.5t14 43.5t3.5 53v228q-18 -10 -52.5 -28.5t-58.5 -31.5t-32 -18q-34 -25 -44 -59t-10 -107z" />
<glyph unicode="b" d="M92 0v1446h326v-447q20 23 37.5 38t49 36.5t73.5 33t92 11.5q44 0 81 -8.5t63 -21t47 -34t34.5 -40.5t22.5 -48.5t14 -49.5t7 -52t2.5 -48t0.5 -44v-463q0 -42 -2 -67.5t-9.5 -68.5t-28.5 -78.5t-54 -63.5q-72 -60 -168 -60q-46 0 -87.5 11.5t-77 34t-53.5 37t-44 38.5 v-92h-326zM418 326q0 -20 0.5 -32.5t5.5 -35t14.5 -35t29 -23t46.5 -10.5q30 0 51 10t31 22.5t15.5 35t6 35.5t0.5 35v444q0 18 -0.5 29t-5.5 30t-14 30.5t-28 20.5t-46 9q-37 0 -60.5 -11.5t-32.5 -33.5t-11 -36t-2 -38v-446z" />
<glyph unicode="c" horiz-adv-x="937" d="M76 303v451q0 29 0.5 45.5t4 49.5t10.5 54t21.5 52t34.5 51t52 43t72.5 36t97 22t123.5 9q212 0 319 -94q31 -26 50.5 -55.5t27 -66t9 -59.5t1.5 -65v-104h-321v123q0 102 -84 102q-95 0 -95 -102v-514q0 -101 97 -101q23 0 39.5 7.5t24.5 16.5t12.5 25t5 25.5t0.5 26.5 v102h321v-98q0 -47 -3.5 -76.5t-21.5 -69t-53 -71.5q-106 -99 -313 -99q-70 0 -128.5 8.5t-100.5 21t-75 33.5t-54 40t-36 47.5t-22 48t-11 49.5t-4.5 45t-0.5 41z" />
<glyph unicode="d" d="M76 336v436q0 26 0.5 42t3.5 50t10 58.5t18 56.5t30.5 54.5t45.5 43t64 31t84 10.5q48 0 89.5 -11t67 -24t52 -38t36 -37t27.5 -37v475h326v-1446h-326v117q-20 -30 -34 -47t-46 -45t-78 -42t-104 -14q-54 0 -97 14.5t-70.5 35t-47 55t-29.5 63t-15 71t-6 67t-1 61.5z M399 332q0 -20 1 -32t6.5 -31.5t16 -31t32 -20t51.5 -8.5q28 0 47.5 9.5t29.5 21t15 33t5.5 33.5t0.5 34v438q0 115 -106 115q-34 0 -56 -12t-30.5 -34t-10.5 -36t-2 -35v-444z" />
<glyph unicode="e" horiz-adv-x="980" d="M76 399v295q0 235 94 329.5t322 94.5q117 0 199 -26.5t122 -60t61 -93t24 -95t3 -97.5v-1v-274h-495v-178q0 -15 0.5 -24.5t5.5 -26.5t13.5 -27t26.5 -18.5t44 -8.5q58 0 86 33q13 18 15.5 38.5t2.5 100.5h313q0 -66 -2 -99t-13.5 -77.5t-35.5 -77.5q-96 -137 -370 -137 q-90 0 -182.5 24.5t-151.5 86.5q-47 50 -64.5 120.5t-17.5 198.5zM406 678h188v113q0 18 -0.5 28.5t-5.5 30t-13.5 30.5t-26.5 20t-44 9q-28 0 -47.5 -9.5t-29 -21t-15 -30.5t-6 -29.5t-0.5 -27.5v-113z" />
<glyph unicode="f" horiz-adv-x="641" d="M10 885v202h144v123q0 72 15 119t49 72.5t78.5 35t113.5 9.5h213v-205q-72 0 -90 -2t-31 -12q-18 -13 -21.5 -34t-3.5 -106h146v-202h-146v-885h-323v885h-144z" />
<glyph unicode="g" d="M74 -190v27q0 25 2 48h325q0 -81 4 -107.5t23 -45.5q21 -25 68 -25q30 0 51 10t31 22t15.5 32.5t6 32t0.5 28.5v260q-16 -26 -29 -41.5t-40 -37t-70 -32t-101 -10.5q-56 0 -101 12.5t-74 32t-50.5 49t-32.5 56t-17 61t-7.5 57t-1.5 50.5v483q0 191 59 260q14 17 34.5 34 t71.5 35.5t113 18.5q47 0 86.5 -10t63 -22.5t45.5 -34.5t30 -33.5t21 -32.5v103h330v-1182q0 -50 -1.5 -80t-10 -78t-24 -78t-47 -66t-76 -56t-113 -34t-156.5 -14q-241 0 -340 86q-33 30 -53.5 68.5t-26.5 76t-8 77.5zM401 293q0 -14 2 -26t10 -33t30 -33.5t55 -12.5 q102 0 102 127v459q0 117 -96 117q-103 0 -103 -125v-473z" />
<glyph unicode="h" d="M92 0v1446h322v-457q18 24 27.5 36t32.5 33.5t44.5 32.5t56 20t74.5 9q45 0 83.5 -8.5t65.5 -22t48.5 -35t35 -41.5t23.5 -48.5t14.5 -48.5t7 -49.5t3 -43.5t0.5 -37v-786h-326v752q0 23 -2 38.5t-9.5 40.5t-28 38.5t-52.5 13.5q-98 0 -98 -123v-760h-322z" />
<glyph unicode="i" horiz-adv-x="512" d="M92 0v1087h326v-1087h-326zM92 1196v250h326v-250h-326z" />
<glyph unicode="j" horiz-adv-x="512" d="M-61 -172q14 -1 27 -1q46 0 71 9q32 11 40.5 31.5t8.5 64.5v1155h324v-1220q0 -148 -68 -202t-217 -54h-186v217zM84 1196v250h326v-250h-326z" />
<glyph unicode="k" d="M92 0v1446h324v-770l227 411h365l-293 -466l313 -621h-362l-250 555v-555h-324z" />
<glyph unicode="l" horiz-adv-x="512" d="M92 0v1446h328v-1446h-328z" />
<glyph unicode="m" horiz-adv-x="1536" d="M94 0v1087h324v-114q17 27 30 44t43 44.5t74.5 42t100.5 14.5q47 0 87.5 -11.5t65.5 -26.5t47.5 -38t31.5 -36.5t20 -32.5q51 76 106.5 110.5t149.5 34.5q54 0 97 -14t70 -34t46 -52.5t28.5 -58.5t14.5 -64.5t5.5 -57.5t0.5 -49v-788h-326v784q0 16 -0.5 25.5t-5 27.5 t-13 28.5t-26.5 19t-43 8.5q-27 0 -46 -8t-28 -18t-14 -27t-5.5 -26.5t-0.5 -25.5v-788h-326v786q0 109 -92 109q-26 0 -44.5 -9t-27 -19t-13 -28.5t-5 -27t-0.5 -23.5v-788h-326z" />
<glyph unicode="n" d="M92 0v1087h328v-102q20 25 36 41t47.5 40t72.5 37t88 13q144 0 217 -106q24 -34 36.5 -75.5t14.5 -71t2 -77.5v-786h-322v774q0 119 -94 119q-98 0 -98 -113v-780h-328z" />
<glyph unicode="o" horiz-adv-x="980" d="M74 356v375q0 32 0.5 50t4 53.5t10.5 58t21 55t34 53.5t52 45t72 37.5t96 23t123 9.5q68 0 124.5 -9t97 -23t72.5 -37t52.5 -44t35 -51.5t21.5 -52t10.5 -53.5t4 -48t0.5 -42v-414q0 -28 -0.5 -44.5t-4 -50.5t-10.5 -56t-21 -54t-34 -53.5t-52 -45.5t-72 -38t-96 -23.5 t-123 -9.5q-193 0 -304 82q-74 53 -94 122.5t-20 184.5zM395 305q0 -21 2 -34t9.5 -32.5t28.5 -29.5t54 -10q95 0 95 123v448q0 19 -0.5 31t-6 31.5t-14.5 31t-28 20.5t-46 9q-33 0 -54 -13.5t-28.5 -38t-9.5 -39.5t-2 -38v-459z" />
<glyph unicode="p" d="M94 -383v1470h326v-116q18 26 28.5 40t35.5 38t50 36.5t65.5 22.5t88.5 10q133 0 205 -86q59 -76 59 -203v-493q0 -67 -7 -120t-25.5 -100t-48.5 -78t-77.5 -49t-111.5 -18q-58 0 -103 11.5t-76.5 35t-46.5 39.5t-36 43v-483h-326zM420 338q0 -19 0.5 -31t6 -34 t15.5 -35.5t31 -24t51 -10.5q105 0 105 135v414q0 125 -103 125q-30 0 -51.5 -9.5t-32 -21t-16 -31.5t-6 -31t-0.5 -28v-418z" />
<glyph unicode="q" d="M76 340v387q0 102 11 169t48 120q35 50 93.5 75t125.5 25q93 0 164 -43q61 -38 86 -94v108h326v-1470h-326v479q-17 -22 -24.5 -31.5t-32 -31t-46.5 -32.5t-59 -20.5t-80 -9.5q-154 0 -225 103q-30 39 -45.5 96t-15.5 170zM399 338q0 -131 103 -131q29 0 49.5 10t30.5 22 t15.5 34t6 34.5t0.5 34.5v418q0 25 -3 42.5t-12 39t-31.5 33.5t-57.5 12q-28 0 -48.5 -10t-30.5 -23t-15 -34t-6 -33.5t-1 -30.5v-418z" />
<glyph unicode="r" horiz-adv-x="724" d="M94 0v1087h328v-159q48 97 107 135.5t192 48.5v-283q-147 0 -176 -6q-42 -9 -69 -30t-37.5 -53t-13.5 -55.5t-3 -59.5v-625h-328z" />
<glyph unicode="s" horiz-adv-x="894" d="M43 336h313q-2 -14 -2 -39q0 -19 2 -31.5t9.5 -32t28 -30t52.5 -10.5q44 0 66.5 23t22.5 56q0 21 -6.5 37.5t-23.5 31t-27.5 21.5t-35.5 21l-153 82q-60 32 -91.5 51.5t-64.5 47.5t-47.5 57.5t-23.5 71.5t-9 100q0 96 25 155t88 99q103 71 287 71q114 0 194.5 -28 t119 -61t59.5 -90.5t23.5 -89t2.5 -83.5h-311q1 12 1 23q0 36 -10 63q-17 47 -77 47q-41 0 -64.5 -24.5t-23.5 -65.5t26.5 -64t110.5 -65l188 -94q58 -30 94 -59t52.5 -62.5t21 -62t4.5 -72.5q0 -97 -18.5 -156.5t-73.5 -107.5q-113 -95 -326 -95q-65 0 -119.5 8.5t-94 21.5 t-70 35.5t-50.5 42.5t-33.5 50.5t-20.5 52t-10.5 55.5t-4 51t-0.5 48z" />
<glyph unicode="t" horiz-adv-x="641" d="M0 885v202h145v359h324v-359h145v-202h-145v-566q0 -69 28.5 -85.5t116.5 -16.5v-217h-184q-88 0 -145.5 17.5t-87.5 55t-41 83t-11 112.5v617h-145z" />
<glyph unicode="u" d="M86 311v779h324v-760q0 -16 0.5 -25.5t5.5 -27.5t14.5 -28.5t29 -19t46.5 -8.5q35 0 57.5 11.5t30.5 32.5t10 34t2 33v758h324v-1090h-324v119q-19 -31 -34 -49.5t-44.5 -45t-72.5 -40t-97 -13.5q-56 0 -100.5 15t-72.5 36.5t-48 55.5t-29.5 61.5t-15 66.5t-6 58t-0.5 47 z" />
<glyph unicode="v" horiz-adv-x="894" d="M8 1087h318l118 -811h23l98 811h324l-223 -1087h-433z" />
<glyph unicode="w" horiz-adv-x="1449" d="M0 1087h332l82 -790l135 790h364l131 -790l86 790h328l-229 -1087h-336l-164 754l-164 -754h-338z" />
<glyph unicode="x" horiz-adv-x="894" d="M-2 0l256 565l-242 522h340l101 -319l90 319h331l-233 -522l254 -565h-340l-102 334l-119 -334h-336z" />
<glyph unicode="y" horiz-adv-x="894" d="M-4 1087h319l131 -856l121 856h326l-260 -1118q-27 -115 -52.5 -175t-74.5 -101q-41 -37 -101 -56t-107.5 -22.5t-125.5 -3.5h-158v211h144q65 0 90 22.5t31 83.5z" />
<glyph unicode="z" horiz-adv-x="811" d="M20 0v209l402 672h-328v209h694v-209l-403 -672h371v-209h-736z" />
<glyph unicode="{" horiz-adv-x="724" d="M63 449v153q38 6 66 18t46.5 34t29 45.5t16 62t7 72.5t1.5 88v98q0 151 11.5 216t62.5 120q31 33 66 53t89 29t94.5 11t123.5 3v-143q-37 0 -64.5 -5.5t-46 -13.5t-31 -26.5t-19 -32.5t-9.5 -45t-3.5 -50t-0.5 -59v-135q0 -41 -0.5 -63.5t-2.5 -61t-5.5 -60.5t-11.5 -54 t-19 -51t-28.5 -42t-39.5 -37t-52 -26t-67 -17v-10q37 -5 67 -17t52 -26t39.5 -37t28.5 -42t19 -51t11.5 -53.5t5.5 -59t2.5 -59.5t0.5 -62v-138q0 -35 0.5 -52t2.5 -45.5t6.5 -41.5t12.5 -32.5t20.5 -28.5t30.5 -18.5t43.5 -12.5t57.5 -2v-143q-59 1 -84 1.5t-70 3.5 t-68 8.5t-54 16t-53.5 27t-43.5 39.5q-35 38 -52 90t-19.5 92.5t-2.5 122.5v147q0 36 -0.5 55t-3.5 54.5t-9 57t-18 49t-29.5 43.5t-44.5 28.5t-61 14.5z" />
<glyph unicode="|" horiz-adv-x="468" d="M104 -512v2048h261v-2048h-261z" />
<glyph unicode="}" horiz-adv-x="724" d="M49 -258q37 0 64.5 5.5t46 13.5t31 26.5t19 32.5t9.5 44.5t3.5 49.5t0.5 59v136q0 41 0.5 63.5t2.5 60.5t5.5 60t11.5 54t19 51t28.5 42t39.5 37t52 26t67 17v10q-37 5 -67 17t-52 26t-39.5 37t-28.5 42t-19 50.5t-11.5 53.5t-5.5 60t-2.5 59.5t-0.5 62.5v137v42t-1 38 t-3.5 35.5t-6.5 30t-10.5 27.5t-16 21.5t-22.5 18.5t-29.5 12t-37.5 8t-47 1v143q70 -1 99.5 -2t80 -6t77.5 -14.5t59 -27.5t57 -46q35 -38 52 -90t19.5 -92.5t2.5 -122.5v-148q0 -36 0.5 -55.5t3.5 -55t9 -56.5t18 -48.5t29.5 -43t44.5 -28t61 -14.5v-153q-38 -6 -66 -18 t-46.5 -34t-29 -45.5t-16 -62t-7 -72.5t-1.5 -88v-98q0 -151 -11.5 -216t-62.5 -120q-31 -33 -66 -53t-89 -29t-94.5 -11t-123.5 -3v143z" />
<glyph unicode="~" horiz-adv-x="1492" d="M211 616q20 27 34 45t45.5 49t62.5 50t77.5 34t97.5 15q56 0 98.5 -15t188.5 -81q96 -45 156 -45q98 0 205 125l106 -213q-64 -73 -149.5 -122.5t-169.5 -49.5q-87 0 -222 67q-85 43 -124.5 58.5t-79.5 15.5q-60 0 -97 -27t-116 -116z" />
<glyph unicode="&#xa1;" horiz-adv-x="598" d="M100 0v178q0 87 17 287q6 72 22.5 258.5t22.5 257.5h188q21 -287 31 -412q22 -282 22 -391v-178h-303zM100 1135v311h303v-311h-303z" />
<glyph unicode="&#xa2;" horiz-adv-x="937" d="M76 305v449q0 24 0.5 37.5t2 40.5t6.5 44.5t12 44t20 44.5t30 40.5t42 38t56 31t72 25t89 14.5v219h169v-221q148 -17 236 -88q31 -26 50.5 -56t27 -67t9 -60t1.5 -65v-104h-321v123q0 102 -84 102q-95 0 -95 -102v-512q0 -103 97 -103q23 0 39.5 7.5t24.5 16.5t12.5 25 t5 25.5t0.5 26.5v102h321v-98q0 -25 -1 -41.5t-7 -49.5t-17.5 -56.5t-35.5 -53.5t-57 -50t-86 -37.5t-120 -23.5v-264h-169v266q-84 10 -145 32.5t-96.5 51t-56 70t-27 82t-5.5 94.5z" />
<glyph unicode="&#xa3;" horiz-adv-x="1193" d="M57 184q0 97 61.5 149t153.5 52q57 0 166 -33q-2 78 -18.5 132.5t-73.5 162.5h-280v166h200q-25 63 -37 97.5t-22 87.5t-10 110q0 28 1 47t5.5 51t12.5 55t24.5 53t39 51t58 43t79.5 36t105.5 22.5t134.5 8.5q86 0 151.5 -14t107.5 -38.5t71.5 -59.5t42.5 -76.5t20.5 -89 t6 -98t-1.5 -102.5h-285v82t-6 69t-19 53t-38.5 34t-63.5 12q-68 0 -99.5 -34t-31.5 -103q0 -111 78 -297h332v-166h-269q52 -146 52 -225q0 -63 -31 -154q81 -35 121 -35q29 0 47 10t25 29.5t8.5 33t1.5 36.5v141h280q0 -221 -10 -284q-4 -26 -8 -45t-21 -54.5t-41 -58 t-70.5 -41t-107.5 -18.5q-67 0 -137.5 22.5t-204.5 83.5q-26 -24 -44 -38t-52 -34.5t-76 -30.5t-92 -10q-116 0 -176 59.5t-60 149.5zM258 188q0 -28 18.5 -40.5t40.5 -12.5t40 11t26.5 21.5t19.5 27.5q-3 2 -10.5 7.5t-11 8t-11 7t-12 6.5t-11 5.5t-12.5 5t-12.5 2.5 t-13.5 1q-25 0 -38 -14.5t-13 -35.5z" />
<glyph unicode="&#xa4;" horiz-adv-x="1366" d="M14 219l166 166q-26 43 -41 73t-31 98.5t-16 148.5q0 68 13 124t27.5 87.5t45.5 87.5l-162 165l193 195l164 -164q56 31 88 45.5t92.5 28.5t130.5 14q72 0 130.5 -13.5t87 -27t91.5 -47.5l164 164l197 -195l-166 -163q31 -58 45.5 -91t27.5 -91.5t13 -127.5 q0 -73 -13.5 -133.5t-28 -91.5t-46.5 -88l166 -168l-197 -195l-164 168q-62 -32 -92 -45t-90 -27t-129 -14q-52 0 -95 6.5t-85 22.5t-62 25.5t-65 33.5l-166 -165zM348 688q0 -144 102 -238t240 -94t233 99.5t95 240.5q0 80 -30.5 145.5t-79.5 106.5t-107.5 63.5 t-118.5 22.5q-58 0 -115 -20.5t-107 -61t-81 -109t-31 -155.5z" />
<glyph unicode="&#xa5;" horiz-adv-x="1067" d="M8 1448h346l176 -635l177 635h348l-256 -666h180v-178h-248l-35 -86v-24h283v-179h-285v-315h-340v315h-282v179h280v24l-33 86h-247v178h184z" />
<glyph unicode="&#xa6;" horiz-adv-x="468" d="M104 -358v716h261v-716h-261zM104 666v716h261v-716h-261z" />
<glyph unicode="&#xa7;" horiz-adv-x="894" d="M8 109l129 221q64 -39 101.5 -60.5t95.5 -45t96 -23.5q42 0 63 22.5t21 50.5q0 32 -25 52t-157 94q-39 22 -56 31.5t-48 28t-44.5 28.5t-35.5 27.5t-31.5 30.5t-22.5 31.5t-18 36.5t-9 40.5t-4 48.5q0 47 13 85t38.5 68t47 48t55.5 41q-29 21 -45.5 35t-41 42t-36.5 64.5 t-12 81.5q0 12 1 26.5t9 44.5t21 56t40 57t63.5 52.5t95 36t130.5 14.5q84 0 168.5 -19t127.5 -36t120 -52l-119 -221q-85 41 -121 57.5t-83.5 33.5t-73.5 17q-37 0 -54.5 -20.5t-17.5 -44.5q0 -34 39 -64q26 -18 145 -79q45 -24 63 -33.5t55.5 -32.5t53.5 -37t41 -39 t36 -48t19.5 -54t8.5 -66q0 -43 -11 -80.5t-34 -70.5t-39.5 -52t-46.5 -49q24 -17 37.5 -29t35 -37t32 -58.5t10.5 -75.5q0 -56 -26 -109.5t-74.5 -98.5t-128 -72.5t-177.5 -27.5q-84 0 -162.5 20.5t-126 43t-131.5 68.5zM289 786q0 -25 11 -44t22.5 -27.5t31.5 -20.5 q48 -29 230 -129q19 15 29.5 25.5t21 30.5t10.5 43q0 46 -47 75q-15 12 -246 146q-63 -42 -63 -99z" />
<glyph unicode="&#xa8;" horiz-adv-x="555" d="M-96 1247v254h293v-254h-293zM358 1247v254h293v-254h-293z" />
<glyph unicode="&#xa9;" horiz-adv-x="1705" d="M125 725q0 201 97.5 368t265.5 263t368 96q151 0 286 -57t231.5 -154.5t153 -233.5t56.5 -288q0 -142 -54 -274t-148.5 -231.5t-232 -159.5t-294.5 -60q-143 0 -275.5 54t-233 148t-160.5 232.5t-60 296.5zM190 723q0 -186 91.5 -339.5t242 -239t324.5 -85.5 q120 0 227 36t186.5 99t138 146.5t88.5 180.5t30 198q0 183 -86 336t-238 242t-336 89q-185 0 -339 -90t-241.5 -242t-87.5 -331zM358 721q0 105 35 198.5t99 164t162 112t216 41.5q65 0 124 -13.5t97.5 -30t79 -45t57.5 -44.5t44 -43l-178 -170q-21 20 -36.5 32.5 t-44.5 30.5t-64.5 27.5t-76.5 9.5q-120 0 -190 -72.5t-70 -191.5q0 -122 72 -194t193 -72q50 0 92 14.5t65 31t60 48.5l178 -166q-34 -35 -59.5 -56t-75.5 -53t-115 -48.5t-141 -16.5q-108 0 -197 29.5t-148.5 78.5t-100.5 115t-59 137t-18 146z" />
<glyph unicode="&#xaa;" horiz-adv-x="724" d="M68 915q0 85 24.5 130t77.5 71q20 10 131 49.5t123 44.5q0 35 -1 49.5t-7.5 29.5t-20.5 19.5t-39 4.5q-48 0 -57.5 -19t-9.5 -84h-203q0 66 1.5 88.5t10.5 44.5q23 59 90.5 87t159.5 28q47 0 85.5 -5t66.5 -11.5t50 -20.5t36 -25t24 -31.5t14.5 -34t7 -39t3 -39.5 t0.5 -42v-323q0 -58 6.5 -80.5t24.5 -46.5h-242v49q-98 -70 -193 -70q-163 0 -163 176zM285 950q0 -13 0.5 -20.5t3.5 -20t9 -19.5t18.5 -12.5t29.5 -5.5q27 0 44 8.5t23.5 24t8.5 26.5t2 27v132q-40 -14 -56.5 -20t-37 -17t-26 -17t-12 -20t-7 -27.5t-0.5 -38.5z" />
<glyph unicode="&#xab;" horiz-adv-x="811" d="M63 518v248l291 238v-261l-118 -96l118 -104v-260zM434 520v246l291 240v-263l-121 -98l121 -106v-256z" />
<glyph unicode="&#xac;" horiz-adv-x="1366" d="M0 465v260h1364v-725h-260v465h-1104z" />
<glyph unicode="&#xad;" horiz-adv-x="681" d="M57 602v248h561v-248h-561z" />
<glyph unicode="&#xae;" horiz-adv-x="1705" d="M125 723q0 154 59 290.5t157.5 232t232 151t278.5 55.5q151 0 286.5 -56.5t233 -153.5t154.5 -232.5t57 -288.5q0 -144 -55.5 -277t-151.5 -232.5t-233.5 -158.5t-292.5 -59q-141 0 -272.5 54t-231.5 148t-160.5 231.5t-60.5 295.5zM190 723q0 -184 89.5 -337t241.5 -240 t331 -87q141 0 266 54t212 144t137.5 211.5t50.5 252.5q0 137 -51 259.5t-138.5 211.5t-212 141.5t-264.5 52.5q-133 0 -255 -51.5t-211.5 -139.5t-142.5 -211.5t-53 -260.5zM512 262v938h334q156 0 221 -22q84 -26 125 -92t41 -140q0 -48 -15.5 -86t-44.5 -63.5t-50 -38 t-54 -27.5q32 -21 48 -36t31.5 -49.5t25.5 -90.5q16 -108 31.5 -170.5t47.5 -122.5h-258q-19 38 -27.5 74t-23.5 129q-6 36 -8 50.5t-7.5 39.5t-8 32.5t-11 23t-13 19t-18 11.5t-23.5 8.5t-31 3t-38.5 2.5h-48.5v-393h-225zM737 834h99q34 0 51.5 0.5t45 6t41 15t24 29.5 t10.5 49t-11.5 49.5t-29 28.5t-30 11t-22.5 3q-18 2 -178 2v-194z" />
<glyph unicode="&#xaf;" horiz-adv-x="555" d="M-41 1247v185h639v-185h-639z" />
<glyph unicode="&#xb0;" horiz-adv-x="724" d="M10 1171q0 145 101 250t251 105t251.5 -105t101.5 -250q0 -144 -103 -248t-250 -104q-146 0 -249 103.5t-103 248.5zM250 1176q0 -46 34 -79.5t81 -33.5q46 0 79 33t33 80q0 50 -33 82t-79 32q-47 0 -81 -32.5t-34 -81.5z" />
<glyph unicode="&#xb1;" d="M66 0v260h895v-260h-895zM66 696v260h319v318h260v-318h316v-260h-316v-319h-260v319h-319z" />
<glyph unicode="&#xb2;" horiz-adv-x="681" d="M59 541q0 55 0.5 83t5.5 67t11.5 57.5t24 51.5t36.5 53.5t56 58t76 71t102 86.5q29 25 37 44.5t8 78.5q0 25 -1.5 38.5t-8 32.5t-23 28t-43.5 9t-44.5 -8t-24 -24.5t-8 -27t-1.5 -28.5v-120h-203q0 126 2.5 167t14.5 72q15 39 45 66t68.5 40t72.5 18t70 5q99 0 164 -28 q36 -15 61 -36.5t38 -41.5t19.5 -51t7.5 -51t1 -54q0 -48 -5 -81.5t-10.5 -55.5t-25 -45.5t-34 -37.5t-50.5 -46q-62 -57 -85 -78.5t-55 -59t-51 -73.5h311v-180h-559z" />
<glyph unicode="&#xb3;" horiz-adv-x="681" d="M53 864h203v-76q0 -20 0.5 -31t4.5 -27t11.5 -24.5t22.5 -15t37 -6.5q54 0 65 29t11 143q0 55 -28.5 65.5t-156.5 8.5v166q122 -3 153.5 6.5t31.5 62.5q0 97 -12.5 117.5t-76.5 20.5q-45 0 -54 -24.5t-9 -119.5h-203q0 102 1 125.5t7 46.5q40 127 252 127q75 0 129.5 -11 t85.5 -28.5t49 -45.5t23.5 -55.5t5.5 -64.5q0 -50 -1 -72.5t-5 -53.5t-14 -46.5t-28 -32.5t-46 -30q25 -10 42 -20.5t28.5 -28.5t17 -32.5t8.5 -48t3.5 -56.5t0.5 -76q0 -127 -63.5 -177.5t-222.5 -50.5q-127 0 -191.5 31.5t-77.5 120.5q-4 29 -4 184z" />
<glyph unicode="&#xb4;" horiz-adv-x="555" d="M16 1247l179 258h342l-281 -258h-240z" />
<glyph unicode="&#xb5;" d="M86 -383v1473h324v-760q0 -16 0.5 -25.5t5.5 -27.5t14.5 -28.5t29 -19t46.5 -8.5q35 0 57.5 11.5t30.5 32.5t10 34t2 33v758h324v-1090h-324v119q-12 -29 -21 -47t-23.5 -40t-33.5 -33t-41 -11q-35 0 -77 28v-399h-324z" />
<glyph unicode="&#xb6;" horiz-adv-x="1366" d="M166 1008q0 178 106 299q43 47 92 77.5t100.5 42.5t86.5 15.5t80 3.5h512v-160h-74v-1628h-172v1628h-242v-1628h-172v940q-43 12 -69.5 21t-73 39t-82.5 73q-92 106 -92 277z" />
<glyph unicode="&#xb7;" horiz-adv-x="512" d="M104 573v312h304v-312h-304z" />
<glyph unicode="&#xb8;" horiz-adv-x="555" d="M70 -168l184 209h178l-135 -158q21 -3 29 -4t32 -7t36.5 -12t32.5 -18.5t30 -27.5t18 -38.5t8 -51.5q0 -33 -15 -66t-46.5 -65t-90.5 -52t-136 -20q-12 0 -34.5 1t-33.5 1l-35 98q40 -4 62 -4q61 0 89.5 29.5t28.5 64.5q0 72 -86 72q-32 0 -84 -25z" />
<glyph unicode="&#xb9;" horiz-adv-x="681" d="M129 1126v193q65 11 104.5 39t63.5 86h168v-903h-201v647q-42 -27 -63.5 -37t-71.5 -25z" />
<glyph unicode="&#xba;" horiz-adv-x="681" d="M66 1145q0 73 1 101.5t7.5 64t21.5 57.5q61 88 234 88q195 0 256 -92q15 -21 20.5 -44.5t8.5 -94t3 -234.5q0 -24 -0.5 -37t-2.5 -38t-6.5 -39.5t-14 -36t-22.5 -35t-34 -29t-47 -23.5t-62.5 -14t-80.5 -6q-107 0 -164.5 28t-79.5 62q-28 36 -33 88t-5 234zM274 969 q0 -18 1.5 -28.5t7 -25.5t20.5 -22.5t39 -7.5t39 6t20.5 20.5t7 25.5t1.5 32v264q0 18 -1.5 28t-7 24.5t-20.5 21t-39 6.5q-38 0 -53 -19t-15 -61v-264z" />
<glyph unicode="&#xbb;" horiz-adv-x="811" d="M86 285v262l117 96l-117 107v258l289 -240v-244zM455 289v256l116 96l-116 104v263l290 -240v-242z" />
<glyph unicode="&#xbc;" horiz-adv-x="1622" d="M129 1124v195q65 11 104.5 39t63.5 86h168v-905h-201v649q-42 -29 -63.5 -39t-71.5 -25zM487 0l492 1446h149l-493 -1446h-148zM981 188v174l254 541h252v-541h92v-174h-92v-188h-195v188h-311zM1130 362h162v345z" />
<glyph unicode="&#xbd;" horiz-adv-x="1622" d="M129 1124v195q65 11 104.5 39t63.5 86h168v-903h-201v647q-42 -29 -63.5 -39t-71.5 -25zM438 0l494 1446h149l-493 -1446h-150zM997 -2v67.5t3 57t6 49.5t12.5 43.5t19.5 42.5t29.5 41.5t39.5 45.5t53 50.5t67 60t84 70.5q29 25 37 44.5t8 78.5q0 20 -0.5 31t-4.5 28 t-11.5 26t-22.5 16.5t-37 7.5q-23 0 -39 -6.5t-24 -14.5t-12 -22t-4.5 -22.5t-0.5 -22.5v-121h-203q0 126 2.5 167t14.5 72q15 39 45 66t68.5 40t73 18.5t69.5 5.5q99 0 166 -29q36 -15 61 -36.5t38 -41.5t19.5 -51t7.5 -51t1 -54q0 -48 -5 -81.5t-10.5 -55.5t-25 -45.5 t-34 -37.5t-50.5 -46q-62 -57 -85 -78.5t-55 -59t-51 -73.5h312v-180h-562z" />
<glyph unicode="&#xbe;" horiz-adv-x="1622" d="M53 864h203v-76q0 -20 0.5 -31t4.5 -27t11.5 -24.5t22.5 -15t37 -6.5q54 0 65 29t11 143q0 55 -28.5 65.5t-156.5 8.5v166q122 -3 153.5 6.5t31.5 62.5q0 97 -12.5 117.5t-76.5 20.5q-45 0 -54 -24.5t-9 -119.5h-203q0 102 1 125.5t7 46.5q40 127 252 127q75 0 129.5 -11 t85.5 -28.5t49 -45.5t23.5 -55.5t5.5 -64.5q0 -50 -1 -72.5t-5 -53.5t-14 -46.5t-28 -32.5t-46 -30q25 -10 42 -20.5t28.5 -28.5t17 -32.5t8.5 -48t3.5 -56.5t0.5 -76q0 -127 -63.5 -177.5t-222.5 -50.5q-127 0 -191.5 31.5t-77.5 120.5q-4 29 -4 184zM524 0l492 1446h149 l-493 -1446h-148zM981 188v174l254 541h252v-541h92v-174h-92v-188h-195v188h-311zM1130 362h162v347z" />
<glyph unicode="&#xbf;" d="M80 328q0 35 1 54.5t11 45t19.5 40.5t40 47.5t58.5 58.5t87 81q95 87 112 115t17 96v115h301v-102q0 -88 -20 -143t-97 -128l-153 -147q-31 -30 -43.5 -45t-20.5 -41t-8 -66q0 -108 86 -108q26 0 44 8t27 18.5t13.5 30t5 31.5t0.5 35v98h293v-111q0 -34 -1 -56t-4.5 -53 t-10.5 -52t-20 -47t-31.5 -43t-46.5 -34.5t-64 -27.5t-84.5 -16.5t-106.5 -6.5q-80 0 -143 10t-105 26t-72 43.5t-46.5 54t-25.5 67t-11 72.5t-2 80zM426 1137v309h303v-309h-303z" />
<glyph unicode="&#xc0;" horiz-adv-x="1067" d="M8 0l293 1446h467l293 -1446h-342l-49 330h-269l-51 -330h-342zM160 1860h332l198 -291h-223zM440 573h195l-96 644z" />
<glyph unicode="&#xc1;" horiz-adv-x="1067" d="M8 0l293 1446h467l293 -1446h-342l-49 330h-269l-51 -330h-342zM397 1573l191 291h334l-308 -291h-217zM440 573h195l-96 644z" />
<glyph unicode="&#xc2;" horiz-adv-x="1067" d="M8 0l293 1446h467l293 -1446h-342l-49 330h-269l-51 -330h-342zM166 1567l196 291h343l217 -291h-267l-123 170l-118 -170h-248zM440 573h195l-96 644z" />
<glyph unicode="&#xc3;" horiz-adv-x="1067" d="M8 0l293 1446h467l293 -1446h-342l-49 330h-269l-51 -330h-342zM195 1599q2 25 4 41t8.5 44.5t15.5 48t25.5 43t37.5 37.5t53 24t71 10q34 0 60 -6.5t116 -38.5q73 -26 100 -26q23 0 39 6.5t23.5 19t10.5 20t5 19.5h102q-3 -32 -7.5 -56t-19 -63.5t-35.5 -65.5t-61 -45.5 t-92 -19.5q-43 0 -79.5 10t-116.5 41q-64 25 -88 25q-29 0 -45.5 -12t-20 -24.5t-4.5 -31.5h-102zM440 573h195l-96 644z" />
<glyph unicode="&#xc4;" horiz-adv-x="1067" d="M8 0l293 1446h467l293 -1446h-342l-49 330h-269l-51 -330h-342zM197 1610v231h276v-231h-276zM440 573h195l-96 644zM590 1610v231h276v-231h-276z" />
<glyph unicode="&#xc5;" horiz-adv-x="1067" d="M8 0l293 1446h467l293 -1446h-342l-49 330h-269l-51 -330h-342zM328 1696q0 83 59.5 142.5t142.5 59.5t143 -59.5t60 -142.5q0 -81 -59.5 -142t-145.5 -61q-74 0 -141 59q-59 59 -59 144zM440 573h195l-96 644zM455 1696q0 -31 22 -53.5t53 -22.5t53.5 22.5t22.5 53.5 t-22.5 53.5t-53.5 22.5t-53 -22.5t-22 -53.5z" />
<glyph unicode="&#xc6;" horiz-adv-x="1579" d="M4 0l559 1446h969v-260h-385v-322h358v-258h-358v-348h385v-258h-733v391h-299l-133 -391h-363zM586 637h213v549h-25z" />
<glyph unicode="&#xc7;" horiz-adv-x="1067" d="M82 354v713q0 86 15 148.5t57 115.5q116 142 393 142q229 0 346 -97q37 -30 61 -67t34 -79t13 -73.5t3 -73.5v-172h-345v181q0 69 -22.5 99t-97.5 30q-67 0 -88 -34t-21 -97v-719q0 -77 22 -110.5t95 -33.5q33 0 55 9t33 20t17 34t6.5 37.5t0.5 43.5v180h353v-129 q0 -80 -7 -136t-30 -113t-63.5 -93t-110.5 -61.5t-168 -32.5l-88 -103q25 -3 42 -5.5t47 -13t48.5 -26t33.5 -45t15 -69.5q0 -33 -15 -66t-46.5 -65t-90.5 -52t-137 -20q-11 0 -33 1t-34 1l-37 98q40 -4 63 -4q61 0 90 29.5t29 64.5q0 72 -88 72q-34 0 -82 -25l-35 74 l136 152q-93 8 -158.5 26.5t-120.5 69.5q-54 49 -72 112t-18 162z" />
<glyph unicode="&#xc8;" horiz-adv-x="894" d="M96 1860h332l199 -291h-224zM104 0v1448h748v-256h-397v-332h374v-256h-374v-348h397v-256h-748z" />
<glyph unicode="&#xc9;" horiz-adv-x="894" d="M104 0v1448h748v-256h-397v-332h374v-256h-374v-348h397v-256h-748zM334 1573l190 291h334l-307 -291h-217z" />
<glyph unicode="&#xca;" horiz-adv-x="894" d="M102 1567l197 291h342l217 -291h-266l-123 170l-119 -170h-248zM104 0v1448h748v-256h-397v-332h374v-256h-374v-348h397v-256h-748z" />
<glyph unicode="&#xcb;" horiz-adv-x="894" d="M104 0v1448h748v-256h-397v-332h374v-256h-374v-348h397v-256h-748zM133 1606v231h277v-231h-277zM526 1606v231h277v-231h-277z" />
<glyph unicode="&#xcc;" horiz-adv-x="555" d="M-96 1860h332l198 -291h-223zM100 0v1446h351v-1446h-351z" />
<glyph unicode="&#xcd;" horiz-adv-x="555" d="M100 0v1446h351v-1446h-351zM141 1573l191 291h334l-308 -291h-217z" />
<glyph unicode="&#xce;" horiz-adv-x="555" d="M-90 1567l196 291h343l217 -291h-267l-123 170l-118 -170h-248zM100 0v1446h351v-1446h-351z" />
<glyph unicode="&#xcf;" horiz-adv-x="555" d="M-59 1606v231h276v-231h-276zM100 0v1446h351v-1446h-351zM334 1606v231h276v-231h-276z" />
<glyph unicode="&#xd0;" horiz-adv-x="1110" d="M4 682v209h100v557h527q171 0 254 -49q35 -19 61 -44t41 -54.5t24.5 -55t13 -59t4.5 -51.5t1 -48v-722q0 -46 -1 -70.5t-7 -65.5t-21 -73t-40 -60q-52 -59 -130 -77.5t-186 -18.5h-541v682h-100zM442 250h109q73 0 101 25.5t28 97.5v692q0 71 -29 101t-102 30h-107v-305 h131v-209h-131v-432z" />
<glyph unicode="&#xd1;" horiz-adv-x="1150" d="M100 0v1446h346l304 -938v938h299v-1446h-353l-301 942v-942h-295zM238 1599q2 25 4 41t8.5 44.5t15.5 48t25.5 43t37.5 37.5t53 24t71 10q34 0 60 -6.5t116 -38.5q73 -26 100 -26q23 0 39 6.5t23.5 19t10.5 20t5 19.5h102q-3 -32 -7.5 -56t-19 -63.5t-35.5 -65.5 t-61 -45.5t-92 -19.5q-44 0 -80 10t-116 41q-64 25 -88 25q-29 0 -45.5 -12t-20 -24.5t-4.5 -31.5h-102z" />
<glyph unicode="&#xd2;" horiz-adv-x="1110" d="M82 440v598q0 101 21 178t81 140q39 41 88.5 67t105.5 36t93.5 13t89.5 3q95 0 170.5 -19t123 -45.5t81.5 -71.5t50 -81t25 -91.5t10 -84t1 -76.5v-553q0 -46 -1 -73t-6.5 -72t-16 -77.5t-32 -70.5t-51.5 -68q-36 -37 -83 -61t-100.5 -33.5t-92 -12.5t-88.5 -3 q-75 0 -137.5 10.5t-107.5 27.5t-81 44t-59 53t-40 63.5t-25 66t-12.5 68.5t-5.5 64.5t-1 60.5zM182 1860h332l199 -291h-224zM432 358q0 -26 1 -39t7 -32t18 -28t36 -16t59 -7q68 0 94.5 28.5t26.5 93.5v740q0 69 -27.5 94t-99.5 25q-64 0 -89.5 -26t-25.5 -91v-742z" />
<glyph unicode="&#xd3;" horiz-adv-x="1110" d="M82 440v598q0 101 21 178t81 140q39 41 88.5 67t105.5 36t93.5 13t89.5 3q95 0 170.5 -19t123 -45.5t81.5 -71.5t50 -81t25 -91.5t10 -84t1 -76.5v-553q0 -46 -1 -73t-6.5 -72t-16 -77.5t-32 -70.5t-51.5 -68q-36 -37 -83 -61t-100.5 -33.5t-92 -12.5t-88.5 -3 q-75 0 -137.5 10.5t-107.5 27.5t-81 44t-59 53t-40 63.5t-25 66t-12.5 68.5t-5.5 64.5t-1 60.5zM420 1573l190 291h334l-307 -291h-217zM432 358q0 -26 1 -39t7 -32t18 -28t36 -16t59 -7q68 0 94.5 28.5t26.5 93.5v740q0 69 -27.5 94t-99.5 25q-64 0 -89.5 -26t-25.5 -91 v-742z" />
<glyph unicode="&#xd4;" horiz-adv-x="1110" d="M82 440v598q0 101 21 178t81 140q39 41 88.5 67t105.5 36t93.5 13t89.5 3q95 0 170.5 -19t123 -45.5t81.5 -71.5t50 -81t25 -91.5t10 -84t1 -76.5v-553q0 -46 -1 -73t-6.5 -72t-16 -77.5t-32 -70.5t-51.5 -68q-36 -37 -83 -61t-100.5 -33.5t-92 -12.5t-88.5 -3 q-75 0 -137.5 10.5t-107.5 27.5t-81 44t-59 53t-40 63.5t-25 66t-12.5 68.5t-5.5 64.5t-1 60.5zM188 1567l197 291h342l217 -291h-266l-123 170l-119 -170h-248zM432 358q0 -26 1 -39t7 -32t18 -28t36 -16t59 -7q68 0 94.5 28.5t26.5 93.5v740q0 69 -27.5 94t-99.5 25 q-64 0 -89.5 -26t-25.5 -91v-742z" />
<glyph unicode="&#xd5;" horiz-adv-x="1110" d="M82 440v598q0 101 21 178t81 140q39 41 88.5 67t105.5 36t93.5 13t89.5 3q95 0 170.5 -19t123 -45.5t81.5 -71.5t50 -81t25 -91.5t10 -84t1 -76.5v-553q0 -46 -1 -73t-6.5 -72t-16 -77.5t-32 -70.5t-51.5 -68q-36 -37 -83 -61t-100.5 -33.5t-92 -12.5t-88.5 -3 q-75 0 -137.5 10.5t-107.5 27.5t-81 44t-59 53t-40 63.5t-25 66t-12.5 68.5t-5.5 64.5t-1 60.5zM217 1599q2 25 4 41t8.5 44.5t15.5 48t25.5 43t37.5 37.5t53 24t71 10q34 0 60 -6.5t116 -38.5q73 -26 101 -26q23 0 39 6.5t23.5 19.5t9.5 19.5t5 19.5h103q-3 -32 -7.5 -56 t-19 -63.5t-35.5 -65.5t-61 -45.5t-92 -19.5q-44 0 -80.5 10t-116.5 41q-64 25 -88 25q-29 0 -45.5 -12t-20 -24.5t-4.5 -31.5h-102zM432 358q0 -26 1 -39t7 -32t18 -28t36 -16t59 -7q68 0 94.5 28.5t26.5 93.5v740q0 69 -27.5 94t-99.5 25q-64 0 -89.5 -26t-25.5 -91v-742z " />
<glyph unicode="&#xd6;" horiz-adv-x="1110" d="M82 440v598q0 101 21 178t81 140q39 41 88.5 67t105.5 36t93.5 13t89.5 3q95 0 170.5 -19t123 -45.5t81.5 -71.5t50 -81t25 -91.5t10 -84t1 -76.5v-553q0 -46 -1 -73t-6.5 -72t-16 -77.5t-32 -70.5t-51.5 -68q-36 -37 -83 -61t-100.5 -33.5t-92 -12.5t-88.5 -3 q-75 0 -137.5 10.5t-107.5 27.5t-81 44t-59 53t-40 63.5t-25 66t-12.5 68.5t-5.5 64.5t-1 60.5zM217 1614v231h277v-231h-277zM432 358q0 -26 1 -39t7 -32t18 -28t36 -16t59 -7q68 0 94.5 28.5t26.5 93.5v740q0 69 -27.5 94t-99.5 25q-64 0 -89.5 -26t-25.5 -91v-742z M610 1614v231h277v-231h-277z" />
<glyph unicode="&#xd7;" d="M74 344l254 252l-254 256l184 182l254 -254l254 254l184 -182l-254 -256l254 -252l-184 -186l-254 252l-254 -252z" />
<glyph unicode="&#xd8;" horiz-adv-x="1110" d="M10 39l107 162q-23 59 -30 102t-7 135v596q0 101 21 178t81 142q39 41 88.5 67t105.5 36t94 13t89 3q77 0 137.5 -10t101 -29t60.5 -32.5t45 -35.5l80 113l109 -72l-109 -160q20 -50 28.5 -97.5t8.5 -148.5v-550q0 -46 -1 -72.5t-6.5 -72t-16 -78t-32 -71t-51.5 -69.5 q-37 -37 -84 -61t-100 -34t-92 -13t-88 -3q-79 0 -138.5 8.5t-101.5 27.5t-61.5 31.5t-50.5 37.5l-80 -115zM418 362.5q0 -15.5 1.5 -41t5 -36.5t9 -27t14.5 -22.5t22 -14t30.5 -10t40.5 -2.5q33 0 52 2t38.5 8.5t29 20.5t15.5 38t6 60v461l-264 -387v-49.5zM418 649 l264 389q0 35 -0.5 50.5t-2.5 39.5t-7 33.5t-13.5 22.5t-22 18t-33 8.5t-46.5 3.5q-45 0 -74 -8.5t-42.5 -25.5t-18 -35t-4.5 -45v-451z" />
<glyph unicode="&#xd9;" horiz-adv-x="1110" d="M98 395v1051h351v-1090q0 -20 0.5 -31.5t6 -32.5t16 -33t32.5 -22t53 -10q29 0 49.5 9t30.5 20t15.5 31t6 31.5t0.5 31.5v1096h351v-1040q0 -39 -0.5 -62.5t-5 -63t-12 -65.5t-23 -61t-37 -57.5t-55 -47.5t-76 -39t-101 -23.5t-129.5 -9.5q-98 0 -175 15.5t-126 37 t-83.5 60.5t-51.5 69t-26 80.5t-10 78t-1 77.5zM182 1860h332l199 -291h-224z" />
<glyph unicode="&#xda;" horiz-adv-x="1110" d="M98 395v1051h351v-1090q0 -20 0.5 -31.5t6 -32.5t16 -33t32.5 -22t53 -10q29 0 49.5 9t30.5 20t15.5 31t6 31.5t0.5 31.5v1096h351v-1040q0 -39 -0.5 -62.5t-5 -63t-12 -65.5t-23 -61t-37 -57.5t-55 -47.5t-76 -39t-101 -23.5t-129.5 -9.5q-98 0 -175 15.5t-126 37 t-83.5 60.5t-51.5 69t-26 80.5t-10 78t-1 77.5zM420 1573l190 291h334l-307 -291h-217z" />
<glyph unicode="&#xdb;" horiz-adv-x="1110" d="M98 395v1051h351v-1090q0 -20 0.5 -31.5t6 -32.5t16 -33t32.5 -22t53 -10q29 0 49.5 9t30.5 20t15.5 31t6 31.5t0.5 31.5v1096h351v-1040q0 -39 -0.5 -62.5t-5 -63t-12 -65.5t-23 -61t-37 -57.5t-55 -47.5t-76 -39t-101 -23.5t-129.5 -9.5q-98 0 -175 15.5t-126 37 t-83.5 60.5t-51.5 69t-26 80.5t-10 78t-1 77.5zM188 1567l197 291h342l217 -291h-266l-123 170l-119 -170h-248z" />
<glyph unicode="&#xdc;" horiz-adv-x="1110" d="M98 395v1051h351v-1090q0 -20 0.5 -31.5t6 -32.5t16 -33t32.5 -22t53 -10q29 0 49.5 9t30.5 20t15.5 31t6 31.5t0.5 31.5v1096h351v-1040q0 -39 -0.5 -62.5t-5 -63t-12 -65.5t-23 -61t-37 -57.5t-55 -47.5t-76 -39t-101 -23.5t-129.5 -9.5q-98 0 -175 15.5t-126 37 t-83.5 60.5t-51.5 69t-26 80.5t-10 78t-1 77.5zM217 1608v231h277v-231h-277zM610 1608v231h277v-231h-277z" />
<glyph unicode="&#xdd;" horiz-adv-x="1067" d="M8 1446h346l176 -639l177 639h348l-361 -936v-510h-340v510zM397 1573l191 291h334l-308 -291h-217z" />
<glyph unicode="&#xde;" horiz-adv-x="1067" d="M102 0v1448h351v-242h233q188 0 264 -67t76 -228v-297q0 -102 -20 -167.5t-63.5 -100t-98.5 -47t-139 -12.5h-252v-287h-351zM453 541h116q20 0 35 1t28 5t22 7t16 13t11.5 16t8 23t5 27.5t2.5 36t1 41.5v51v49t-1 38.5t-2.5 32.5t-5 24.5t-8 20t-12.5 13t-16.5 10 t-22.5 4.5t-29 3.5t-36 0.5h-112v-417z" />
<glyph unicode="&#xdf;" horiz-adv-x="1067" d="M92 0v1112q0 28 0.5 44.5t4.5 49t11 53.5t21.5 51.5t35 50.5t53 42.5t73 35.5t98 22t125.5 9q71 0 130.5 -9.5t102.5 -23.5t76.5 -37.5t55 -45t37 -53.5t22.5 -54.5t11 -57t4.5 -52t0.5 -47.5q0 -146 -22.5 -199.5t-112.5 -91.5q51 -18 81 -38t50.5 -45.5t29.5 -72 t12 -98.5t3 -146q0 -154 -8.5 -211.5t-46.5 -101.5q-73 -86 -260 -86q-75 0 -178 14v158q46 -12 69 -12q26 0 45 8t28 18t14 27.5t5.5 28t0.5 26.5v346q0 37 -9.5 59.5t-32.5 32t-47.5 11.5t-68.5 0v196q7 0 21.5 -1t21.5 -1q25 0 42 7t25.5 15.5t13 24t5 24t0.5 22.5v124 q0 19 -1 31t-6.5 32.5t-16.5 32.5t-34 21.5t-55 9.5q-37 0 -61 -11.5t-33 -34.5t-11.5 -39.5t-2.5 -43.5v-1126h-322z" />
<glyph unicode="&#xe0;" d="M63 252q0 54 7 98t16.5 75.5t30 58.5t37.5 43t49.5 34t54.5 27.5t64 25.5q117 43 158.5 60.5t115.5 52.5q0 99 -6 117q-20 53 -90 53q-27 0 -45 -8.5t-27.5 -19t-14 -36.5t-5 -45t-0.5 -61h-314q-3 29 -0.5 60.5t4 64.5t13.5 65.5t28.5 62t47.5 55t71 44t100 29t134 10.5 q183 0 290 -55q40 -21 68 -51.5t41.5 -57t21 -63.5t8.5 -56.5t1 -50.5v-614q0 -73 9 -104t38 -66h-373v92q-47 -41 -74.5 -61.5t-82 -41t-115.5 -20.5q-54 0 -96.5 12.5t-69 30.5t-46 46.5t-28.5 51.5t-14.5 55t-6 48t-0.5 39zM190 1507h355l194 -260h-262zM399 303 q0 -26 0.5 -39t4.5 -32.5t12.5 -29t24.5 -17t40 -7.5q38 0 62.5 11t35 33.5t14 43.5t3.5 53v228q-18 -10 -52.5 -28.5t-58.5 -31.5t-32 -18q-34 -25 -44 -59t-10 -107z" />
<glyph unicode="&#xe1;" d="M63 252q0 54 7 98t16.5 75.5t30 58.5t37.5 43t49.5 34t54.5 27.5t64 25.5q117 43 158.5 60.5t115.5 52.5q0 99 -6 117q-20 53 -90 53q-27 0 -45 -8.5t-27.5 -19t-14 -36.5t-5 -45t-0.5 -61h-314q-3 29 -0.5 60.5t4 64.5t13.5 65.5t28.5 62t47.5 55t71 44t100 29t134 10.5 q183 0 290 -55q40 -21 68 -51.5t41.5 -57t21 -63.5t8.5 -56.5t1 -50.5v-614q0 -73 9 -104t38 -66h-373v92q-47 -41 -74.5 -61.5t-82 -41t-115.5 -20.5q-54 0 -96.5 12.5t-69 30.5t-46 46.5t-28.5 51.5t-14.5 55t-6 48t-0.5 39zM309 1247l179 258h342l-281 -258h-240z M399 303q0 -26 0.5 -39t4.5 -32.5t12.5 -29t24.5 -17t40 -7.5q38 0 62.5 11t35 33.5t14 43.5t3.5 53v228q-18 -10 -52.5 -28.5t-58.5 -31.5t-32 -18q-34 -25 -44 -59t-10 -107z" />
<glyph unicode="&#xe2;" d="M63 252q0 54 7 98t16.5 75.5t30 58.5t37.5 43t49.5 34t54.5 27.5t64 25.5q117 43 158.5 60.5t115.5 52.5q0 99 -6 117q-20 53 -90 53q-27 0 -45 -8.5t-27.5 -19t-14 -36.5t-5 -45t-0.5 -61h-314q-3 29 -0.5 60.5t4 64.5t13.5 65.5t28.5 62t47.5 55t71 44t100 29t134 10.5 q183 0 290 -55q40 -21 68 -51.5t41.5 -57t21 -63.5t8.5 -56.5t1 -50.5v-614q0 -73 9 -104t38 -66h-373v92q-47 -41 -74.5 -61.5t-82 -41t-115.5 -20.5q-54 0 -96.5 12.5t-69 30.5t-46 46.5t-28.5 51.5t-14.5 55t-6 48t-0.5 39zM180 1253l203 256h258l207 -256h-242l-92 121 l-88 -121h-246zM399 303q0 -26 0.5 -39t4.5 -32.5t12.5 -29t24.5 -17t40 -7.5q38 0 62.5 11t35 33.5t14 43.5t3.5 53v228q-18 -10 -52.5 -28.5t-58.5 -31.5t-32 -18q-34 -25 -44 -59t-10 -107z" />
<glyph unicode="&#xe3;" d="M63 252q0 54 7 98t16.5 75.5t30 58.5t37.5 43t49.5 34t54.5 27.5t64 25.5q117 43 158.5 60.5t115.5 52.5q0 99 -6 117q-20 53 -90 53q-27 0 -45 -8.5t-27.5 -19t-14 -36.5t-5 -45t-0.5 -61h-314q-3 29 -0.5 60.5t4 64.5t13.5 65.5t28.5 62t47.5 55t71 44t100 29t134 10.5 q183 0 290 -55q40 -21 68 -51.5t41.5 -57t21 -63.5t8.5 -56.5t1 -50.5v-614q0 -73 9 -104t38 -66h-373v92q-47 -41 -74.5 -61.5t-82 -41t-115.5 -20.5q-54 0 -96.5 12.5t-69 30.5t-46 46.5t-28.5 51.5t-14.5 55t-6 48t-0.5 39zM176 1272q2 25 4 41t8.5 44.5t15.5 48t25.5 43 t37.5 37.5t53 24t71 10q34 0 60 -6.5t116 -38.5q76 -27 101 -27q23 0 39 6.5t23.5 19.5t9.5 19.5t5 19.5h103q-3 -32 -7.5 -56t-19 -63.5t-35.5 -65t-61 -45t-92 -19.5q-44 0 -80.5 10t-116.5 41q-62 24 -88 24q-22 0 -36.5 -6t-21 -17.5t-8.5 -20.5t-3 -23h-103zM399 303 q0 -26 0.5 -39t4.5 -32.5t12.5 -29t24.5 -17t40 -7.5q38 0 62.5 11t35 33.5t14 43.5t3.5 53v228q-18 -10 -52.5 -28.5t-58.5 -31.5t-32 -18q-34 -25 -44 -59t-10 -107z" />
<glyph unicode="&#xe4;" d="M63 252q0 54 7 98t16.5 75.5t30 58.5t37.5 43t49.5 34t54.5 27.5t64 25.5q117 43 158.5 60.5t115.5 52.5q0 99 -6 117q-20 53 -90 53q-27 0 -45 -8.5t-27.5 -19t-14 -36.5t-5 -45t-0.5 -61h-314q-3 29 -0.5 60.5t4 64.5t13.5 65.5t28.5 62t47.5 55t71 44t100 29t134 10.5 q183 0 290 -55q40 -21 68 -51.5t41.5 -57t21 -63.5t8.5 -56.5t1 -50.5v-614q0 -73 9 -104t38 -66h-373v92q-47 -41 -74.5 -61.5t-82 -41t-115.5 -20.5q-54 0 -96.5 12.5t-69 30.5t-46 46.5t-28.5 51.5t-14.5 55t-6 48t-0.5 39zM158 1247v254h293v-254h-293zM399 303 q0 -26 0.5 -39t4.5 -32.5t12.5 -29t24.5 -17t40 -7.5q38 0 62.5 11t35 33.5t14 43.5t3.5 53v228q-18 -10 -52.5 -28.5t-58.5 -31.5t-32 -18q-34 -25 -44 -59t-10 -107zM612 1247v254h293v-254h-293z" />
<glyph unicode="&#xe5;" d="M63 252q0 54 7 98t16.5 75.5t30 58.5t37.5 43t49.5 34t54.5 27.5t64 25.5q117 43 158.5 60.5t115.5 52.5q0 99 -6 117q-20 53 -90 53q-27 0 -45 -8.5t-27.5 -19t-14 -36.5t-5 -45t-0.5 -61h-314q-3 29 -0.5 60.5t4 64.5t13.5 65.5t28.5 62t47.5 55t71 44t100 29t134 10.5 q183 0 290 -55q40 -21 68 -51.5t41.5 -57t21 -63.5t8.5 -56.5t1 -50.5v-614q0 -73 9 -104t38 -66h-373v92q-47 -41 -74.5 -61.5t-82 -41t-115.5 -20.5q-54 0 -96.5 12.5t-69 30.5t-46 46.5t-28.5 51.5t-14.5 55t-6 48t-0.5 39zM328 1362q0 84 59 143.5t143 59.5 q83 0 143 -60t60 -143q0 -81 -59.5 -142t-145.5 -61q-72 0 -141 60q-59 59 -59 143zM399 303q0 -26 0.5 -39t4.5 -32.5t12.5 -29t24.5 -17t40 -7.5q38 0 62.5 11t35 33.5t14 43.5t3.5 53v228q-18 -10 -52.5 -28.5t-58.5 -31.5t-32 -18q-34 -25 -44 -59t-10 -107zM455 1362 q0 -31 22 -53.5t53 -22.5t53.5 22.5t22.5 53.5t-22.5 53.5t-53.5 22.5t-53 -22.5t-22 -53.5z" />
<glyph unicode="&#xe6;" horiz-adv-x="1492" d="M66 289q0 53 7 90t28.5 79.5t69 79t122.5 68.5q13 6 130 54.5t165 70.5q0 109 -4 123q-13 51 -84 51q-41 0 -64 -18q-19 -17 -22.5 -39.5t-3.5 -118.5h-310q0 39 0.5 59t3.5 55t8.5 55t17 48.5t28 48t42 40t58.5 36.5q96 47 227 47q74 0 131 -14.5t80.5 -28.5t55.5 -39 q20 17 37 28t49.5 26.5t79.5 23.5t106 8q82 0 145.5 -16t104.5 -38t69.5 -62.5t42.5 -72t21.5 -85t8.5 -82.5t1 -82v-205h-508v-205q0 -44 18.5 -71t73.5 -27q53 0 76 25q13 17 16 40t3 117h321q2 -118 -8.5 -171t-50.5 -95q-56 -59 -152.5 -91t-206.5 -32q-76 0 -139 12.5 t-100 28.5t-70 41.5t-45.5 40.5t-28.5 37q-35 -42 -55.5 -63t-57 -48.5t-79.5 -39t-98 -11.5q-57 0 -101 12t-71.5 35.5t-45.5 51.5t-27 67.5t-12 74t-3 81.5zM395 330q0 -27 0.5 -41.5t5.5 -36.5t14.5 -33t28 -20t45.5 -9q48 0 73.5 23t25.5 82v250q-71 -37 -107 -59 t-56.5 -47.5t-25 -46.5t-4.5 -62zM909 676h187v137q0 18 -1.5 29.5t-9 29t-27 26.5t-50.5 9q-35 0 -56.5 -9t-30 -26t-10.5 -28.5t-2 -30.5v-137z" />
<glyph unicode="&#xe7;" horiz-adv-x="937" d="M76 305v449q0 29 0.5 45.5t4 49.5t10.5 54t21.5 52t34.5 51t52 43t72.5 36t97 22t123.5 9q209 0 319 -94q31 -26 50.5 -55.5t27 -66t9 -59.5t1.5 -65v-104h-321v123q0 102 -84 102q-95 0 -95 -102v-512q0 -103 97 -103q23 0 39.5 7.5t24.5 17t12.5 26t5 26t0.5 26.5v100 h321v-98q0 -26 -1 -42.5t-7.5 -50t-18.5 -57.5t-37.5 -54t-61 -50t-91.5 -36.5t-127 -21.5l-76 -90q26 -3 42.5 -5.5t47 -13t49 -26t33.5 -45.5t15 -69q0 -33 -15 -66t-46.5 -65t-90 -52t-135.5 -20q-11 0 -34 1t-34 1l-37 98q40 -4 64 -4q59 0 88 29.5t29 64.5q0 72 -86 72 q-34 0 -82 -25l-33 74l129 148q-61 8 -109 24t-80 35t-55 46.5t-35 51t-18.5 56.5t-8 56.5t-1.5 55.5z" />
<glyph unicode="&#xe8;" horiz-adv-x="980" d="M76 399v295q0 235 94 329.5t322 94.5q117 0 199 -26.5t122 -60t61 -93t24 -95t3 -97.5v-1v-274h-495v-178q0 -15 0.5 -24.5t5.5 -26.5t13.5 -27t26.5 -18.5t44 -8.5q58 0 86 33q13 18 15.5 38.5t2.5 100.5h313q0 -66 -2 -99t-13.5 -77.5t-35.5 -77.5q-96 -137 -370 -137 q-90 0 -182.5 24.5t-151.5 86.5q-47 50 -64.5 120.5t-17.5 198.5zM145 1507h355l194 -260h-262zM406 678h188v113q0 18 -0.5 28.5t-5.5 30t-13.5 30.5t-26.5 20t-44 9q-28 0 -47.5 -9.5t-29 -21t-15 -30.5t-6 -29.5t-0.5 -27.5v-113z" />
<glyph unicode="&#xe9;" horiz-adv-x="980" d="M76 399v295q0 235 94 329.5t322 94.5q117 0 199 -26.5t122 -60t61 -93t24 -95t3 -97.5v-1v-274h-495v-178q0 -15 0.5 -24.5t5.5 -26.5t13.5 -27t26.5 -18.5t44 -8.5q58 0 86 33q13 18 15.5 38.5t2.5 100.5h313q0 -66 -2 -99t-13.5 -77.5t-35.5 -77.5q-96 -137 -370 -137 q-90 0 -182.5 24.5t-151.5 86.5q-47 50 -64.5 120.5t-17.5 198.5zM307 1247l179 258h342l-281 -258h-240zM406 678h188v113q0 18 -0.5 28.5t-5.5 30t-13.5 30.5t-26.5 20t-44 9q-28 0 -47.5 -9.5t-29 -21t-15 -30.5t-6 -29.5t-0.5 -27.5v-113z" />
<glyph unicode="&#xea;" horiz-adv-x="980" d="M76 399v295q0 235 94 329.5t322 94.5q117 0 199 -26.5t122 -60t61 -93t24 -95t3 -97.5v-1v-274h-495v-178q0 -15 0.5 -24.5t5.5 -26.5t13.5 -27t26.5 -18.5t44 -8.5q58 0 86 33q13 18 15.5 38.5t2.5 100.5h313q0 -66 -2 -99t-13.5 -77.5t-35.5 -77.5q-96 -137 -370 -137 q-90 0 -182.5 24.5t-151.5 86.5q-47 50 -64.5 120.5t-17.5 198.5zM156 1253l202 256h258l207 -256h-241l-93 121l-88 -121h-245zM406 678h188v113q0 18 -0.5 28.5t-5.5 30t-13.5 30.5t-26.5 20t-44 9q-28 0 -47.5 -9.5t-29 -21t-15 -30.5t-6 -29.5t-0.5 -27.5v-113z" />
<glyph unicode="&#xeb;" horiz-adv-x="980" d="M76 399v295q0 235 94 329.5t322 94.5q117 0 199 -26.5t122 -60t61 -93t24 -95t3 -97.5v-1v-274h-495v-178q0 -15 0.5 -24.5t5.5 -26.5t13.5 -27t26.5 -18.5t44 -8.5q58 0 86 33q13 18 15.5 38.5t2.5 100.5h313q0 -66 -2 -99t-13.5 -77.5t-35.5 -77.5q-96 -137 -370 -137 q-90 0 -182.5 24.5t-151.5 86.5q-47 50 -64.5 120.5t-17.5 198.5zM113 1247v254h293v-254h-293zM406 678h188v113q0 18 -0.5 28.5t-5.5 30t-13.5 30.5t-26.5 20t-44 9q-28 0 -47.5 -9.5t-29 -21t-15 -30.5t-6 -29.5t-0.5 -27.5v-113zM567 1247v254h293v-254h-293z" />
<glyph unicode="&#xec;" horiz-adv-x="512" d="M-68 1507h355l194 -260h-262zM92 0v1087h326v-1087h-326z" />
<glyph unicode="&#xed;" horiz-adv-x="512" d="M51 1247l179 258h342l-281 -258h-240zM92 0v1087h326v-1087h-326z" />
<glyph unicode="&#xee;" horiz-adv-x="512" d="M-78 1253l203 256h258l207 -256h-242l-92 121l-88 -121h-246zM92 0v1087h326v-1087h-326z" />
<glyph unicode="&#xef;" horiz-adv-x="512" d="M-121 1247v254h293v-254h-293zM92 0v1087h326v-1087h-326zM333 1247v254h293v-254h-293z" />
<glyph unicode="&#xf0;" horiz-adv-x="980" d="M74 356v375q0 62 2 96t16 85t41 89q80 115 227 115q81 0 125.5 -31.5t87.5 -95.5q-8 41 -14.5 65.5t-27.5 71t-52 91.5l-250 -66l-43 115l205 53q-36 36 -119 96l301 80q51 -32 115 -96l137 39l47 -109l-104 -29q137 -165 137 -544v-414q0 -28 -0.5 -44.5t-4 -50.5 t-10.5 -56t-21 -54t-34 -53.5t-52 -45.5t-72 -38t-96 -23.5t-123 -9.5q-196 0 -304 82q-74 53 -94 122.5t-20 184.5zM395 305q0 -21 2 -34t9.5 -32.5t28.5 -29.5t54 -10q95 0 95 123v448q0 19 -0.5 31t-6 31.5t-14.5 31t-28 20.5t-46 9q-33 0 -54 -13.5t-28.5 -38 t-9.5 -39.5t-2 -38v-459z" />
<glyph unicode="&#xf1;" d="M92 0v1087h328v-102q20 25 36 41t47.5 40t72.5 37t88 13q144 0 217 -106q24 -34 36.5 -75.5t14.5 -71t2 -77.5v-786h-322v774q0 119 -94 119q-98 0 -98 -113v-780h-328zM176 1272q2 25 4 41t8.5 44.5t15.5 48t25.5 43t37.5 37.5t53 24t71 10q34 0 60 -6.5t116 -38.5 q76 -27 100 -27q23 0 39 6.5t23.5 19t10.5 20t5 19.5h102q-3 -32 -7.5 -56t-19 -63.5t-35.5 -65t-61 -45t-92 -19.5q-44 0 -80 10t-116 41q-62 24 -88 24q-22 0 -37 -6t-21.5 -17.5t-8.5 -20.5t-3 -23h-102z" />
<glyph unicode="&#xf2;" horiz-adv-x="980" d="M74 356v375q0 32 0.5 50t4 53.5t10.5 58t21 55t34 53.5t52 45t72 37.5t96 23t123 9.5q68 0 124.5 -9t97 -23t72.5 -37t52.5 -44t35 -51.5t21.5 -52t10.5 -53.5t4 -48t0.5 -42v-414q0 -28 -0.5 -44.5t-4 -50.5t-10.5 -56t-21 -54t-34 -53.5t-52 -45.5t-72 -38t-96 -23.5 t-123 -9.5q-193 0 -304 82q-74 53 -94 122.5t-20 184.5zM166 1507h354l195 -260h-262zM395 305q0 -21 2 -34t9.5 -32.5t28.5 -29.5t54 -10q95 0 95 123v448q0 19 -0.5 31t-6 31.5t-14.5 31t-28 20.5t-46 9q-33 0 -54 -13.5t-28.5 -38t-9.5 -39.5t-2 -38v-459z" />
<glyph unicode="&#xf3;" horiz-adv-x="980" d="M74 356v375q0 32 0.5 50t4 53.5t10.5 58t21 55t34 53.5t52 45t72 37.5t96 23t123 9.5q68 0 124.5 -9t97 -23t72.5 -37t52.5 -44t35 -51.5t21.5 -52t10.5 -53.5t4 -48t0.5 -42v-414q0 -28 -0.5 -44.5t-4 -50.5t-10.5 -56t-21 -54t-34 -53.5t-52 -45.5t-72 -38t-96 -23.5 t-123 -9.5q-193 0 -304 82q-74 53 -94 122.5t-20 184.5zM284 1247l179 258h342l-281 -258h-240zM395 305q0 -21 2 -34t9.5 -32.5t28.5 -29.5t54 -10q95 0 95 123v448q0 19 -0.5 31t-6 31.5t-14.5 31t-28 20.5t-46 9q-33 0 -54 -13.5t-28.5 -38t-9.5 -39.5t-2 -38v-459z" />
<glyph unicode="&#xf4;" horiz-adv-x="980" d="M74 356v375q0 32 0.5 50t4 53.5t10.5 58t21 55t34 53.5t52 45t72 37.5t96 23t123 9.5q68 0 124.5 -9t97 -23t72.5 -37t52.5 -44t35 -51.5t21.5 -52t10.5 -53.5t4 -48t0.5 -42v-414q0 -28 -0.5 -44.5t-4 -50.5t-10.5 -56t-21 -54t-34 -53.5t-52 -45.5t-72 -38t-96 -23.5 t-123 -9.5q-193 0 -304 82q-74 53 -94 122.5t-20 184.5zM156 1253l202 256h258l207 -256h-241l-93 121l-88 -121h-245zM395 305q0 -21 2 -34t9.5 -32.5t28.5 -29.5t54 -10q95 0 95 123v448q0 19 -0.5 31t-6 31.5t-14.5 31t-28 20.5t-46 9q-33 0 -54 -13.5t-28.5 -38 t-9.5 -39.5t-2 -38v-459z" />
<glyph unicode="&#xf5;" horiz-adv-x="980" d="M74 356v375q0 32 0.5 50t4 53.5t10.5 58t21 55t34 53.5t52 45t72 37.5t96 23t123 9.5q68 0 124.5 -9t97 -23t72.5 -37t52.5 -44t35 -51.5t21.5 -52t10.5 -53.5t4 -48t0.5 -42v-414q0 -28 -0.5 -44.5t-4 -50.5t-10.5 -56t-21 -54t-34 -53.5t-52 -45.5t-72 -38t-96 -23.5 t-123 -9.5q-193 0 -304 82q-74 53 -94 122.5t-20 184.5zM152 1272q2 25 4 41t8.5 44.5t15.5 48t25.5 43t37.5 37.5t53 24t71 10q34 0 60 -6.5t116 -38.5q76 -27 100 -27q23 0 39 6.5t23.5 19t10.5 20t5 19.5h102q-3 -32 -7.5 -56t-19 -63.5t-35.5 -65t-61 -45t-92 -19.5 q-44 0 -80 10t-116 41q-62 24 -88 24q-22 0 -37 -6t-21.5 -17.5t-8.5 -20.5t-3 -23h-102zM395 305q0 -21 2 -34t9.5 -32.5t28.5 -29.5t54 -10q95 0 95 123v448q0 19 -0.5 31t-6 31.5t-14.5 31t-28 20.5t-46 9q-33 0 -54 -13.5t-28.5 -38t-9.5 -39.5t-2 -38v-459z" />
<glyph unicode="&#xf6;" horiz-adv-x="980" d="M74 356v375q0 32 0.5 50t4 53.5t10.5 58t21 55t34 53.5t52 45t72 37.5t96 23t123 9.5q68 0 124.5 -9t97 -23t72.5 -37t52.5 -44t35 -51.5t21.5 -52t10.5 -53.5t4 -48t0.5 -42v-414q0 -28 -0.5 -44.5t-4 -50.5t-10.5 -56t-21 -54t-34 -53.5t-52 -45.5t-72 -38t-96 -23.5 t-123 -9.5q-193 0 -304 82q-74 53 -94 122.5t-20 184.5zM115 1253v254h293v-254h-293zM395 305q0 -21 2 -34t9.5 -32.5t28.5 -29.5t54 -10q95 0 95 123v448q0 19 -0.5 31t-6 31.5t-14.5 31t-28 20.5t-46 9q-33 0 -54 -13.5t-28.5 -38t-9.5 -39.5t-2 -38v-459zM569 1253v254 h293v-254h-293z" />
<glyph unicode="&#xf7;" d="M2 465v260h1022v-260h-1022zM348 225q0 69 47.5 118.5t118.5 49.5q69 0 116.5 -50.5t47.5 -119.5q0 -61 -46.5 -110.5t-119.5 -49.5q-66 0 -115 46.5t-49 115.5zM348 958q0 71 49.5 119.5t114.5 48.5q70 0 118 -49t48 -119t-50 -115.5t-118 -45.5q-64 0 -113 46.5 t-49 114.5z" />
<glyph unicode="&#xf8;" horiz-adv-x="980" d="M37 29l78 112q-15 29 -23 49t-14 62.5t-6 103.5v406q0 43 4.5 77.5t18.5 79.5t47 83t83 65q46 24 118 39.5t146 15.5q69 0 126.5 -11t82.5 -21t64 -29l65 90l105 -74l-72 -102q16 -30 23.5 -46.5t15.5 -58t8 -94.5v-397q0 -134 -29 -208q-78 -200 -386 -200 q-176 0 -287 70l-62 -86zM383 287q3 -22 6 -32.5t13 -28t30.5 -25.5t52.5 -8q31 0 53 10t32.5 22t16.5 32t6.5 30.5t0.5 27.5v281zM383 518l211 303q-2 14 -5.5 24t-13.5 25.5t-31 24t-52 8.5t-53 -11t-32.5 -25t-16.5 -37t-6.5 -35.5t-0.5 -32.5v-244z" />
<glyph unicode="&#xf9;" d="M86 311v779h324v-760q0 -16 0.5 -25.5t5.5 -27.5t14.5 -28.5t29 -19t46.5 -8.5q35 0 57.5 11.5t30.5 32.5t10 34t2 33v758h324v-1090h-324v119q-19 -31 -34 -49.5t-44.5 -45t-72.5 -40t-97 -13.5q-56 0 -100.5 15t-72.5 36.5t-48 55.5t-29.5 61.5t-15 66.5t-6 58t-0.5 47 zM190 1507h355l194 -260h-262z" />
<glyph unicode="&#xfa;" d="M86 311v779h324v-760q0 -16 0.5 -25.5t5.5 -27.5t14.5 -28.5t29 -19t46.5 -8.5q35 0 57.5 11.5t30.5 32.5t10 34t2 33v758h324v-1090h-324v119q-19 -31 -34 -49.5t-44.5 -45t-72.5 -40t-97 -13.5q-56 0 -100.5 15t-72.5 36.5t-48 55.5t-29.5 61.5t-15 66.5t-6 58t-0.5 47 zM309 1247l179 258h342l-281 -258h-240z" />
<glyph unicode="&#xfb;" d="M86 311v779h324v-760q0 -16 0.5 -25.5t5.5 -27.5t14.5 -28.5t29 -19t46.5 -8.5q35 0 57.5 11.5t30.5 32.5t10 34t2 33v758h324v-1090h-324v119q-19 -31 -34 -49.5t-44.5 -45t-72.5 -40t-97 -13.5q-56 0 -100.5 15t-72.5 36.5t-48 55.5t-29.5 61.5t-15 66.5t-6 58t-0.5 47 zM180 1253l203 256h258l207 -256h-242l-92 121l-88 -121h-246z" />
<glyph unicode="&#xfc;" d="M86 311v779h324v-760q0 -16 0.5 -25.5t5.5 -27.5t14.5 -28.5t29 -19t46.5 -8.5q35 0 57.5 11.5t30.5 32.5t10 34t2 33v758h324v-1090h-324v119q-19 -31 -34 -49.5t-44.5 -45t-72.5 -40t-97 -13.5q-56 0 -100.5 15t-72.5 36.5t-48 55.5t-29.5 61.5t-15 66.5t-6 58t-0.5 47 zM127 1251v254h293v-254h-293zM581 1251v254h293v-254h-293z" />
<glyph unicode="&#xfd;" horiz-adv-x="894" d="M-4 1087h319l131 -856l121 856h326l-260 -1118q-27 -115 -52.5 -175t-74.5 -101q-41 -37 -101 -56t-107.5 -22.5t-125.5 -3.5h-158v211h144q65 0 90 22.5t31 83.5zM243 1247l179 258h342l-281 -258h-240z" />
<glyph unicode="&#xfe;" d="M94 -383v1829h326v-473q19 26 29 39.5t35 37t50 36t65.5 22.5t88.5 10q135 0 205 -86q59 -67 59 -201v-495q0 -67 -7 -120t-25.5 -100t-48.5 -78t-77.5 -49t-111.5 -18q-58 0 -103 11.5t-76.5 35t-46.5 39.5t-36 43v-483h-326zM420 338q0 -19 0.5 -31t6 -34t15.5 -35.5 t31 -24t51 -10.5t51 10.5t31 23.5t15.5 34.5t6.5 34.5t1 32v414q0 18 -1 30t-6 32.5t-15.5 33t-31 22t-49.5 9.5q-30 0 -51.5 -9.5t-32 -21.5t-16 -32t-6 -30.5t-0.5 -27.5v-420z" />
<glyph unicode="&#xff;" horiz-adv-x="894" d="M-4 1087h319l131 -856l121 856h326l-260 -1118q-27 -115 -52.5 -175t-74.5 -101q-41 -37 -101 -56t-107.5 -22.5t-125.5 -3.5h-158v211h144q65 0 90 22.5t31 83.5zM72 1247v254h293v-254h-293zM526 1247v254h293v-254h-293z" />
<glyph unicode="&#x152;" horiz-adv-x="1449" d="M86 440v580q0 34 1.5 61.5t6 70t14.5 76t25 72.5t40.5 68t58.5 54t80.5 38t105.5 13q65 0 119.5 -18t78 -34.5t52.5 -42.5v70h735v-258h-387v-324h356v-256h-356v-352h387v-258h-735v63q-37 -25 -60 -38t-76 -29t-110 -16q-336 0 -336 460zM434 352q0 -19 1 -31t7 -34 t17 -35.5t34 -24t56 -10.5q34 0 58 10t35.5 23t17.5 34.5t7 33.5t1 32v770q0 119 -115 119q-119 0 -119 -119v-768z" />
<glyph unicode="&#x153;" horiz-adv-x="1492" d="M72 396v1v353q0 45 2 71t11 70.5t33 81t62 65.5q103 78 303 78q58 0 102 -6.5t76 -19.5t49.5 -23.5t41.5 -28.5q31 27 51.5 40t74.5 25.5t134 12.5q187 0 293 -82q71 -52 91.5 -119.5t20.5 -181.5v-260h-508v-186q0 -25 2.5 -41t11.5 -34.5t31 -28t56 -9.5q29 0 48 8 t29 18.5t14.5 37t5.5 46.5t1 64h315q0 -51 -1 -75.5t-6 -62.5t-15 -61t-30 -50t-50 -50q-101 -78 -295 -78q-81 0 -142 13.5t-83 25.5t-49 31q-44 -24 -72.5 -37t-81.5 -24t-117 -11q-85 0 -151.5 15t-109 36.5t-72 60.5t-44.5 69.5t-22.5 82.5t-8.5 80.5t-1 82.5zM393 279 q0 -19 2 -31.5t9.5 -33t28 -31.5t52.5 -11q34 0 56 11t30.5 31.5t10.5 34.5t2 36v524q0 20 -2 33t-10 32t-29 29t-54 10q-52 0 -74 -22.5t-22 -73.5v-538zM909 670h195v127q0 22 -2 34.5t-10 31.5t-29.5 28.5t-56.5 9.5q-34 0 -55.5 -10.5t-29.5 -29.5t-10 -31.5t-2 -30.5 v-129z" />
<glyph unicode="&#x178;" horiz-adv-x="1067" d="M8 1446h346l176 -639l177 639h348l-361 -936v-510h-340v510zM197 1606v231h276v-231h-276zM590 1606v231h276v-231h-276z" />
<glyph unicode="&#x2c6;" horiz-adv-x="555" d="M-55 1253l202 256h259l206 -256h-241l-92 121l-89 -121h-245z" />
<glyph unicode="&#x2dc;" horiz-adv-x="555" d="M-57 1272q2 25 4 41t8.5 44.5t15.5 48t25.5 43t37.5 37.5t53 24t71 10q34 0 60 -6.5t116 -38.5q76 -27 100 -27q23 0 39 6.5t23.5 19t10.5 20t5 19.5h102q-3 -32 -7.5 -56t-19 -63.5t-35.5 -65t-61 -45t-92 -19.5q-43 0 -79.5 10t-116.5 41q-62 24 -88 24q-22 0 -37 -6 t-21.5 -17.5t-8.5 -20.5t-3 -23h-102z" />
<glyph unicode="&#x2000;" horiz-adv-x="949" />
<glyph unicode="&#x2001;" horiz-adv-x="1898" />
<glyph unicode="&#x2002;" horiz-adv-x="949" />
<glyph unicode="&#x2003;" horiz-adv-x="1898" />
<glyph unicode="&#x2004;" horiz-adv-x="632" />
<glyph unicode="&#x2005;" horiz-adv-x="474" />
<glyph unicode="&#x2006;" horiz-adv-x="316" />
<glyph unicode="&#x2007;" horiz-adv-x="316" />
<glyph unicode="&#x2008;" horiz-adv-x="237" />
<glyph unicode="&#x2009;" horiz-adv-x="379" />
<glyph unicode="&#x200a;" horiz-adv-x="105" />
<glyph unicode="&#x2010;" horiz-adv-x="681" d="M57 602v248h561v-248h-561z" />
<glyph unicode="&#x2011;" horiz-adv-x="681" d="M57 602v248h561v-248h-561z" />
<glyph unicode="&#x2012;" horiz-adv-x="681" d="M57 602v248h561v-248h-561z" />
<glyph unicode="&#x2013;" d="M68 606v242h895v-242h-895z" />
<glyph unicode="&#x2014;" horiz-adv-x="1193" d="M74 602v248h1052v-248h-1052z" />
<glyph unicode="&#x2018;" horiz-adv-x="512" d="M113 823v312l163 313h138l-95 -313h95v-312h-301z" />
<glyph unicode="&#x2019;" horiz-adv-x="512" d="M104 823l95 312h-95v311h302v-311l-162 -312h-140z" />
<glyph unicode="&#x201a;" horiz-adv-x="512" d="M84 -311l115 311h-93v311h300v-311l-183 -311h-139z" />
<glyph unicode="&#x201c;" horiz-adv-x="894" d="M98 821v309l183 318h141l-115 -318h88v-309h-297zM504 821v309l178 318h141l-112 -318h90v-309h-297z" />
<glyph unicode="&#x201d;" horiz-adv-x="894" d="M74 825l116 314h-96v307h299v-307l-178 -314h-141zM477 825l115 314h-92v307h299v-307l-183 -314h-139z" />
<glyph unicode="&#x201e;" horiz-adv-x="894" d="M74 -311l114 311h-96v311h299v-311l-176 -311h-141zM477 -311l115 311h-92v311h299v-311l-183 -311h-139z" />
<glyph unicode="&#x2022;" horiz-adv-x="681" d="M25 725q0 126 93 220.5t228 94.5q131 0 222 -89t91 -230q0 -53 -17.5 -106t-52.5 -102t-99 -79.5t-146 -30.5q-140 0 -229.5 96t-89.5 226z" />
<glyph unicode="&#x2026;" horiz-adv-x="2048" d="M188 0v311h304v-311h-304zM870 0v311h304v-311h-304zM1552 0v311h303v-311h-303z" />
<glyph unicode="&#x202f;" horiz-adv-x="379" />
<glyph unicode="&#x2039;" horiz-adv-x="425" d="M55 518v248l291 238v-261l-119 -96l119 -104v-260z" />
<glyph unicode="&#x203a;" horiz-adv-x="425" d="M80 285v262l117 96l-117 107v258l289 -240v-244z" />
<glyph unicode="&#x205f;" horiz-adv-x="474" />
<glyph unicode="&#x2122;" horiz-adv-x="1409" d="M2 1309v137h586v-137h-205v-543h-172v543h-209zM643 766v680h217l156 -492l145 492h219v-680h-168l9 362l10 138l-27 -109l-117 -391h-151l-121 393l-29 105l13 -136l10 -362h-166z" />
<glyph unicode="&#xe000;" horiz-adv-x="1085" d="M0 0v1085h1085v-1085h-1085z" />
</font>
</defs>
</svg>
