<?xml version="1.0" standalone="no"?>
<!DOCTYPE svg PUBLIC "-//W3C//DTD SVG 1.1//EN" "http://www.w3.org/Graphics/SVG/1.1/DTD/svg11.dtd" >
<svg xmlns="http://www.w3.org/2000/svg">
<metadata></metadata>
<defs>
<font id="berthold_akzidenz_grotesk_bRg" horiz-adv-x="724" >
<font-face units-per-em="2048" ascent="1638" descent="-410" />
<missing-glyph horiz-adv-x="468" />
<glyph unicode="&#xfb01;" horiz-adv-x="811" d="M10 901v125h121v109q0 40 0.5 61t5 60t13.5 61.5t26.5 51.5t42.5 44.5t64.5 27t89.5 11.5q40 0 86 -12v-142q-39 13 -66 13q-24 0 -42 -5.5t-28.5 -19.5t-17 -27t-9 -39t-3 -42.5t-0.5 -51.5v-100h166v-125h-166v-901h-162v901h-121zM559 0v1026h162v-1026h-162z M559 1204v211h162v-211h-162z" />
<glyph unicode="&#xfb02;" horiz-adv-x="811" d="M10 901v125h121v109q0 40 0.5 61t5 60t13.5 61.5t26.5 51.5t42.5 44.5t64.5 27t89.5 11.5q40 0 86 -12v-142q-39 13 -66 13q-24 0 -42 -5.5t-28.5 -19.5t-17 -27t-9 -39t-3 -42.5t-0.5 -51.5v-100h166v-125h-166v-901h-162v901h-121zM557 0v1446h166l-2 -1446h-164z" />
<glyph horiz-adv-x="2048" />
<glyph horiz-adv-x="2048" />
<glyph unicode="&#xd;" horiz-adv-x="2048" />
<glyph unicode=" "  horiz-adv-x="468" />
<glyph unicode="&#x09;" horiz-adv-x="468" />
<glyph unicode="&#xa0;" horiz-adv-x="468" />
<glyph unicode="!" horiz-adv-x="425" d="M168 0v242h174v-242h-174zM168 991v457h174v-457l-43 -598h-92z" />
<glyph unicode="&#x22;" horiz-adv-x="811" d="M106 1423q0 58 36 84.5t77 26.5q47 0 77.5 -32.5t22.5 -88.5l-83 -524h-48l-77 500q-5 30 -5 34zM489 1423q0 58 36 84.5t77 26.5q47 0 77.5 -32.5t22.5 -88.5l-84 -524h-47l-77 500q-5 30 -5 34z" />
<glyph unicode="#" horiz-adv-x="1193" d="M0 471v158h305l33 219h-289v158h309l64 440h164l-62 -440h226l63 440h160l-60 -440h283v-158h-305l-33 -219h287v-158h-307l-68 -471h-164l68 471h-228l-65 -471h-166l68 471h-283zM469 629h227l31 219h-227z" />
<glyph unicode="$" horiz-adv-x="811" d="M59 500h168q0 -197 4 -226q6 -37 19.5 -63.5t34 -41t33.5 -20t34 -12.5v535l-86 90q-66 69 -97.5 112t-52 105.5t-20.5 146.5q0 90 18.5 153.5t55 100t79.5 55.5t103 29v172h117v-172q79 -8 130.5 -33t79.5 -69t39 -99t11 -135v-110h-164q0 154 -15 208.5t-81 76.5v-488 l96 -104q113 -123 153 -202t40 -187q0 -61 -13 -111.5t-31.5 -84t-48 -60t-53.5 -40t-56.5 -24.5t-48.5 -14t-38 -6v-175h-117v175q-184 19 -258 159q-25 48 -30 109.5t-5 249.5zM266 1139q0 -50 13.5 -90t29 -61t43.5 -52v367q-13 -6 -21.5 -10.5t-22 -17.5t-21.5 -29 t-14.5 -44t-6.5 -63zM469 137q115 37 115 187q0 49 -23.5 100t-91.5 119v-406z" />
<glyph unicode="%" horiz-adv-x="1280" d="M45 1182q0 29 0.5 46t4.5 50t11.5 53.5t23 47t37.5 42t56 26.5t78 11q21 0 40 -2.5t47.5 -12.5t50.5 -27.5t41.5 -51.5t27.5 -80q6 -39 6 -289q0 -222 -6 -284q-2 -19 -5 -34.5t-16 -44.5t-33 -49t-59 -35.5t-90 -15.5q-40 0 -72 8t-53 18.5t-37 29.5t-24 32.5t-14 36 t-7.5 30.5t-3.5 26q-4 43 -4 469zM180 899q0 -165 10.5 -203.5t63.5 -38.5q24 0 39.5 6t21.5 18t8 20.5t3 23.5q4 43 4 266v180q0 42 -0.5 60.5t-4 43t-11.5 33.5t-22 16t-36 7q-26 0 -42 -9t-22.5 -27t-8 -32.5t-1.5 -39.5q-2 -72 -2 -324zM238 0l710 1448h94l-704 -1448 h-100zM813 639q0 29 0.5 46t4.5 50t11.5 53.5t23 47t37.5 42t56 26.5t78 11q21 0 40 -2.5t47.5 -12.5t50.5 -27.5t41.5 -51.5t27.5 -80q6 -39 6 -286q0 -225 -6 -287q-2 -19 -5 -34.5t-16 -44.5t-33 -48.5t-59 -35t-90 -15.5q-55 0 -95.5 15t-60.5 33t-33.5 48.5t-16 44.5 t-5.5 39q-4 43 -4 469zM948 356q0 -165 10.5 -203t63.5 -38q24 0 39.5 5.5t21.5 17.5t8 20.5t3 23.5q4 43 4 267v180q0 41 -0.5 59.5t-4 42.5t-11.5 33.5t-22 16.5t-36 7q-26 0 -42 -9t-22.5 -27t-8 -32.5t-1.5 -39.5q-2 -72 -2 -324z" />
<glyph unicode="&#x26;" horiz-adv-x="937" d="M43 315q0 87 34 172t91 150l90 90q-94 207 -94 303q0 40 13.5 80.5t41.5 78.5t78 61.5t115 23.5q106 0 179 -62t73 -174q0 -54 -20.5 -108t-57 -101t-63.5 -76t-64 -63q34 -68 59 -111t125 -212q17 30 25 52.5t15.5 75.5t8.5 134l158 -2q6 -225 -107 -412q18 -24 30 -36 t45 -24.5t77 -9.5v-153q-162 -11 -252 96q-114 -108 -272 -108q-146 0 -237 91.5t-91 243.5zM217 299q-1 -84 47.5 -129t112.5 -45q90 0 166 86q-63 83 -183 313q-6 10 -9 16t-8 15.5t-9 17.5q-22 -17 -37.5 -33.5t-36 -48.5t-31.5 -80.5t-12 -111.5zM324 1030 q0 -48 16.5 -91t50.5 -103q53 57 72.5 80t35 55t15.5 67q0 49 -28.5 75t-67.5 26q-33 0 -54 -13.5t-28.5 -35.5t-9.5 -34t-2 -26z" />
<glyph unicode="'" horiz-adv-x="425" d="M106 1423q0 58 36 84.5t77 26.5q47 0 77.5 -32.5t22.5 -88.5l-83 -524h-48l-77 500q-5 30 -5 34z" />
<glyph unicode="(" horiz-adv-x="598" d="M141 569q0 459 340 901l88 -77q-60 -90 -97.5 -159t-75 -168.5t-55 -222.5t-17.5 -276q0 -507 256 -841l-84 -76q-24 26 -59.5 74.5t-89.5 142.5t-98 195.5t-76 238.5t-32 268z" />
<glyph unicode=")" horiz-adv-x="598" d="M16 -274q256 334 256 841q0 153 -17.5 276t-55 222.5t-75 168.5t-97.5 159l88 77q340 -442 340 -901q0 -131 -32 -268t-76 -238.5t-98 -195.5t-89.5 -142.5t-59.5 -74.5z" />
<glyph unicode="*" d="M25 1151l43 135l231 -80v240h135v-240l230 70l38 -125l-225 -74l141 -194l-110 -82l-139 194l-146 -194l-108 82l145 194z" />
<glyph unicode="+" horiz-adv-x="1024" d="M63 514v164h365v366h164v-366h366v-164h-366v-367h-164v367h-365z" />
<glyph unicode="," horiz-adv-x="342" d="M82 0v242h176v-232q0 -46 -2 -74.5t-11.5 -68.5t-27 -65.5t-52 -48.5t-83.5 -34v107q23 7 39 19.5t23.5 28t11.5 35.5t4 42.5v48.5h-78z" />
<glyph unicode="-" horiz-adv-x="555" d="M41 473v160h471v-160h-471z" />
<glyph unicode="." horiz-adv-x="342" d="M84 0v242h174v-242h-174z" />
<glyph unicode="/" horiz-adv-x="598" d="M10 0l412 1446h166l-406 -1446h-172z" />
<glyph unicode="0" horiz-adv-x="768" d="M57 727q0 323 5.5 411.5t25.5 145.5q21 59 61.5 98.5t89 55.5t81 21t63.5 5q34 0 68 -6t79.5 -22t84.5 -54.5t61 -93.5q25 -60 30 -142.5t5 -420.5q0 -79 -3.5 -250t-7.5 -217q-3 -23 -5 -36.5t-11 -46t-21 -54.5t-36 -50.5t-54.5 -46t-78 -30t-105.5 -12.5 q-69 0 -126 14.5t-109.5 59t-71.5 116.5q-14 51 -19.5 153t-5.5 402zM236 645q0 -238 2 -299q1 -39 2.5 -61t9.5 -53.5t22 -48t41.5 -29.5t67.5 -13t68 12t42.5 28t22.5 48.5t9.5 56.5t2.5 68q2 41 2 363v241q0 57 -0.5 84t-2 69.5t-5 61t-10.5 46t-17 39t-25 24.5t-35.5 17 t-47.5 4q-34 0 -59.5 -8.5t-41 -26.5t-25 -35t-14 -44.5t-5.5 -44t-2 -44.5q-2 -111 -2 -455z" />
<glyph unicode="1" horiz-adv-x="768" d="M76 1135v137h41t40.5 1.5t41.5 4.5t37.5 9t35.5 14.5t28.5 22t24 30.5t14 40.5t5.5 51.5h154v-1446h-183v1135h-239z" />
<glyph unicode="2" horiz-adv-x="768" d="M70 0v172l299 506q94 161 119.5 235t25.5 189q0 23 -1 38t-4.5 41.5t-12 44t-22.5 35.5t-38 27.5t-55 9.5q-27 0 -48 -7.5t-34 -18t-22.5 -29.5t-14 -33.5t-7 -39t-3 -37.5t-0.5 -37v-166h-166v180q0 98 16 161.5t58 108.5q80 84 217 84q135 0 215 -84q52 -55 72 -125 t20 -168q0 -127 -34 -225t-101 -209l-297 -497h450v-156h-632z" />
<glyph unicode="3" horiz-adv-x="768" d="M61.5 338.5q-0.5 12.5 0.5 49.5t1 44h164q-3 -56 0 -135q1 -21 2.5 -34.5t9.5 -39.5t22 -42t42 -29t66 -13q41 0 71 13.5t45 32t23.5 48t10 50t1.5 49.5q2 27 2 145q0 115 -45.5 160t-140.5 45q-39 0 -55 -2v162q47 -6 88.5 0t72 23t48.5 63t18 121q0 59 -2 94.5t-9 70.5 t-21.5 53t-38.5 29t-60 11q-44 0 -72 -20.5t-39 -57t-15 -86t1 -107.5h-164q-2 124 5 189t36 118q68 121 254 121q88 0 145.5 -31.5t87.5 -72.5q64 -84 64 -275q0 -77 -5.5 -125.5t-23 -90.5t-51.5 -65t-88 -34q50 -12 81.5 -29t54.5 -44.5t33.5 -75.5t15.5 -111.5t5 -163.5 q0 -92 -19 -157.5t-71 -118.5q-88 -88 -233 -88q-121 0 -207 55q-21 13 -37.5 30t-28 39t-20 40t-13 48t-7.5 46.5t-3.5 51t-1 47z" />
<glyph unicode="4" horiz-adv-x="768" d="M43 324v198l293 926h252v-971h127v-153h-127v-324h-170v324h-375zM178 477h240l8 807z" />
<glyph unicode="5" horiz-adv-x="768" d="M57 342q0 17 1 43t1 39h170q-4 -58 -0.5 -109.5t15 -89.5t44 -60t87.5 -22q35 0 62 11t41 26t23 35t11.5 33t3.5 26q6 58 6 320q0 32 -0.5 49t-3 46.5t-7.5 46t-15 38t-24 33t-36 19.5t-51 8t-51 -7.5t-34.5 -23.5t-20.5 -29t-11.5 -38.5t-4 -36t-1.5 -35.5h-162l23 782 h561v-158h-397l-13 -358q63 63 177 63q56 0 102 -21t66 -41.5t34 -43.5q12 -21 19.5 -39.5t16.5 -83t9 -160.5q0 -287 -6 -348q-14 -124 -97.5 -199t-225.5 -75q-64 0 -115 16t-83 38.5t-55 59t-34 65.5t-17 70t-7 61.5t-1 49.5z" />
<glyph unicode="6" horiz-adv-x="768" d="M70 463v522q0 139 1.5 176.5t10.5 77.5q43 225 295 225q165 0 244 -96q29 -34 43 -79.5t16 -80t2 -106.5h-168q0 29 -0.5 43.5t-2 38t-5 35.5t-9.5 29t-15.5 25t-23.5 16.5t-33 12t-44 3.5q-111 0 -135 -101q-10 -43 -10 -254v-108q24 28 42.5 45.5t62.5 37t97 19.5 q114 0 187 -78q48 -49 61.5 -120.5t13.5 -251.5q0 -89 -1.5 -142t-12 -129t-31.5 -112q-40 -67 -115 -98t-165 -31q-26 0 -47 1.5t-65.5 13.5t-77 33.5t-63.5 67t-42 109.5q-10 61 -10 256zM238 455q0 -156 6 -201q3 -14 4.5 -18.5l7.5 -22.5t15.5 -27.5t24 -22t37.5 -18.5 t52 -6q41 0 68 15t41 34t21 68t8 85t1 116q0 142 -4 200q-1 14 -3 26.5t-10.5 35t-22.5 37.5t-41.5 27t-63.5 12q-21 0 -38 -3t-30.5 -11.5t-24 -16.5t-18 -25.5t-13 -30t-8.5 -39t-5 -43t-3 -52t-1 -56v-63.5z" />
<glyph unicode="7" horiz-adv-x="768" d="M68 1284v162h628v-133q0 -8 -9.5 -23.5t-10.5 -19.5q-35 -73 -76 -178q-46 -123 -79.5 -251.5t-51 -227.5t-28.5 -224t-14.5 -198t-6.5 -191h-197q4 94 8.5 160t20.5 202t51.5 286t87.5 302q7 21 33.5 91t57 148.5t36.5 94.5h-450z" />
<glyph unicode="8" horiz-adv-x="768" d="M63 315v86t1 72.5t3.5 65t6.5 52.5t10 47.5t15.5 37t21.5 33t28 24t36.5 22t45.5 15.5q-94 17 -121.5 87t-27.5 257q0 31 1 51.5t7 60.5t16.5 68.5t33.5 62.5t54 55.5t81 36.5t112 15q90 0 154 -29.5t98 -72.5q53 -72 53 -236q0 -172 -21.5 -247t-95.5 -101 q-7 -2 -21.5 -5t-16.5 -3q2 -1 10 -3t18 -5t17 -6q29 -13 50.5 -31.5t34.5 -46.5t20.5 -51t10.5 -63t3.5 -62t0.5 -68q0 -78 -1 -112.5t-8.5 -86t-22.5 -90.5q-16 -38 -43 -68t-59 -46.5t-61.5 -27.5t-61 -15t-44.5 -5t-24 -1q-88 0 -152 30t-98 72q-64 80 -64 231zM242 397 q0 -37 0.5 -54.5t2 -47.5t5 -45t10 -36t17 -31t25 -21t35 -15t46.5 -4q30 0 53 8t38 18.5t25.5 33t15.5 39.5t7.5 50.5t3 53.5t0.5 60t-0.5 60.5t-3 54t-7.5 51t-15.5 40t-25.5 33.5t-38 19t-53 8q-54 0 -90 -27q-36 -29 -43.5 -74.5t-7.5 -173.5zM248 1085q0 -38 0.5 -57 t3 -49.5t7.5 -45.5t15.5 -35t25.5 -29t38 -16t53 -7q26 0 46 6.5t33.5 15t23 28.5t14.5 35t8 48t4 53t2 64q-1 30 0 61t-6 60.5t-19.5 52.5t-40 37t-67.5 14q-38 0 -64.5 -12.5t-41 -31.5t-23 -52t-10.5 -63.5t-2 -76.5z" />
<glyph unicode="9" horiz-adv-x="768" d="M61 866q0 302 19 391q23 110 106 158.5t191 48.5q103 0 162 -30q16 -8 33 -20.5t42 -37.5t44 -65.5t26 -89.5q6 -35 6 -398q0 -469 -6 -563q-7 -72 -32 -125.5t-57 -81.5t-75 -45t-76 -21.5t-69 -4.5q-111 0 -191 51.5t-100 144.5q-6 25 -7 55t-1 148h166q-3 -102 0 -111 q0 -129 135 -129q22 0 40 4t31.5 9.5t24 18.5t17.5 22.5t12 30t7.5 33t4.5 40t2.5 42.5t1.5 48q1 15 1 63t-0.5 105.5t-0.5 65.5q-25 -25 -43.5 -40t-64.5 -33t-101 -18q-51 0 -91.5 14.5t-66 35t-44 54t-27 60.5t-13.5 65.5t-5.5 57t-0.5 47.5zM233 930l3 -107 q5 -63 42.5 -99t102.5 -36t102 41t37 117v143q0 166 -2 182q-8 70 -46 103t-89 33q-22 0 -43 -6t-43 -20t-37.5 -43t-19.5 -69q-7 -61 -7 -239z" />
<glyph unicode=":" horiz-adv-x="425" d="M170 0v242h174v-242h-174zM170 735v242h174v-242h-174z" />
<glyph unicode=";" horiz-adv-x="425" d="M168 0v242h174v-232q0 -33 -0.5 -53.5t-4 -51t-10 -50.5t-19.5 -44t-31 -40t-46 -30t-63 -22v105q23 7 38 21t23 27.5t12 38.5t4.5 41t0.5 48h-78zM168 735v242h174v-242h-174z" />
<glyph unicode="&#x3c;" horiz-adv-x="1024" d="M0 635v176l1024 496v-179l-821 -405l821 -406v-178z" />
<glyph unicode="=" horiz-adv-x="1024" d="M0 328v159h1024v-159h-1024zM0 698v160h1024v-160h-1024z" />
<glyph unicode="&#x3e;" horiz-adv-x="1024" d="M0 139v178l821 406l-821 405v179l1024 -496v-176z" />
<glyph unicode="?" horiz-adv-x="811" d="M117 954v205q0 88 19 145.5t71 96.5q82 67 215 67q80 0 147 -30t107 -78q28 -36 42.5 -84t16.5 -76t2 -72q0 -114 -10.5 -167.5t-36.5 -100.5q-8 -14 -53 -87t-51 -83q-48 -80 -57 -123t-7 -180h-135q0 133 1 162.5t7 58.5q2 14 7 29.5t13 34t14 33t18 37.5t18 35 t19.5 37.5t17.5 33.5q42 81 51.5 126.5t9.5 188.5q0 66 -42 104t-105 38q-39 0 -67 -12t-41.5 -28t-21.5 -42t-9 -42.5t-1 -41.5v-185h-159zM369 0v242h174v-242h-174z" />
<glyph unicode="@" horiz-adv-x="1835" d="M141 481q0 189 71 366.5t193.5 312.5t300.5 216.5t379 81.5q276 0 442.5 -160t166.5 -432q0 -181 -67 -349t-177 -271t-227 -103q-45 0 -78 14t-50 31.5t-27.5 45.5t-12.5 43.5t-4 39.5q-127 -172 -295 -172q-10 0 -21.5 1t-40 7.5t-52.5 18t-53.5 37t-50.5 59.5t-35 90 t-14 125q0 144 60.5 278t161.5 217t213 83q158 0 233 -174l31 127h139l-67 -307q-3 -14 -11 -53.5t-11 -54t-9.5 -47.5t-9 -48t-7 -41.5t-6 -42.5t-3 -35.5t-1.5 -36.5q0 -31 9 -45.5t34 -34.5h21q45 0 98.5 49t100.5 128t78.5 190.5t31.5 224.5q0 237 -140 362.5 t-368 125.5q-124 0 -244.5 -43t-222 -123t-179 -186.5t-121.5 -241.5t-44 -279q0 -125 38.5 -229t103 -174.5t151 -119t181 -71t194.5 -22.5q192 0 366.5 78.5t321.5 218.5l67 -82q-160 -154 -352 -241t-397 -87q-70 0 -142.5 11t-150.5 36.5t-149 64t-135 98t-110.5 133 t-74 174.5t-27.5 218zM651 487q0 -59 16 -102.5t36 -63.5t47 -31t39 -12.5t22 -1.5q79 0 148.5 65t109 165.5t39.5 206.5q0 60 -16.5 104t-43 67t-54 33.5t-54.5 10.5q-66 0 -122.5 -43t-91.5 -109.5t-55 -142.5t-20 -146z" />
<glyph unicode="A" horiz-adv-x="811" d="M0 0l311 1446h181l319 -1446h-188l-52 279h-335l-50 -279h-186zM266 434h275l-142 744z" />
<glyph unicode="B" horiz-adv-x="894" d="M102 0v1446h265q83 0 123 -1.5t92 -12.5t88 -33q131 -80 131 -293q0 -151 -58.5 -238.5t-175.5 -87.5q71 0 122.5 -28t79.5 -77t41 -106.5t13 -126.5q0 -132 -19 -210t-75 -136q-63 -66 -139 -81t-240 -15h-248zM283 156h102q112 0 155 16q88 32 102 160q3 28 3 61 q0 62 -5.5 108.5t-14.5 79t-27.5 54t-36 34t-50 18.5t-59 7.5t-71.5 1.5h-98v-540zM283 852h123q23 0 35 0.5t34 2t34.5 5.5t30.5 11.5t28.5 18t22.5 27.5t18.5 38t11 50.5t4.5 65.5q0 35 -4 63.5t-10 49.5t-18.5 37t-22.5 26.5t-29.5 17.5t-32.5 11t-38.5 5.5t-40 2 t-44.5 0.5h-102v-432z" />
<glyph unicode="C" horiz-adv-x="854" d="M90 707q0 182 2 283.5t5 134.5t9 71q4 22 7.5 35.5t15 45t25.5 53.5t41.5 50t61 45.5t84.5 30t112 12.5q48 0 93 -10.5t88.5 -33.5t76 -65t45.5 -99q14 -65 14 -214v-55h-168v109q0 32 -1 51t-5 48t-13.5 47t-25.5 36t-42.5 26.5t-61.5 8.5q-44 0 -76.5 -14.5t-49 -31.5 t-27.5 -46.5t-13.5 -45t-5.5 -40.5q-13 -113 -13 -434q0 -89 4 -245t9 -194l6 -25.5t14.5 -32.5t28.5 -38t47.5 -26.5t71.5 -12.5q26 0 48.5 7t37 14.5t27 24.5t18 25t12 28t7 21.5t3.5 16.5q8 37 8 242h168q0 -148 -2.5 -204t-11.5 -97q-7 -32 -16 -57t-32 -59.5t-56 -57 t-90.5 -39t-131.5 -16.5q-80 0 -142 22t-100 60.5t-60.5 83.5t-31.5 98q-14 96 -14 463z" />
<glyph unicode="D" horiz-adv-x="894" d="M102 0v1446h273q70 0 106 -2t89.5 -11.5t91.5 -33t69 -62.5q50 -61 62 -150t12 -360q0 -169 -4 -366q-2 -125 -12.5 -198t-45.5 -132q-20 -32 -44 -55t-55.5 -37t-57.5 -22.5t-69 -12t-69 -4t-77 -0.5h-269zM283 160h116q40 0 65.5 2t54 10t46 22.5t31.5 40.5t20 64 q13 88 13 346q0 185 -2 324q-2 135 -13 192t-55 88q-32 22 -77.5 26.5t-198.5 4.5v-1120z" />
<glyph unicode="E" horiz-adv-x="811" d="M102 0v1446h635v-162h-454v-430h399v-164h-399v-528h471v-162h-652z" />
<glyph unicode="F" horiz-adv-x="768" d="M102 0v1446h637v-162h-454v-426h395v-158h-395v-700h-183z" />
<glyph unicode="G" horiz-adv-x="894" d="M90 670q0 376 14 495q5 47 16 85.5t36 80.5t61 71t97 47.5t139 18.5q122 0 190 -29.5t105 -84.5q35 -50 42 -107t7 -243h-170q0 160 -9 204q-23 109 -155 109q-36 0 -64 -7.5t-46.5 -18t-32 -31.5t-20.5 -37t-12 -45.5t-6 -47t-3 -51.5q-9 -180 -9 -489q0 -51 1.5 -95.5 t5 -98t4.5 -81.5q1 -25 3 -43t11 -47.5t25 -48t47.5 -33t74.5 -14.5q89 0 146 57q29 30 41 79t12 179v148h-213v156h381v-748h-152v100q-25 -25 -42 -39t-51 -36.5t-77.5 -33.5t-95.5 -11q-30 0 -61.5 6.5t-70 23t-73 52t-55.5 85.5q-15 37 -22.5 73.5t-13 146t-5.5 303.5z " />
<glyph unicode="H" horiz-adv-x="894" d="M102 0v1446h181v-615h329v615h181v-1446h-181v674h-329v-674h-181z" />
<glyph unicode="I" horiz-adv-x="382" d="M102 0v1446h179v-1446h-179z" />
<glyph unicode="J" horiz-adv-x="811" d="M39 434h174q0 -116 2.5 -151.5t13.5 -63.5q17 -41 51.5 -63.5t77.5 -22.5h6q47 0 82 15q36 17 54 45t25.5 52.5t9.5 51.5q2 29 2 166v983h178v-973q0 -145 -5.5 -201t-17.5 -94q-14 -41 -37.5 -73.5t-48 -53t-58 -35t-58 -21.5t-55.5 -10.5t-44 -4t-31 -0.5 q-133 0 -207 59t-98 145q-11 41 -13.5 85.5t-2.5 164.5z" />
<glyph unicode="K" horiz-adv-x="854" d="M102 0v1446h179v-623l372 623h199l-340 -545l340 -901h-199l-258 739l-114 -174v-565h-179z" />
<glyph unicode="L" d="M102 0v1446h183v-1284h424v-162h-607z" />
<glyph unicode="M" horiz-adv-x="1150" d="M102 0v1448h271l202 -1292l199 1292h275v-1448h-166l24 1309l-215 -1309h-227l-217 1309l28 -1309h-174z" />
<glyph unicode="N" horiz-adv-x="894" d="M104 0v1448h246l293 -1268l-25 1268h175v-1448h-254l-283 1253l25 -1253h-177z" />
<glyph unicode="O" horiz-adv-x="894" d="M90 674q0 343 10 473q2 22 4.5 41.5t12.5 54t25 62.5t42.5 59.5t64 53t92 36t122.5 14.5q62 0 113 -13.5t84 -32.5t58.5 -49.5t38.5 -55t22.5 -59t12 -51.5t5.5 -42q8 -82 8 -422q0 -169 -12 -387q-3 -62 -11.5 -109.5t-32 -100.5t-60 -87t-101 -56.5t-150.5 -22.5 q-120 0 -194 40q-114 61 -140 216q-14 86 -14 438zM274 643q0 -100 2 -192q0 -16 0.5 -47t1 -50t2.5 -48t6.5 -47t12 -41t20 -37t30 -27t42 -19t55.5 -6q25 0 46 5.5t36.5 12.5t28 21t20.5 25t14 31.5t9.5 32t6 35.5t3 33t2.5 33q12 174 12 322q0 32 -1 63q-1 57 -2.5 170.5 t-2.5 169.5q-1 33 -2 49.5t-5.5 50t-15 52.5t-28 40.5t-46.5 31.5t-68 10q-34 0 -61 -9.5t-44.5 -22.5t-30.5 -36.5t-19.5 -40.5t-11 -45.5t-5.5 -40.5t-2 -37q-5 -90 -5 -442z" />
<glyph unicode="P" horiz-adv-x="854" d="M104 0v1448h295q136 0 209.5 -21.5t124.5 -93.5q32 -43 46.5 -95t17 -94.5t2.5 -135.5q0 -162 -37 -258t-135 -132q-50 -19 -102.5 -22.5t-241.5 -3.5v-592h-179zM283 752h120q67 0 102 6t62 26q37 28 45.5 70.5t8.5 138.5q0 125 -12 177.5t-54 80.5q-32 22 -77 26.5 t-195 4.5v-530z" />
<glyph unicode="Q" horiz-adv-x="894" d="M90 604q0 443 10 543q3 24 5.5 42.5t13 54.5t25 63t43 59t65 52.5t92 35t123.5 14.5q181 0 266 -108q48 -62 63 -159t15 -310q0 -189 -10 -461q-2 -61 -5 -97t-12 -90t-24.5 -88.5t-44.5 -70.5t-70 -59l178 -150l-100 -106l-217 213q-7 0 -22 -1t-29 -1q-38 0 -66 2 t-73 11.5t-77.5 27.5t-65 53.5t-50.5 85.5q-10 29 -16 59t-11.5 128t-5.5 257zM274 743q0 -388 7 -450q2 -21 4.5 -36t13 -42t27 -44t48.5 -30.5t75 -13.5q45 0 77.5 16t49 37t26.5 57.5t12 59t4 61.5q9 229 9 385q0 271 -2 340q-1 34 -2.5 55.5t-11 59.5t-25.5 60.5 t-48.5 40.5t-78.5 18q-34 0 -60.5 -8.5t-44.5 -20t-31.5 -33.5t-20.5 -38t-12 -45t-7 -43.5t-4 -43.5q-5 -66 -5 -342z" />
<glyph unicode="R" horiz-adv-x="894" d="M102 0v1446h316q46 0 81.5 -2.5t77.5 -12t72 -26t60.5 -46t49.5 -70t30.5 -100.5t11.5 -136q0 -159 -35 -252q-12 -34 -30 -60.5t-32.5 -40.5t-37.5 -25t-32 -14t-28 -8l260 -653h-190l-246 633h-149v-633h-179zM281 776q159 0 200.5 3.5t69.5 23.5q25 17 40.5 43.5 t21 63.5t7 60.5t1.5 61.5q0 42 -1.5 67.5t-8 59t-22 57.5t-40.5 39q-31 19 -75 23t-193 4v-506z" />
<glyph unicode="S" horiz-adv-x="811" d="M55 340v160h172q0 -168 2 -195q1 -17 3.5 -32.5t13 -43t27.5 -47t51 -34.5t79 -15q21 0 41.5 3.5t47 15t46.5 30t34 52.5t14 79q0 79 -30.5 130.5t-102.5 125.5l-197 201q-99 101 -132.5 178.5t-33.5 181.5q0 338 336 338q191 0 264 -118q29 -48 35 -103t6 -227h-158 q-5 154 -8 178q-2 16 -7.5 30.5t-20 37t-46 36t-75.5 13.5q-152 0 -152 -172q0 -76 27.5 -121.5t114.5 -138.5l182 -191q98 -104 135 -176.5t37 -189.5q0 -87 -26.5 -153t-64.5 -101.5t-89.5 -57.5t-90.5 -28t-79 -6q-160 0 -242 71q-113 88 -113 289z" />
<glyph unicode="T" horiz-adv-x="768" d="M20 1284v162h728v-162h-275v-1284h-178v1284h-275z" />
<glyph unicode="U" horiz-adv-x="894" d="M96 459v987h183v-1055q0 -36 0.5 -54.5t3.5 -50.5t9.5 -49t19 -39.5t31 -34t46.5 -20t64 -8.5q45 0 76.5 13t47 28.5t24.5 44t10.5 45t2.5 45.5q2 57 2 176v959h183v-975q0 -146 -6 -209t-29 -115q-72 -167 -315 -167q-248 0 -320 157q-22 47 -27.5 103t-5.5 219z" />
<glyph unicode="V" horiz-adv-x="768" d="M0 1446h186l199 -1268l201 1268h182l-268 -1446h-230z" />
<glyph unicode="W" horiz-adv-x="1280" d="M0 1446h178l178 -1268l170 1268h232l166 -1268l180 1268h176l-244 -1446h-237l-158 1198l-166 -1198h-237z" />
<glyph unicode="X" horiz-adv-x="811" d="M0 0l276 788l-258 658h199l174 -555l162 555h192l-237 -658l303 -788h-195l-221 627l-207 -627h-188z" />
<glyph unicode="Y" horiz-adv-x="811" d="M0 1446h193l213 -723l215 723h190l-317 -879v-567h-187v567z" />
<glyph unicode="Z" horiz-adv-x="768" d="M45 0v147l475 1137h-407v162h610v-137l-483 -1149h483v-160h-678z" />
<glyph unicode="[" horiz-adv-x="641" d="M199 -350v1820h403v-129h-231v-1558h231v-133h-403z" />
<glyph unicode="\" horiz-adv-x="598" d="M10 1446h166l410 -1446h-170z" />
<glyph unicode="]" horiz-adv-x="641" d="M39 -217h231v1558h-231v129h403v-1820h-403v133z" />
<glyph unicode="^" horiz-adv-x="1492" d="M291 690l385 756h158l368 -756h-198l-254 531l-263 -531h-196z" />
<glyph unicode="_" horiz-adv-x="1024" d="M-20 -154h1064v-102h-1064v102z" />
<glyph unicode="`" horiz-adv-x="468" d="M68 1374h223l108 -221h-133z" />
<glyph unicode="a" d="M41 244q0 60 10.5 104t37 78.5t51.5 56t73 54.5q123 82 159.5 109t98.5 85q0 34 -1 52t-7.5 46.5t-18.5 43.5t-37 26.5t-61 11.5q-35 0 -60 -10.5t-37 -23t-18 -36t-7 -38t-1 -39.5q0 -30 4 -76h-149q-1 32 -1 61q0 94 15 144q51 149 270 149q137 0 207 -75 q44 -46 54 -94.5t10 -165.5v-490q0 -119 8 -155t41 -62h-201v123q-10 -20 -17.5 -32.5t-26.5 -35.5t-39.5 -37t-54 -25t-73.5 -11q-70 0 -123 30q-64 38 -85 97.5t-21 134.5zM207 254q0 -21 0.5 -34t6.5 -38t16.5 -40t32.5 -27.5t54 -12.5q47 0 89 31q40 31 52.5 77.5 t12.5 119.5v254q-52 -50 -135 -111q-35 -27 -52.5 -42.5t-38.5 -42.5t-29.5 -59t-8.5 -75z" />
<glyph unicode="b" horiz-adv-x="768" d="M90 0v1446h162v-506q15 19 28.5 32.5t38 31.5t59 28t75.5 10q78 0 126.5 -33t71.5 -75q43 -76 43 -309q0 -363 -18 -455q-10 -54 -35.5 -93t-59 -58.5t-65.5 -28t-65 -8.5q-40 0 -74 10t-60.5 30t-41 34t-33.5 36v-92h-152zM252 399q0 -120 4 -155q6 -43 24.5 -72.5 t43.5 -41.5t44 -16.5t38 -4.5q29 0 51 10.5t33 23.5t18.5 34t9.5 31.5t4 27.5q6 63 6 280q0 224 -13 291q-18 93 -78 110q-17 5 -38 5q-42 0 -82.5 -27t-56.5 -88q-6 -23 -7 -48.5t-1 -125.5v-234z" />
<glyph unicode="c" d="M74 487q0 64 0.5 104.5t3 92.5t7 84t12 71.5t19 62.5t28 49t38.5 40.5t50 27.5t64 18t79 5q81 0 136.5 -23t83.5 -52.5t42 -90.5t16 -101t2 -120v-2h-155v50.5t-1 44t-2.5 40.5t-4.5 34t-8 30t-12 23t-16.5 19.5t-21.5 12.5t-28 9t-35 2q-91 0 -111 -69.5t-20 -305.5 q0 -187 2 -275q1 -23 2.5 -37.5t8.5 -40t19.5 -40.5t37.5 -27t59 -12q36 0 60 12.5t38 32.5t21.5 57.5t9.5 73.5t2 94h155q0 -42 -0.5 -63.5t-3 -61t-7.5 -62t-15 -55.5t-24.5 -52.5t-37.5 -42t-52 -34.5t-69 -20t-88 -8q-212 0 -260 161q-24 82 -24 344z" />
<glyph unicode="d" horiz-adv-x="768" d="M74 506q0 289 24 366q23 76 80 123t139 47q41 0 74.5 -9.5t57 -27t36 -30.5t27.5 -33v504h166v-1446h-154v109q-13 -22 -25 -37.5t-37.5 -39.5t-64.5 -37t-88 -13q-36 0 -63 8q-31 8 -55 21.5t-42 36t-30.5 45t-20.5 60t-13 69.5t-7.5 84t-3 93t-0.5 107zM238 430 q0 -99 4 -162q2 -18 2.5 -23t4 -26t8.5 -31.5t15 -27.5t23 -26t33 -16t45 -7q34 0 58 10t39 34.5t24 52.5t13.5 77t6 94.5t2.5 117.5v11q2 46 2 88t-2 79q-3 75 -15 128t-43.5 81.5t-84.5 28.5q-25 0 -45.5 -8t-33.5 -18t-23 -30t-14.5 -34t-8 -40t-4.5 -38t-2 -38 q-4 -111 -4 -277z" />
<glyph unicode="e" d="M74 621q0 54 1.5 92.5t8 85.5t18 79.5t32.5 65t50.5 52t73 32t98.5 12.5q21 0 35.5 -0.5t44 -5t51 -12t49.5 -24t47.5 -39.5t36 -59.5t23.5 -82.5q6 -37 7 -87t1 -251h-411q0 -203 2 -221q2 -20 3.5 -31t10 -36t20.5 -39t37 -26.5t58 -12.5q34 0 59 12t38 29.5t20.5 46.5 t9.5 54.5t2 61.5h151q0 -121 -18 -174q-59 -161 -271 -161q-200 0 -262 157q-11 30 -15.5 57t-7.5 126t-3 299zM240 612h258v127q-1 26 -2 40.5t-8 44t-19.5 46.5t-37.5 31t-60 14q-93 0 -119 -86q-9 -28 -10.5 -64t-1.5 -153z" />
<glyph unicode="f" horiz-adv-x="468" d="M10 901v125h121v109q0 40 0.5 61t5 60t13.5 61.5t26.5 51.5t42.5 44.5t64.5 27t89.5 11.5q40 0 86 -12v-142q-39 13 -66 13q-24 0 -42 -5.5t-28.5 -19.5t-17 -27t-9 -39t-3 -42.5t-0.5 -51.5v-100h166v-125h-166v-901h-162v901h-121z" />
<glyph unicode="g" horiz-adv-x="768" d="M72 532q0 143 3.5 207t14.5 113q4 18 9.5 35.5t22.5 47.5t41 52t66.5 38.5t96.5 16.5q47 0 83 -10.5t59.5 -30.5t34.5 -34t23 -35v92h154v-971q0 -109 -2.5 -149t-15.5 -80q-17 -51 -53.5 -87t-83.5 -52t-86 -22.5t-79 -6.5q-39 0 -75.5 7t-74.5 25.5t-65.5 47t-45 75.5 t-17.5 107h149q1 -19 2.5 -31t9.5 -33.5t21.5 -34.5t41 -23.5t65.5 -10.5q35 0 60.5 8t40.5 25t24 33t12.5 44.5t4.5 45t1 47.5v118q-77 -112 -207 -112q-65 0 -122.5 32t-84.5 103q-20 53 -24 121.5t-4 281.5zM238 616q0 -284 6 -356q7 -141 125 -141q57 0 93.5 33.5 t47.5 91.5q8 47 8 254q0 173 -6 260q-3 78 -37 123t-102 45q-22 0 -40 -6t-31.5 -14t-23.5 -25t-17 -30.5t-11.5 -39t-6.5 -42.5t-3.5 -49t-1.5 -50v-54z" />
<glyph unicode="h" horiz-adv-x="768" d="M90 0v1446h162v-514q20 25 30.5 36t37 32.5t60.5 31.5t77 10q106 0 166 -73q26 -32 38.5 -81t14.5 -84t2 -99v-705h-162v614v57.5t-1 49.5t-2.5 45.5t-4.5 38t-8 34t-11.5 26t-16 22t-21.5 14t-27.5 10t-34.5 2.5q-22 0 -40.5 -5.5t-32 -13t-24 -23t-17 -28.5 t-11.5 -37.5t-7 -40.5t-3.5 -47.5t-1.5 -49.5v-54v-614h-162z" />
<glyph unicode="i" horiz-adv-x="342" d="M90 0v1026h162v-1026h-162zM90 1204v211h162v-211h-162z" />
<glyph unicode="j" horiz-adv-x="342" d="M-94 -207h33h64.5t41 12t27 20.5t12 48t6.5 70.5v110v5v967h162v-954q0 -138 -1.5 -179t-8.5 -75q-21 -89 -84.5 -125.5t-180.5 -36.5q-25 0 -71 4v133zM90 1204v211h162v-211h-162z" />
<glyph unicode="k" d="M88 0v1446h164v-889l303 467h188l-278 -397l264 -627h-174l-201 475l-102 -143v-332h-164z" />
<glyph unicode="l" horiz-adv-x="342" d="M88 0v1446h166v-1446h-166z" />
<glyph unicode="m" horiz-adv-x="1193" d="M88 0v1024h156v-102q17 22 31 37t41.5 37t64.5 34t82 12q46 0 82.5 -12t60 -34t35 -37t23.5 -37q20 26 31.5 38.5t39 36t63 34.5t79.5 11q96 0 159 -63q48 -48 59 -108t11 -203v-668h-166v670q0 120 -10 159q-12 37 -41.5 61.5t-77.5 24.5q-27 0 -48.5 -8.5t-35 -20.5 t-23 -34t-14 -39t-7 -47t-3 -46.5t-0.5 -47.5v-672h-166v670q0 34 -0.5 50.5t-1.5 45t-4.5 43t-9.5 35t-15 30.5t-22.5 21t-32 15.5t-41.5 4.5q-32 0 -56 -9t-38 -29.5t-22.5 -39.5t-12 -53.5t-4 -55t-0.5 -60.5v-668h-166z" />
<glyph unicode="n" horiz-adv-x="768" d="M90 0v1024h156v-94q17 21 31 34.5t42 34.5t65 32t81 11q35 0 63.5 -7t49.5 -17t37 -28.5t26.5 -34.5t18 -42.5t11 -45t5.5 -50t2 -48v-48.5v-721h-166v668v47.5t-1 42t-3.5 39.5t-6.5 33t-10 29.5t-15 22t-21 18t-28 9.5t-36 4q-28 0 -50.5 -8.5t-36.5 -20.5t-24 -35 t-15 -40.5t-7.5 -48t-3 -48t-0.5 -50.5v-662h-164z" />
<glyph unicode="o" d="M74 485q0 287 22 375q48 182 271 182q186 0 251 -133q26 -53 30.5 -112t4.5 -297q0 -250 -22 -336q-6 -25 -13.5 -45t-27.5 -47t-47 -45.5t-74.5 -31.5t-108.5 -13q-81 0 -146.5 28.5t-98.5 89.5q-28 50 -34.5 116.5t-6.5 268.5zM246 596q0 -229 2 -299q1 -36 2 -55 t7 -49t17 -45t32 -27t52 -12q86 0 104.5 76t18.5 317q0 207 -2 260q-5 145 -110 145q-31 0 -52 -7t-34.5 -28.5t-21 -39.5t-11 -63t-4 -75.5t-0.5 -97.5z" />
<glyph unicode="p" horiz-adv-x="768" d="M88 -326v1350h164v-98q20 25 32 38.5t38.5 35t60.5 32t76 10.5q65 0 116 -29.5t80 -84.5q22 -41 30.5 -104.5t8.5 -219.5q0 -291 -12 -391q-32 -231 -233 -231q-40 0 -73 10t-57 29.5t-34.5 30.5t-26.5 32v-410h-170zM258 465q0 -228 31 -289q37 -72 112 -72q35 0 59 16 t34.5 43t14.5 45t5 38q8 104 8 289q0 223 -12 276q-21 100 -113 100q-34 0 -59.5 -15.5t-38.5 -36t-21.5 -49t-10.5 -45t-3 -34.5q-6 -47 -6 -266z" />
<glyph unicode="q" horiz-adv-x="768" d="M74 496q0 284 14 352q21 91 85 142.5t144 51.5q44 0 79 -12t59.5 -35.5t37 -39.5t27.5 -42v111h158v-1350h-162v428q-73 -120 -205 -120q-89 0 -147 54.5t-76 141.5q-14 80 -14 318zM244 494q0 -216 13 -278q16 -84 73 -100q18 -5 41 -5q36 0 62 10.5t41.5 39.5t25 55 t13.5 84t4.5 96.5t0.5 121.5q0 134 -8 236q-8 157 -141 157q-32 0 -55 -11.5t-34.5 -24.5t-19 -37.5t-9 -34.5t-3.5 -31q-4 -51 -4 -278z" />
<glyph unicode="r" horiz-adv-x="512" d="M90 0v1024h158v-193q16 35 26.5 54.5t36 55t51.5 54.5t69 33q36 12 76 13q8 0 17 -1v-170q-30 0 -46.5 -0.5t-46 -5t-48.5 -12.5t-41.5 -25t-38.5 -41q-26 -38 -35.5 -98.5t-9.5 -198.5v-489h-168z" />
<glyph unicode="s" horiz-adv-x="641" d="M35 354h158q0 -137 12 -170q12 -32 42.5 -51.5t71.5 -19.5q50 0 83.5 33t33.5 92q0 56 -22 90t-84 88l-125 110q-37 33 -55.5 52t-42.5 51.5t-34 68.5t-10 82q0 75 23.5 129t63.5 81.5t83 39.5t93 12q130 0 194 -67q27 -29 41.5 -77t16.5 -82.5t2 -92.5h-146q0 61 -3 88 t-15 49q-26 51 -90 51q-48 0 -78.5 -28.5t-30.5 -83.5q0 -48 27.5 -82t99.5 -94l115 -99q32 -26 51.5 -45t44.5 -51.5t37 -74.5t12 -93q0 -71 -27.5 -132.5t-82.5 -98.5q-67 -47 -187 -47q-188 0 -244 133q-12 26 -18 64t-7.5 70t-2.5 105z" />
<glyph unicode="t" horiz-adv-x="468" d="M12 901v125h127v274h164v-274h150v-125h-150v-651q0 -30 2.5 -49t11 -40t29 -31.5t51.5 -10.5q26 0 58 8v-133q-46 -12 -90 -12q-168 0 -209 96q-15 35 -18 74t-3 182v567h-123z" />
<glyph unicode="u" horiz-adv-x="768" d="M90 379v645h164v-672l2 -98q0 -150 119 -150q29 0 52 9t37.5 21.5t25 35.5t15.5 40.5t7.5 48t3 47.5t0.5 48v670h162v-1024h-158v94q-18 -22 -31.5 -36t-40.5 -34.5t-63.5 -31t-81.5 -10.5q-114 0 -166 79q-30 47 -38.5 110.5t-8.5 207.5z" />
<glyph unicode="v" horiz-adv-x="641" d="M0 1024h178l135 -838l150 838h176l-233 -1024h-187z" />
<glyph unicode="w" horiz-adv-x="1067" d="M0 1024h178l109 -877l133 877h221l133 -864l121 864h172l-201 -1024h-196l-140 862l-141 -862h-199z" />
<glyph unicode="x" horiz-adv-x="681" d="M0 0l246 549l-213 475h190l111 -336l123 336h182l-213 -475l256 -549h-186l-162 406l-154 -406h-180z" />
<glyph unicode="y" horiz-adv-x="681" d="M12 1026h176l162 -825l131 825h174l-176 -893q-36 -179 -50.5 -235t-35.5 -97q-22 -43 -50.5 -71.5t-62.5 -41.5t-64 -17.5t-69 -4.5h-106v141h75t61.5 5.5t47 17.5t29.5 36t10 60q0 45 -20 125z" />
<glyph unicode="z" horiz-adv-x="598" d="M18 0v135l385 750h-333v139h505v-139l-382 -750h382v-135h-557z" />
<glyph unicode="{" d="M113 489v142q60 3 94.5 24.5t55 82.5t20.5 171v164q0 73 2.5 114t19 95.5t49.5 91.5q29 33 64.5 53.5t83 29t78.5 10.5t88 3v-137q-31 -2 -55 -5.5t-44 -11.5t-34.5 -14.5t-26 -22t-19 -26.5t-12.5 -36.5t-8 -43t-4.5 -54t-1.5 -61v-73.5q0 -48 -0.5 -74.5t-2 -66.5 t-4.5 -62.5t-9 -53.5t-15 -48.5t-22 -39t-30.5 -34t-40.5 -24t-52 -17.5v-10q43 -10 74 -28t50 -50.5t30 -60t15.5 -82.5t5.5 -90t1 -109q0 -70 0.5 -101t4 -77t11.5 -64t22 -43t37 -34t54 -17.5t76 -11.5v-137q-57 1 -88 3t-78.5 10.5t-83 29t-64.5 53.5q-26 29 -41.5 64 t-21.5 80t-7 72t-1 79v152q0 161 -35 225.5t-135 70.5z" />
<glyph unicode="|" horiz-adv-x="468" d="M152 -512v2048h163v-2048h-163z" />
<glyph unicode="}" d="M57 -213q31 2 55 5.5t44 11.5t34.5 14.5t26 22t19 26.5t12.5 36.5t8 43t4.5 54t1.5 61v73.5q0 48 0.5 74.5t2 66.5t4.5 62t9 53t15 48.5t22 39t30.5 34t40.5 24t52 18.5v10q-26 6 -47.5 15t-38.5 23t-30 27t-22 35.5t-16 38.5t-11 46.5t-6.5 50t-3.5 57.5t-1 60v67 q0 70 -0.5 101t-4 77t-11.5 64t-22 43t-37 34t-54 17.5t-76 11.5v137q57 -1 88 -3t78.5 -10.5t83 -29t64.5 -53.5q26 -29 41.5 -64t21.5 -80t7 -72t1 -79v-151q0 -163 35 -227t135 -70v-142q-60 -4 -94.5 -26t-55 -83t-20.5 -171v-162q0 -73 -2.5 -114t-19 -95.5 t-49.5 -91.5q-24 -27 -55 -45.5t-57.5 -27.5t-67.5 -14.5t-64.5 -6.5t-69.5 -2v137z" />
<glyph unicode="~" horiz-adv-x="1492" d="M254 592q24 33 42.5 55t53.5 53t79.5 47.5t96.5 16.5q37 0 76 -9.5t67.5 -21t84.5 -37.5q90 -42 132.5 -57.5t76.5 -15.5q97 0 198 127l78 -148q-56 -71 -129 -116.5t-152 -45.5q-40 0 -82.5 13.5t-119.5 50.5q-97 47 -140.5 63.5t-85.5 16.5q-29 0 -49.5 -5.5t-45 -26 t-41.5 -39.5t-58 -67z" />
<glyph unicode="&#xa1;" horiz-adv-x="425" d="M84 0v457l43 598h92l39 -598v-457h-174zM84 1206v242h174v-242h-174z" />
<glyph unicode="&#xa2;" d="M72 427v1.5v1.5q0 50 2.5 135.5t5 152t2.5 70.5q6 61 25.5 107t41 70.5t56 42t54.5 23t52 11.5v134h109v-134q36 -6 66 -17.5t52 -25t39 -34t28 -39t19 -46.5t12 -49.5t6 -55.5t2.5 -57t0.5 -61h-156v88q-1 27 -1.5 40t-4 38.5t-11.5 39t-20.5 29.5t-34 23t-50.5 7 q-27 0 -48 -7t-34 -21.5t-21.5 -27.5t-13 -34t-6 -31.5t-2.5 -28.5q-6 -105 -6 -352q0 -156 4 -189q6 -64 38 -93t82 -29q31 0 54 8.5t37 29t22 39t11.5 56t4 61.5t0.5 72h156q-1 -53 -3 -86.5t-6 -72.5t-11 -62.5t-18 -49.5t-27 -42t-39 -32t-52.5 -27t-68.5 -19v-152h-109 v152q-59 8 -100.5 24t-67.5 49.5t-41 62t-21.5 88t-7.5 98.5t-1 121z" />
<glyph unicode="&#xa3;" horiz-adv-x="937" d="M23 158q0 71 48.5 122.5t131.5 51.5q13 0 25.5 -1.5t22 -3.5t20.5 -6t17 -6.5t16 -8t13.5 -8t12.5 -8.5t10 -7q4 50 4 65q0 115 -59 277h-201v153h152q-43 117 -57.5 179t-14.5 159q0 35 2 63.5t11 66t23.5 67t41.5 60t63.5 50.5t92 32.5t124.5 12.5q67 0 119 -14.5 t85 -40t56.5 -60.5t33.5 -76.5t16.5 -88t5.5 -94t0 -95.5h-179v4q0 79 -1 115t-8.5 85t-23 68.5t-44.5 34.5t-74 15q-76 0 -119 -53t-43 -146q0 -164 84 -344h275v-153h-230q43 -163 43 -263q0 -43 -5 -77t-9.5 -46t-14.5 -40q41 -30 78 -42t56 -12q28 0 48 11.5t31.5 29.5 t18 47t8.5 57t2 66q0 62 -6 121h166q0 -17 1 -48.5t1 -51.5q0 -41 -0.5 -65t-5.5 -71t-14 -77t-27.5 -68.5t-44.5 -61t-67 -38.5t-93 -16q-111 0 -235 98q-84 -94 -201 -94q-61 0 -104.5 29t-60.5 67t-17 78zM154 170q0 -16 12.5 -28.5t40.5 -12.5q38 0 80 49q-49 35 -78 35 q-16 0 -27.5 -3.5t-16.5 -7.5t-8 -11.5t-3 -10.5v-10z" />
<glyph unicode="&#xa4;" horiz-adv-x="1366" d="M86 221l156 154q-37 58 -54 89t-34 94t-17 138q0 61 10 113t29 92.5t32.5 62.5t33.5 50l-154 153l123 123l154 -153q42 29 73.5 47t100 37.5t143.5 19.5q57 0 101.5 -7t85.5 -24.5t63.5 -31t66.5 -41.5l156 153l123 -123l-154 -153q29 -48 41.5 -69.5t30.5 -62.5 t24.5 -84t6.5 -98q0 -78 -16.5 -141.5t-33.5 -94t-55 -89.5l156 -158l-125 -121l-154 156q-60 -37 -92.5 -54.5t-93 -32.5t-135.5 -15q-72 0 -134 17t-94.5 34.5t-84.5 52.5l-156 -156zM301 702q0 -92 34 -168.5t89 -124.5t121 -74t133 -26q166 0 275.5 111t109.5 276 q0 90 -34 165t-88.5 122t-119.5 72.5t-131 25.5q-172 0 -280.5 -111.5t-108.5 -267.5z" />
<glyph unicode="&#xa5;" horiz-adv-x="811" d="M0 1446h195l211 -733l210 733h193l-254 -711h180v-119h-223q-13 -26 -15.5 -41.5t-2.5 -68.5h241v-117h-241v-389h-181v389h-239v117h239q0 53 -2.5 68.5t-15.5 41.5h-221v119h176z" />
<glyph unicode="&#xa6;" horiz-adv-x="468" d="M154 -358v716h163v-716h-163zM154 666v716h163v-716h-163z" />
<glyph unicode="&#xa7;" horiz-adv-x="854" d="M45 655q0 76 32.5 137.5t104.5 129.5q-16 17 -26 30.5t-24.5 39.5t-22 62t-7.5 81q0 51 5.5 91t25.5 86t54 76.5t96.5 51t148.5 20.5q84 0 144.5 -20.5t92.5 -49t50 -73t22 -79t4 -79.5q0 -12 -1 -38.5t-1 -41.5h-163q2 86 0 105q-7 65 -48.5 98t-105.5 33 q-154 0 -154 -162q0 -54 22.5 -91.5t96.5 -72.5q38 -19 148 -63q39 -17 57 -25.5t51.5 -26.5t50 -31t39 -35t33.5 -44.5t19 -53t8 -65.5q0 -145 -131 -276q28 -29 44.5 -53t31 -73.5t14.5 -113.5q0 -69 -15 -124t-36.5 -90t-56 -60.5t-64 -38t-69.5 -20t-63.5 -8.5t-54.5 -1 q-203 0 -284 125q-32 51 -39.5 108t-7.5 183h178q-2 -32 -0.5 -64t4.5 -61t14.5 -53.5t29 -42.5t48.5 -28.5t74 -10.5q78 0 121 44t43 134q0 63 -25 102.5t-74 69.5q-65 32 -235 106q-34 16 -52.5 25.5t-50.5 33t-50 47.5t-32 63.5t-14 86.5zM186 707q0 -26 10 -49 t22.5 -37.5t35.5 -30.5t35.5 -22.5t36.5 -18.5q181 -78 249 -115q78 74 78 154q0 37 -12.5 64t-44.5 49t-61.5 36t-88.5 37q-76 30 -180 78q-80 -70 -80 -145z" />
<glyph unicode="&#xa8;" horiz-adv-x="468" d="M-4 1153v211h160v-211h-160zM313 1153v211h160v-211h-160z" />
<glyph unicode="&#xa9;" horiz-adv-x="1705" d="M125 725q0 202 98 369.5t265 262.5t364 95q153 0 288.5 -56.5t232 -154t152.5 -233t56 -287.5q0 -145 -55 -278t-150.5 -232t-232 -158t-291.5 -59q-143 0 -275.5 54t-232.5 148.5t-159.5 232.5t-59.5 296zM190 725q0 -140 53.5 -264.5t143.5 -212t212 -138.5t255 -51 q184 0 336.5 89t239 241t86.5 332q0 183 -85.5 335.5t-237.5 241t-337 88.5t-338.5 -90t-240.5 -241.5t-87 -329.5zM383 721q0 215 138.5 353t344.5 138q79 0 144 -17.5t114 -51t73.5 -56t57.5 -59.5l-114 -108q-33 34 -53 52t-55 41.5t-75.5 34.5t-89.5 11 q-131 0 -228 -90.5t-97 -245.5q0 -146 96 -237t229 -91q54 0 99 12.5t80 37t52 40.5t42 43l114 -100q-157 -186 -385 -186q-146 0 -258.5 66.5t-170.5 175t-58 237.5z" />
<glyph unicode="&#xaa;" horiz-adv-x="468" d="M29 965q0 40 9.5 70.5t32 55.5t40 39t53.5 39q73 50 117 84q-1 22 -1.5 32t-4 26t-9.5 23t-18 12.5t-29 5.5q-21 0 -34 -7t-18 -21.5t-6 -25t-1 -28.5q0 -33 2 -51h-111v65q0 23 1 38t10.5 43.5t26.5 46t52.5 32t85.5 14.5q36 0 64.5 -8t46.5 -19t30.5 -31.5t19 -36 t9.5 -43t3.5 -42.5t0.5 -43v-317q0 -39 8.5 -62.5t34.5 -52.5h-155v43q-42 -51 -113 -51q-69 0 -108 48.5t-39 121.5zM152 963q0 -41 26.5 -60t57.5 -4q18 10 26 18.5t14 34.5t7.5 65t1.5 116q-91 -69 -112 -95t-21 -75z" />
<glyph unicode="&#xab;" d="M45 487v177l287 319v-238l-152 -170l152 -169v-242zM377 487v177l287 319v-238l-152 -170l152 -169v-242z" />
<glyph unicode="&#xac;" horiz-adv-x="1366" d="M0 516v162h1366v-678h-164v516h-1202z" />
<glyph unicode="&#xad;" horiz-adv-x="555" d="M41 473v160h471v-160h-471z" />
<glyph unicode="&#xae;" horiz-adv-x="1705" d="M125 723q0 154 59 290.5t157.5 232t232 151t278.5 55.5q151 0 286.5 -56.5t233 -153.5t154.5 -232.5t57 -288.5q0 -144 -55 -277t-150.5 -232.5t-233 -158.5t-292.5 -59q-141 0 -273 54t-232.5 148t-161 231.5t-60.5 295.5zM190 723q0 -184 89.5 -337t242 -240t332.5 -87 q140 0 264.5 54t211.5 144t137.5 211.5t50.5 252.5q0 183 -86 335t-239 241t-341 89q-133 0 -255 -51.5t-211.5 -139.5t-142.5 -211.5t-53 -260.5zM545 268v920h299q152 0 215 -23q71 -25 109 -84.5t38 -128.5q0 -22 -3.5 -43t-15.5 -48.5t-31.5 -50t-55 -43t-82.5 -32.5 q64 -27 91 -69.5t40 -122.5q15 -107 28 -162.5t42 -112.5h-187q-17 34 -25 65.5t-20 110.5q-3 16 -4 25q-7 42 -11 65.5t-12.5 49.5t-15.5 38.5t-23 26t-32 18t-44.5 9t-58.5 5.5t-77 1v-414h-164zM711 813h135q24 0 38.5 0.5t41.5 4t44 11.5t35.5 21.5t27.5 36.5t9 53 q0 78 -65 109q-23 8 -51.5 10t-110.5 2h-104v-248z" />
<glyph unicode="&#xaf;" horiz-adv-x="468" d="M12 1178v131h443v-131h-443z" />
<glyph unicode="&#xb0;" d="M31 1217q0 136 97 232.5t234 96.5q136 0 233 -97t97 -232q0 -137 -97 -233.5t-233 -96.5q-138 0 -234.5 96.5t-96.5 233.5zM201 1221q0 -68 47 -115t114 -47q68 0 115 47.5t47 114.5t-48 114t-114 47q-67 0 -114 -46.5t-47 -114.5z" />
<glyph unicode="&#xb1;" horiz-adv-x="1024" d="M63 0v162h898v-162h-898zM63 700v162h371v367h162v-367h365v-162h-365v-370h-162v370h-371z" />
<glyph unicode="&#xb2;" horiz-adv-x="512" d="M45 543v123l182 309q61 102 75.5 141t14.5 109q0 49 -13.5 76.5t-53.5 27.5q-23 0 -37.5 -9t-20.5 -28t-7 -32.5t-1 -38.5v-115h-129v123q0 229 193 229q41 0 74 -12t53.5 -29t35.5 -42.5t22 -46.5t11 -47.5t4.5 -38t0.5 -25.5q0 -136 -82 -271l-172 -280h264v-123h-414z " />
<glyph unicode="&#xb3;" horiz-adv-x="512" d="M41 834h129q-2 -47 -1 -81t7 -55.5t22 -32t44 -10.5q20 0 33.5 3.5t22.5 15t14 21.5t7 35t2.5 42.5t0.5 56.5q0 67 -19 96t-80 29q-7 0 -24.5 -1t-24.5 -1v129q12 -2 41 -2q50 0 73 22.5t23 92.5q0 38 -0.5 52.5t-3.5 36.5t-9.5 29.5t-19 14t-32.5 6.5q-41 0 -53 -37.5 t-7 -126.5h-129q-2 35 0 70t5.5 67.5t16.5 60t33 48t55 32t83 11.5q194 0 194 -241q0 -68 -7.5 -105t-19.5 -53t-40 -37q33 -19 47.5 -37t24.5 -69t10 -148q0 -15 -0.5 -26.5t-4.5 -38t-11.5 -47t-23 -45.5t-36.5 -41.5t-55.5 -28t-77.5 -11.5q-56 0 -102.5 19t-71.5 53 q-24 33 -29.5 69t-5.5 163z" />
<glyph unicode="&#xb4;" horiz-adv-x="468" d="M68 1153l108 221h223l-200 -221h-131z" />
<glyph unicode="&#xb5;" horiz-adv-x="768" d="M90 -326v1350h164v-709q0 -33 0.5 -50t3.5 -46.5t11 -46t20.5 -34.5t34.5 -26t51 -8t52 9t37.5 21.5t25 35.5t15.5 40.5t7.5 48t3 47.5t0.5 48v670h162v-1024h-158v94q-16 -26 -24.5 -37.5t-28.5 -33t-45 -31.5t-55 -10q-29 0 -52.5 9t-34.5 18t-26 26v-361h-164z" />
<glyph unicode="&#xb6;" horiz-adv-x="1366" d="M178 1036q0 27 3 55.5t15 70t30.5 79t53.5 76t81.5 66.5t116.5 45.5t155 17.5h471v-111h-70v-1675h-119v1675h-294v-1675h-119v993q-50 10 -78.5 18t-67.5 30.5t-73 58.5q-105 108 -105 276z" />
<glyph unicode="&#xb7;" horiz-adv-x="342" d="M84 428v242h174v-242h-174z" />
<glyph unicode="&#xb8;" horiz-adv-x="468" d="M43 -406l25 52q67 -29 112 -29q52 0 84.5 31t32.5 65q0 35 -23 59.5t-59 24.5q-23 0 -59 -26q-5 2 -41 14l78 223h53l-53 -160q57 21 92 21q57 0 98 -36t41 -95q0 -72 -61 -127t-162 -55q-71 0 -158 38z" />
<glyph unicode="&#xb9;" horiz-adv-x="512" d="M51 1229v110q40 0 61.5 1.5t44.5 7t33.5 17t17.5 31.5t7 50h121v-903h-139v686h-146z" />
<glyph unicode="&#xba;" horiz-adv-x="468" d="M47 1135v55.5t1.5 50.5t4 48t6.5 41.5t11 38t17 30t24 26t31.5 17.5t40 12.5t50.5 3.5q56 0 93 -17t56.5 -38.5t29 -71.5t11 -86t1.5 -110q0 -81 -1.5 -118.5t-10.5 -90.5t-28 -75.5t-55 -40t-91 -17.5q-154 0 -181 122q-10 42 -10 220zM178 1137q0 -164 8.5 -203 t49.5 -39q22 0 34.5 14t16 29t4.5 37q2 27 2 162q0 142 -9 178.5t-48 36.5q-49 0 -56 -58q-2 -29 -2 -157z" />
<glyph unicode="&#xbb;" d="M61 164v242l152 169l-152 170v238l287 -319v-177zM393 164v242l152 169l-152 170v238l287 -319v-177z" />
<glyph unicode="&#xbc;" horiz-adv-x="1280" d="M51 1229v110q40 0 61.5 1.5t44.5 7t33.5 17t17.5 31.5t7 50h121v-903h-139v686h-146zM238 0l712 1446h92l-706 -1446h-98zM805 197v137l182 569h176v-586h78v-120h-78v-197h-131v197h-227zM922 317h110l4 377z" />
<glyph unicode="&#xbd;" horiz-adv-x="1280" d="M51 1229v110q40 0 61.5 1.5t44.5 7t33.5 17t17.5 31.5t7 50h121v-903h-139v686h-146zM209 0l713 1446h92l-705 -1446h-100zM813 0v123l182 309q61 102 75.5 141t14.5 109q0 49 -13.5 76.5t-53.5 27.5q-23 0 -37.5 -9t-20.5 -28t-7 -32.5t-1 -38.5v-115h-129v123 q0 229 193 229q41 0 74 -12t53.5 -29t35.5 -42.5t22 -46.5t11 -47.5t4.5 -38t0.5 -25.5q0 -136 -82 -271l-172 -280h264v-123h-414z" />
<glyph unicode="&#xbe;" horiz-adv-x="1280" d="M41 834h129q-2 -47 -1 -81t7 -55.5t22 -32t44 -10.5q20 0 33.5 3.5t22.5 15t14 21.5t7 35t2.5 42.5t0.5 56.5q0 67 -19 96t-80 29q-7 0 -24.5 -1t-24.5 -1v129q12 -2 41 -2q50 0 73 22.5t23 92.5q0 38 -0.5 52.5t-3.5 36.5t-9.5 29.5t-19 14t-32.5 6.5q-41 0 -53 -37.5 t-7 -126.5h-129q-2 35 0 70t5.5 67.5t16.5 60t33 48t55 32t83 11.5q194 0 194 -241q0 -68 -7.5 -105t-19.5 -53t-40 -37q33 -19 47.5 -37t24.5 -69t10 -148q0 -15 -0.5 -26.5t-4.5 -38t-11.5 -47t-23 -45.5t-36.5 -41.5t-55.5 -28t-77.5 -11.5q-56 0 -102.5 19t-71.5 53 q-24 33 -29.5 69t-5.5 163zM270 0l713 1446h94l-706 -1446h-101zM805 197v137l182 569h176v-586h78v-120h-78v-197h-131v197h-227zM922 317h110l4 375z" />
<glyph unicode="&#xbf;" horiz-adv-x="811" d="M72 319q0 114 10.5 168t36.5 101q38 69 106 170q48 77 57 121t7 182h135q0 -134 -1 -163t-7 -58q-2 -14 -7 -29.5t-13 -34t-14 -33t-18 -37.5t-18 -35t-19.5 -37.5t-17.5 -33.5q-43 -80 -53 -126t-10 -189q0 -66 43 -104t106 -38q39 0 66 12t40.5 28t21 42t8.5 42.5 t1 41.5v185h160v-205q0 -89 -19 -146t-71 -96q-85 -67 -213 -67q-81 0 -148.5 30t-107.5 78q-28 36 -42.5 83.5t-16.5 75.5t-2 72zM268 1206v242h174v-242h-174z" />
<glyph unicode="&#xc0;" horiz-adv-x="811" d="M0 0l311 1446h181l319 -1446h-188l-52 279h-335l-50 -279h-186zM166 1808h223l109 -221h-131zM266 434h275l-142 744z" />
<glyph unicode="&#xc1;" horiz-adv-x="811" d="M0 0l311 1446h181l319 -1446h-188l-52 279h-335l-50 -279h-186zM266 434h275l-142 744zM315 1587l109 221h223l-201 -221h-131z" />
<glyph unicode="&#xc2;" horiz-adv-x="811" d="M0 0l311 1446h181l319 -1446h-188l-52 279h-335l-50 -279h-186zM143 1583l207 225h133l203 -225h-180l-109 129l-116 -129h-138zM266 434h275l-142 744z" />
<glyph unicode="&#xc3;" horiz-adv-x="811" d="M0 0l311 1446h181l319 -1446h-188l-52 279h-335l-50 -279h-186zM150 1599q4 96 51 140.5t104 44.5q26 0 50.5 -7t129.5 -44q35 -13 54 -13q14 0 24 4.5t15 10t8.5 16.5t4 16.5l1.5 16.5h74q-3 -54 -20 -93t-41.5 -57.5t-47.5 -26.5t-45 -8q-28 0 -100 25q-4 2 -7 2.5 t-7.5 2.5t-8.5 3q-82 31 -108 31q-53 0 -58 -64h-73zM266 434h275l-142 744z" />
<glyph unicode="&#xc4;" horiz-adv-x="811" d="M0 0l311 1446h181l319 -1446h-188l-52 279h-335l-50 -279h-186zM137 1589v217h170v-217h-170zM266 434h275l-142 744zM502 1589v217h170v-217h-170z" />
<glyph unicode="&#xc5;" horiz-adv-x="811" d="M0 0l311 1446h181l319 -1446h-188l-52 279h-335l-50 -279h-186zM242 1681q0 67 48 115.5t116 48.5t116.5 -47.5t48.5 -116.5t-48.5 -117t-116.5 -48q-69 0 -116.5 48.5t-47.5 116.5zM266 434h275l-142 744zM332 1681q0 -30 22 -51.5t54 -21.5q30 0 51.5 21.5t21.5 51.5 q0 33 -21.5 54.5t-51.5 21.5q-31 0 -53.5 -21.5t-22.5 -54.5z" />
<glyph unicode="&#xc6;" horiz-adv-x="1280" d="M0 0l510 1446h704v-162h-428v-430h367v-164h-367v-528h453v-162h-631v315h-313l-107 -315h-188zM348 473h260v791z" />
<glyph unicode="&#xc7;" horiz-adv-x="854" d="M90 705q0 183 2 285t5 135t9 71q4 22 7.5 35.5t15 45t25.5 53.5t41.5 50t61 45.5t84.5 30t112 12.5q48 0 93 -10.5t88.5 -33.5t76 -65t45.5 -99q17 -76 14 -271h-168v111q0 32 -1 51t-5 48t-13.5 47t-25.5 36t-42.5 26.5t-61.5 8.5q-44 0 -76.5 -14.5t-49 -31.5 t-27.5 -46.5t-13.5 -45t-5.5 -40.5q-13 -113 -13 -434q0 -90 4 -245.5t9 -193.5l6 -25.5t14.5 -33t28.5 -39t47.5 -27t71.5 -12.5q36 0 64.5 12.5t43 27t26 39t13.5 33.5l6 27q8 47 8 240h168q0 -178 -6.5 -249.5t-34.5 -131.5q-25 -52 -69.5 -86t-94 -45t-80 -14t-57.5 -2 l-41 -119q54 20 92 20q57 0 98.5 -36t41.5 -95q0 -72 -61.5 -127t-162.5 -55q-33 0 -65.5 7t-46.5 12.5t-45 19.5q3 7 12 25.5t12 25.5q67 -29 113 -29q52 0 84.5 31.5t32.5 65.5q0 35 -22.5 59.5t-57.5 24.5q-24 0 -62 -27q-5 2 -41 14l62 183q-31 6 -51.5 11t-62 23.5 t-69 44.5t-55 74t-37.5 111q-14 96 -14 461z" />
<glyph unicode="&#xc8;" horiz-adv-x="811" d="M102 0v1446h635v-162h-454v-430h399v-164h-399v-528h471v-162h-652zM166 1808h223l109 -221h-131z" />
<glyph unicode="&#xc9;" horiz-adv-x="811" d="M102 0v1446h635v-162h-454v-430h399v-164h-399v-528h471v-162h-652zM315 1587l109 221h223l-201 -221h-131z" />
<glyph unicode="&#xca;" horiz-adv-x="811" d="M102 0v1446h635v-162h-454v-430h399v-164h-399v-528h471v-162h-652zM133 1583l207 225h133l203 -225h-180l-109 129l-117 -129h-137z" />
<glyph unicode="&#xcb;" horiz-adv-x="811" d="M102 0v1446h635v-162h-454v-430h399v-164h-399v-528h471v-162h-652zM139 1589v217h170v-217h-170zM504 1589v217h170v-217h-170z" />
<glyph unicode="&#xcc;" horiz-adv-x="382" d="M-47 1808h223l109 -221h-131zM102 0v1446h179v-1446h-179z" />
<glyph unicode="&#xcd;" horiz-adv-x="382" d="M102 0v1446h179v-1446h-179zM102 1587l109 221h223l-201 -221h-131z" />
<glyph unicode="&#xce;" horiz-adv-x="382" d="M-80 1583l207 225h133l203 -225h-180l-109 129l-117 -129h-137zM102 0v1446h179v-1446h-179z" />
<glyph unicode="&#xcf;" horiz-adv-x="382" d="M-74 1589v217h170v-217h-170zM102 0v1446h179v-1446h-179zM291 1589v217h170v-217h-170z" />
<glyph unicode="&#xd0;" horiz-adv-x="894" d="M2 727v131h100v588h273q55 0 83.5 -1t75.5 -6.5t76.5 -16t63.5 -32t59 -53.5q51 -62 61.5 -150.5t10.5 -365.5v-235q0 -195 -3.5 -257.5t-17.5 -111.5q-12 -40 -28.5 -71.5t-39.5 -54t-44.5 -38.5t-54.5 -26t-56.5 -15.5t-63 -8t-61.5 -3t-65 -0.5h-269v727h-100z M283 160h88q42 0 68.5 0.5t54.5 6.5t43.5 10.5t32 21.5t24.5 30.5t16 47t10.5 60.5t5.5 81.5t3 100.5v126q0 343 -6 434q-3 52 -8.5 85t-25.5 56.5t-36 34.5t-64.5 17.5t-84.5 7t-121 0.5v-422h180v-131h-180v-567z" />
<glyph unicode="&#xd1;" horiz-adv-x="894" d="M104 0v1448h246l293 -1268l-25 1268h175v-1448h-254l-283 1253l25 -1253h-177zM193 1599q4 96 51 140.5t104 44.5q26 0 50.5 -7t129.5 -44q35 -13 54 -13q14 0 24 4.5t15 10t8.5 16.5t4 16.5l1.5 16.5h74q-3 -54 -20 -93t-41.5 -57.5t-47.5 -26.5t-45 -8q-28 0 -100 25 q-4 2 -7 2.5t-7.5 2.5t-8.5 3q-82 31 -108 31q-53 0 -58 -64h-73z" />
<glyph unicode="&#xd2;" horiz-adv-x="894" d="M90 674q0 343 10 473q2 22 4.5 41.5t12.5 54t25 62.5t42.5 59.5t64 53t92 36t122.5 14.5q62 0 113 -13.5t84 -32.5t58.5 -49.5t38.5 -55t22.5 -59t12 -51.5t5.5 -42q8 -82 8 -422q0 -169 -12 -387q-3 -62 -11.5 -109.5t-32 -100.5t-60 -87t-101 -56.5t-150.5 -22.5 q-120 0 -194 40q-114 61 -140 216q-14 86 -14 438zM209 1808h223l109 -221h-131zM274 643q0 -100 2 -192q0 -16 0.5 -47t1 -50t2 -48t6.5 -47t12.5 -41t20 -37t30 -27t42 -19t55.5 -6q25 0 46 5.5t36.5 12.5t28 21t20.5 25t14 31.5t9.5 32t6 35.5t3 33t2.5 33q14 211 11 385 q-1 57 -2.5 170.5t-2.5 169.5q-1 33 -2 49.5t-5.5 50t-15 52.5t-28 40.5t-46.5 31.5t-68 10q-34 0 -61 -9.5t-44.5 -22.5t-30.5 -36.5t-19.5 -40.5t-11 -45.5t-5.5 -40.5t-2 -37q-5 -90 -5 -442z" />
<glyph unicode="&#xd3;" horiz-adv-x="894" d="M90 674q0 343 10 473q2 22 4.5 41.5t12.5 54t25 62.5t42.5 59.5t64 53t92 36t122.5 14.5q62 0 113 -13.5t84 -32.5t58.5 -49.5t38.5 -55t22.5 -59t12 -51.5t5.5 -42q8 -82 8 -422q0 -169 -12 -387q-3 -62 -11.5 -109.5t-32 -100.5t-60 -87t-101 -56.5t-150.5 -22.5 q-120 0 -194 40q-114 61 -140 216q-14 86 -14 438zM274 643q0 -100 2 -192q0 -16 0.5 -47t1 -50t2 -48t6.5 -47t12.5 -41t20 -37t30 -27t42 -19t55.5 -6q25 0 46 5.5t36.5 12.5t28 21t20.5 25t14 31.5t9.5 32t6 35.5t3 33t2.5 33q14 211 11 385q-1 57 -2.5 170.5t-2.5 169.5 q-1 33 -2 49.5t-5.5 50t-15 52.5t-28 40.5t-46.5 31.5t-68 10q-34 0 -61 -9.5t-44.5 -22.5t-30.5 -36.5t-19.5 -40.5t-11 -45.5t-5.5 -40.5t-2 -37q-5 -90 -5 -442zM358 1587l109 221h223l-201 -221h-131z" />
<glyph unicode="&#xd4;" horiz-adv-x="894" d="M90 674q0 343 10 473q2 22 4.5 41.5t12.5 54t25 62.5t42.5 59.5t64 53t92 36t122.5 14.5q62 0 113 -13.5t84 -32.5t58.5 -49.5t38.5 -55t22.5 -59t12 -51.5t5.5 -42q8 -82 8 -422q0 -169 -12 -387q-3 -62 -11.5 -109.5t-32 -100.5t-60 -87t-101 -56.5t-150.5 -22.5 q-120 0 -194 40q-114 61 -140 216q-14 86 -14 438zM176 1583l207 225h133l203 -225h-180l-109 129l-117 -129h-137zM274 643q0 -100 2 -192q0 -16 0.5 -47t1 -50t2 -48t6.5 -47t12.5 -41t20 -37t30 -27t42 -19t55.5 -6q25 0 46 5.5t36.5 12.5t28 21t20.5 25t14 31.5t9.5 32 t6 35.5t3 33t2.5 33q14 211 11 385q-1 57 -2.5 170.5t-2.5 169.5q-1 33 -2 49.5t-5.5 50t-15 52.5t-28 40.5t-46.5 31.5t-68 10q-34 0 -61 -9.5t-44.5 -22.5t-30.5 -36.5t-19.5 -40.5t-11 -45.5t-5.5 -40.5t-2 -37q-5 -90 -5 -442z" />
<glyph unicode="&#xd5;" horiz-adv-x="894" d="M90 674q0 343 10 473q2 22 4.5 41.5t12.5 54t25 62.5t42.5 59.5t64 53t92 36t122.5 14.5q62 0 113 -13.5t84 -32.5t58.5 -49.5t38.5 -55t22.5 -59t12 -51.5t5.5 -42q8 -82 8 -422q0 -169 -12 -387q-3 -62 -11.5 -109.5t-32 -100.5t-60 -87t-101 -56.5t-150.5 -22.5 q-120 0 -194 40q-114 61 -140 216q-14 86 -14 438zM193 1599q4 96 51 140.5t104 44.5q26 0 50.5 -7t129.5 -44q35 -13 54 -13q14 0 24 4.5t15 10t8.5 16.5t4 16.5l1.5 16.5h74q-3 -54 -20 -93t-41.5 -57.5t-47.5 -26.5t-45 -8q-28 0 -100 25q-4 2 -7 2.5t-7.5 2.5t-8.5 3 q-82 31 -108 31q-53 0 -58 -64h-73zM274 643q0 -100 2 -192q0 -16 0.5 -47t1 -50t2 -48t6.5 -47t12.5 -41t20 -37t30 -27t42 -19t55.5 -6q25 0 46 5.5t36.5 12.5t28 21t20.5 25t14 31.5t9.5 32t6 35.5t3 33t2.5 33q14 211 11 385q-1 57 -2.5 170.5t-2.5 169.5q-1 33 -2 49.5 t-5.5 50t-15 52.5t-28 40.5t-46.5 31.5t-68 10q-34 0 -61 -9.5t-44.5 -22.5t-30.5 -36.5t-19.5 -40.5t-11 -45.5t-5.5 -40.5t-2 -37q-5 -90 -5 -442z" />
<glyph unicode="&#xd6;" horiz-adv-x="894" d="M90 674q0 343 10 473q2 22 4.5 41.5t12.5 54t25 62.5t42.5 59.5t64 53t92 36t122.5 14.5q62 0 113 -13.5t84 -32.5t58.5 -49.5t38.5 -55t22.5 -59t12 -51.5t5.5 -42q8 -82 8 -422q0 -169 -12 -387q-3 -62 -11.5 -109.5t-32 -100.5t-60 -87t-101 -56.5t-150.5 -22.5 q-120 0 -194 40q-114 61 -140 216q-14 86 -14 438zM180 1589v217h170v-217h-170zM274 643q0 -100 2 -192q0 -16 0.5 -47t1 -50t2 -48t6.5 -47t12.5 -41t20 -37t30 -27t42 -19t55.5 -6q25 0 46 5.5t36.5 12.5t28 21t20.5 25t14 31.5t9.5 32t6 35.5t3 33t2.5 33q14 211 11 385 q-1 57 -2.5 170.5t-2.5 169.5q-1 33 -2 49.5t-5.5 50t-15 52.5t-28 40.5t-46.5 31.5t-68 10q-34 0 -61 -9.5t-44.5 -22.5t-30.5 -36.5t-19.5 -40.5t-11 -45.5t-5.5 -40.5t-2 -37q-5 -90 -5 -442zM545 1589v217h170v-217h-170z" />
<glyph unicode="&#xd7;" horiz-adv-x="1024" d="M88 289l311 311l-311 307l115 113l311 -307l307 307l115 -113l-307 -307l307 -311l-115 -115l-307 307l-311 -307z" />
<glyph unicode="&#xd8;" horiz-adv-x="894" d="M39 43l74 150q-23 135 -23 411q0 61 0.5 129t1.5 123t2 100.5t1.5 73t0.5 29.5q1 29 2 48.5t5.5 54.5t11.5 60.5t20.5 59.5t31 58.5t45.5 50t62 41.5t81.5 26t103.5 10q156 0 252 -82l39 78l75 -39l-59 -114q29 -69 37 -155t8 -339q0 -72 -4 -236.5t-8 -222.5 q-5 -64 -14.5 -112t-33.5 -100.5t-61 -86.5t-101 -56.5t-149 -22.5q-80 0 -139.5 18.5t-86 39t-56.5 54.5l-45 -92zM274 518l340 674q-4 18 -8 29t-16 31.5t-27 32.5t-43.5 22t-64.5 10q-87 0 -136 -64q-26 -37 -33.5 -90.5t-9.5 -161.5q-1 -35 -1 -240t-1 -243zM276 336 q1 -27 3 -46.5t12 -53t27 -55t51.5 -38t81.5 -16.5q32 0 58 9t42.5 21t28.5 34.5t18.5 39t10.5 45t5 42t2 40.5q15 340 9 670z" />
<glyph unicode="&#xd9;" horiz-adv-x="894" d="M96 459v987h183v-1055q0 -36 0.5 -54.5t3.5 -50.5t9.5 -49t19 -39.5t31 -34t46.5 -20t64 -8.5q45 0 76.5 13t47 28.5t24.5 44t10.5 45t2.5 45.5q2 57 2 176v959h183v-975q0 -146 -6 -209t-29 -115q-72 -167 -315 -167q-248 0 -320 157q-22 47 -27.5 103t-5.5 219z M209 1808h223l109 -221h-131z" />
<glyph unicode="&#xda;" horiz-adv-x="894" d="M96 459v987h183v-1055q0 -36 0.5 -54.5t3.5 -50.5t9.5 -49t19 -39.5t31 -34t46.5 -20t64 -8.5q45 0 76.5 13t47 28.5t24.5 44t10.5 45t2.5 45.5q2 57 2 176v959h183v-975q0 -146 -6 -209t-29 -115q-72 -167 -315 -167q-248 0 -320 157q-22 47 -27.5 103t-5.5 219z M358 1587l109 221h223l-201 -221h-131z" />
<glyph unicode="&#xdb;" horiz-adv-x="894" d="M96 459v987h183v-1055q0 -36 0.5 -54.5t3.5 -50.5t9.5 -49t19 -39.5t31 -34t46.5 -20t64 -8.5q45 0 76.5 13t47 28.5t24.5 44t10.5 45t2.5 45.5q2 57 2 176v959h183v-975q0 -146 -6 -209t-29 -115q-72 -167 -315 -167q-248 0 -320 157q-22 47 -27.5 103t-5.5 219z M176 1583l207 225h133l203 -225h-180l-109 129l-117 -129h-137z" />
<glyph unicode="&#xdc;" horiz-adv-x="894" d="M96 459v987h183v-1055q0 -36 0.5 -54.5t3.5 -50.5t9.5 -49t19 -39.5t31 -34t46.5 -20t64 -8.5q45 0 76.5 13t47 28.5t24.5 44t10.5 45t2.5 45.5q2 57 2 176v959h183v-975q0 -146 -6 -209t-29 -115q-72 -167 -315 -167q-248 0 -320 157q-22 47 -27.5 103t-5.5 219z M180 1589v217h170v-217h-170zM545 1589v217h170v-217h-170z" />
<glyph unicode="&#xdd;" horiz-adv-x="811" d="M0 1446h193l213 -723l215 723h190l-317 -879v-567h-187v567zM336 1587l108 221h224l-201 -221h-131z" />
<glyph unicode="&#xde;" horiz-adv-x="854" d="M104 0v1448h179v-242h116q97 0 158 -9t107 -38q28 -17 50 -40.5t36 -46t24 -55.5t14.5 -57t7 -64.5t3 -63t0.5 -66.5q0 -261 -103 -348q-55 -46 -128 -56t-285 -10v-352h-179zM283 512h120q39 0 68 2.5t52 9.5t38.5 15.5t26.5 24.5t17.5 32t10 42t4.5 51t1 63 q0 77 -2 121.5t-19.5 80.5t-31.5 50.5t-63.5 24t-87.5 10.5t-131 1h-3v-528z" />
<glyph unicode="&#xdf;" horiz-adv-x="811" d="M90 0v1053q0 107 3 152.5t16 84.5q15 48 47 82t73 50t78 23t74 7q60 0 108 -13t78.5 -32t52 -49.5t31.5 -55t16 -60.5t6.5 -53.5t0.5 -45.5q0 -52 -11.5 -91t-26 -60t-41 -37.5t-42.5 -22t-45 -12.5q56 -13 91.5 -32.5t59.5 -46.5t35.5 -74t16 -101.5t4.5 -143.5 q0 -197 -10.5 -272.5t-40.5 -130.5q-72 -125 -236 -125q-32 0 -82 8v139q33 -10 68 -10q20 0 36 3t29 11t22.5 15t16.5 24t12 28.5t8.5 36.5t5 40.5t2.5 48.5t1 52.5v60.5q0 105 -2.5 163t-11 108.5t-26 72.5t-45 33.5t-71.5 11.5q-31 0 -45 -2v147q40 -1 63 0.5t46 9 t34 24.5t18 47t7 75q0 36 -4 62t-16 54t-40 43t-71 15q-105 0 -123 -92q-4 -25 -4 -168v-1055h-166z" />
<glyph unicode="&#xe0;" d="M41 244q0 60 10.5 104t37 78.5t51.5 56t73 54.5q123 82 159.5 109t98.5 85q0 34 -1 52t-7.5 46.5t-18.5 43.5t-37 26.5t-61 11.5q-35 0 -60 -10.5t-37 -23t-18 -36t-7 -38t-1 -39.5q0 -30 4 -76h-149q-6 140 14 205q51 149 270 149q137 0 207 -75q44 -46 54 -94.5 t10 -165.5v-490q0 -119 8 -155t41 -62h-201v123q-10 -20 -17.5 -32.5t-26.5 -35.5t-39.5 -37t-54 -25t-73.5 -11q-70 0 -123 30q-64 38 -85 97.5t-21 134.5zM137 1374h223l109 -221h-133zM207 254q0 -21 0.5 -34t6.5 -38t16.5 -40t32.5 -27.5t54 -12.5q47 0 89 31 q40 31 52.5 77.5t12.5 119.5v254q-52 -50 -135 -111q-35 -27 -52.5 -42.5t-38.5 -42.5t-29.5 -59t-8.5 -75z" />
<glyph unicode="&#xe1;" d="M41 244q0 60 10.5 104t37 78.5t51.5 56t73 54.5q123 82 159.5 109t98.5 85q0 34 -1 52t-7.5 46.5t-18.5 43.5t-37 26.5t-61 11.5q-35 0 -60 -10.5t-37 -23t-18 -36t-7 -38t-1 -39.5q0 -30 4 -76h-149q-6 140 14 205q51 149 270 149q137 0 207 -75q44 -46 54 -94.5 t10 -165.5v-490q0 -119 8 -155t41 -62h-201v123q-10 -20 -17.5 -32.5t-26.5 -35.5t-39.5 -37t-54 -25t-73.5 -11q-70 0 -123 30q-64 38 -85 97.5t-21 134.5zM207 254q0 -21 0.5 -34t6.5 -38t16.5 -40t32.5 -27.5t54 -12.5q47 0 89 31q40 31 52.5 77.5t12.5 119.5v254 q-52 -50 -135 -111q-35 -27 -52.5 -42.5t-38.5 -42.5t-29.5 -59t-8.5 -75zM275 1153l108 221h223l-200 -221h-131z" />
<glyph unicode="&#xe2;" d="M41 244q0 60 10.5 104t37 78.5t51.5 56t73 54.5q123 82 159.5 109t98.5 85q0 34 -1 52t-7.5 46.5t-18.5 43.5t-37 26.5t-61 11.5q-35 0 -60 -10.5t-37 -23t-18 -36t-7 -38t-1 -39.5q0 -30 4 -76h-149q-6 140 14 205q51 149 270 149q137 0 207 -75q44 -46 54 -94.5 t10 -165.5v-490q0 -119 8 -155t41 -62h-201v123q-10 -20 -17.5 -32.5t-26.5 -35.5t-39.5 -37t-54 -25t-73.5 -11q-70 0 -123 30q-64 38 -85 97.5t-21 134.5zM102 1153l207 225h135l201 -225h-178l-111 129l-116 -129h-138zM207 254q0 -21 0.5 -34t6.5 -38t16.5 -40 t32.5 -27.5t54 -12.5q47 0 89 31q40 31 52.5 77.5t12.5 119.5v254q-52 -50 -135 -111q-35 -27 -52.5 -42.5t-38.5 -42.5t-29.5 -59t-8.5 -75z" />
<glyph unicode="&#xe3;" d="M41 244q0 60 10.5 104t37 78.5t51.5 56t73 54.5q123 82 159.5 109t98.5 85q0 34 -1 52t-7.5 46.5t-18.5 43.5t-37 26.5t-61 11.5q-35 0 -60 -10.5t-37 -23t-18 -36t-7 -38t-1 -39.5q0 -30 4 -76h-149q-6 140 14 205q51 149 270 149q137 0 207 -75q44 -46 54 -94.5 t10 -165.5v-490q0 -119 8 -155t41 -62h-201v123q-10 -20 -17.5 -32.5t-26.5 -35.5t-39.5 -37t-54 -25t-73.5 -11q-70 0 -123 30q-64 38 -85 97.5t-21 134.5zM109 1165q4 96 51 140.5t104 44.5h11t12 -1.5t11.5 -2t14 -3.5t15.5 -5t20.5 -7t24.5 -8.5t32 -11t39 -13.5 q32 -12 54 -12q14 0 24 4.5t15 10t8.5 16.5t4 16.5l1.5 16.5h74q-3 -54 -20 -93t-41.5 -57.5t-47.5 -26.5t-45 -8q-28 0 -100 25q-4 2 -7 2.5t-7.5 2.5t-8.5 3q-82 31 -108 31q-53 0 -58 -64h-73zM207 254q0 -21 0.5 -34t6.5 -38t16.5 -40t32.5 -27.5t54 -12.5q47 0 89 31 q40 31 52.5 77.5t12.5 119.5v254q-52 -50 -135 -111q-35 -27 -52.5 -42.5t-38.5 -42.5t-29.5 -59t-8.5 -75z" />
<glyph unicode="&#xe4;" d="M41 244q0 60 10.5 104t37 78.5t51.5 56t73 54.5q123 82 159.5 109t98.5 85q0 34 -1 52t-7.5 46.5t-18.5 43.5t-37 26.5t-61 11.5q-35 0 -60 -10.5t-37 -23t-18 -36t-7 -38t-1 -39.5q0 -30 4 -76h-149q-6 140 14 205q51 149 270 149q137 0 207 -75q44 -46 54 -94.5 t10 -165.5v-490q0 -119 8 -155t41 -62h-201v123q-10 -20 -17.5 -32.5t-26.5 -35.5t-39.5 -37t-54 -25t-73.5 -11q-70 0 -123 30q-64 38 -85 97.5t-21 134.5zM96 1153v211h160v-211h-160zM207 254q0 -21 0.5 -34t6.5 -38t16.5 -40t32.5 -27.5t54 -12.5q47 0 89 31 q40 31 52.5 77.5t12.5 119.5v254q-52 -50 -135 -111q-35 -27 -52.5 -42.5t-38.5 -42.5t-29.5 -59t-8.5 -75zM413 1153v211h160v-211h-160z" />
<glyph unicode="&#xe5;" d="M41 244q0 60 10.5 104t37 78.5t51.5 56t73 54.5q123 82 159.5 109t98.5 85q0 34 -1 52t-7.5 46.5t-18.5 43.5t-37 26.5t-61 11.5q-35 0 -60 -10.5t-37 -23t-18 -36t-7 -38t-1 -39.5q0 -30 4 -76h-149q-6 140 14 205q51 149 270 149q137 0 207 -75q44 -46 54 -94.5 t10 -165.5v-490q0 -119 8 -155t41 -62h-201v123q-10 -20 -17.5 -32.5t-26.5 -35.5t-39.5 -37t-54 -25t-73.5 -11q-70 0 -123 30q-64 38 -85 97.5t-21 134.5zM193 1288q0 68 48 116t115 48q68 0 117 -48t49 -116q0 -69 -49 -117.5t-117 -48.5t-115.5 49t-47.5 117zM207 254 q0 -21 0.5 -34t6.5 -38t16.5 -40t32.5 -27.5t54 -12.5q47 0 89 31q40 31 52.5 77.5t12.5 119.5v254q-52 -50 -135 -111q-35 -27 -52.5 -42.5t-38.5 -42.5t-29.5 -59t-8.5 -75zM283 1288q0 -30 22 -52t54 -22q30 0 51.5 22t21.5 52q0 33 -21.5 54.5t-51.5 21.5 q-31 0 -53.5 -21.5t-22.5 -54.5z" />
<glyph unicode="&#xe6;" horiz-adv-x="1110" d="M68 248q0 107 37 165t133 122q19 13 49.5 33.5t41 27.5t29.5 19.5t26.5 18.5t20.5 15.5t23.5 18t23.5 18.5t31 25v63.5t-5.5 54.5t-17 43.5t-34.5 28.5t-57 10q-35 0 -59.5 -13t-36 -34.5t-18 -50t-6 -60t0.5 -63.5h-150q0 115 4 148q26 204 254 204q57 0 101.5 -13 t62 -25t39.5 -31q27 21 44 32t60 24t95 13q71 0 130.5 -28t92.5 -74q31 -44 41 -105t10 -165v-185h-399v-182q0 -30 1 -48.5t7.5 -50t18.5 -50t37 -33.5t61 -15q43 0 71 22.5t36.5 56.5t12 73.5t-0.5 73.5h155q0 -166 -39 -232q-67 -118 -247 -118q-47 0 -86 9.5t-66 27 t-41 29.5t-29 30q-39 -34 -61.5 -50t-63.5 -31t-90 -15q-111 0 -176 63q-42 39 -54.5 86.5t-12.5 116.5zM225 252q0 -58 29 -98.5t88 -40.5q49 0 84 28q20 16 32.5 36.5t17.5 47t6 43.5t1 47v238q-5 -4 -56.5 -41t-61.5 -45q-32 -24 -45.5 -35t-36.5 -33.5t-32.5 -40.5 t-17.5 -46t-8 -60zM635 616h246v109q0 28 -1 45t-7.5 47.5t-18.5 48.5t-37 32.5t-61 14.5q-35 0 -59 -14t-36 -31.5t-18 -47.5t-7 -47t-1 -46v-111z" />
<glyph unicode="&#xe7;" d="M74 487q0 64 0.5 104.5t3 92.5t7 84t12 71.5t19 62.5t28 49t38.5 40.5t50 27.5t64 18t79 5q81 0 136.5 -23t83.5 -52.5t42 -90.5t16 -101t2 -120v-2h-155v50.5t-1 44t-2.5 40.5t-4.5 34t-8 30t-12 23t-16.5 19.5t-21.5 12.5t-28 9t-35 2q-91 0 -111 -69.5t-20 -305.5 q0 -187 2 -275q1 -23 2.5 -37.5t8.5 -40t19.5 -40.5t37.5 -27t59 -12q36 0 60 12.5t38 32.5t21.5 57.5t9.5 73.5t2 94h155q0 -141 -13.5 -208t-61.5 -116q-73 -75 -197 -75l-41 -121q54 20 92 20q57 0 98 -36t41 -95q0 -72 -61 -127t-162 -55q-68 0 -157 39q4 7 13 25.5 t13 25.5q58 -29 111 -29q52 0 84 31t32 66t-22.5 59.5t-56.5 24.5q-28 0 -60 -27q-36 12 -41 14l62 187q-47 4 -83.5 13.5t-63 30.5t-45.5 39.5t-30.5 58.5t-18 67.5t-9.5 86.5t-3.5 95t-0.5 112z" />
<glyph unicode="&#xe8;" d="M74 621q0 54 1.5 92.5t8 85.5t18 79.5t32.5 65t50.5 52t73 32t98.5 12.5q21 0 35.5 -0.5t44 -5t51 -12t49.5 -24t47.5 -39.5t36 -59.5t23.5 -82.5q6 -37 7 -87t1 -251h-411q0 -203 2 -221q2 -20 3.5 -31t10 -36t20.5 -39t37 -26.5t58 -12.5q34 0 59 12t38 29.5t20.5 46.5 t9.5 54.5t2 61.5h151q0 -121 -18 -174q-59 -161 -271 -161q-200 0 -262 157q-11 30 -15.5 57t-7.5 126t-3 299zM137 1374h223l109 -221h-133zM240 612h258v127q-1 26 -2 40.5t-8 44t-19.5 46.5t-37.5 31t-60 14q-93 0 -119 -86q-9 -28 -10.5 -64t-1.5 -153z" />
<glyph unicode="&#xe9;" d="M74 621q0 54 1.5 92.5t8 85.5t18 79.5t32.5 65t50.5 52t73 32t98.5 12.5q21 0 35.5 -0.5t44 -5t51 -12t49.5 -24t47.5 -39.5t36 -59.5t23.5 -82.5q6 -37 7 -87t1 -251h-411q0 -203 2 -221q2 -20 3.5 -31t10 -36t20.5 -39t37 -26.5t58 -12.5q34 0 59 12t38 29.5t20.5 46.5 t9.5 54.5t2 61.5h151q0 -121 -18 -174q-59 -161 -271 -161q-200 0 -262 157q-11 30 -15.5 57t-7.5 126t-3 299zM240 612h258v127q-1 26 -2 40.5t-8 44t-19.5 46.5t-37.5 31t-60 14q-93 0 -119 -86q-9 -28 -10.5 -64t-1.5 -153zM275 1153l108 221h223l-200 -221h-131z" />
<glyph unicode="&#xea;" d="M74 621q0 54 1.5 92.5t8 85.5t18 79.5t32.5 65t50.5 52t73 32t98.5 12.5q21 0 35.5 -0.5t44 -5t51 -12t49.5 -24t47.5 -39.5t36 -59.5t23.5 -82.5q6 -37 7 -87t1 -251h-411q0 -203 2 -221q2 -20 3.5 -31t10 -36t20.5 -39t37 -26.5t58 -12.5q34 0 59 12t38 29.5t20.5 46.5 t9.5 54.5t2 61.5h151q0 -121 -18 -174q-59 -161 -271 -161q-200 0 -262 157q-11 30 -15.5 57t-7.5 126t-3 299zM102 1153l207 225h135l201 -225h-178l-111 129l-116 -129h-138zM240 612h258v127q-1 26 -2 40.5t-8 44t-19.5 46.5t-37.5 31t-60 14q-93 0 -119 -86 q-9 -28 -10.5 -64t-1.5 -153z" />
<glyph unicode="&#xeb;" d="M74 621q0 54 1.5 92.5t8 85.5t18 79.5t32.5 65t50.5 52t73 32t98.5 12.5q21 0 35.5 -0.5t44 -5t51 -12t49.5 -24t47.5 -39.5t36 -59.5t23.5 -82.5q6 -37 7 -87t1 -251h-411q0 -203 2 -221q2 -20 3.5 -31t10 -36t20.5 -39t37 -26.5t58 -12.5q34 0 59 12t38 29.5t20.5 46.5 t9.5 54.5t2 61.5h151q0 -121 -18 -174q-59 -161 -271 -161q-200 0 -262 157q-11 30 -15.5 57t-7.5 126t-3 299zM127 1153v211h160v-211h-160zM240 612h258v127q-1 26 -2 40.5t-8 44t-19.5 46.5t-37.5 31t-60 14q-93 0 -119 -86q-9 -28 -10.5 -64t-1.5 -153zM444 1153v211 h160v-211h-160z" />
<glyph unicode="&#xec;" horiz-adv-x="342" d="M-57 1374h223l108 -221h-133zM90 0v1024h162v-1024h-162z" />
<glyph unicode="&#xed;" horiz-adv-x="342" d="M80 1153l108 221h223l-200 -221h-131zM90 0v1024h162v-1024h-162z" />
<glyph unicode="&#xee;" horiz-adv-x="342" d="M-92 1153l207 225h135l201 -225h-179l-110 129l-117 -129h-137zM90 0v1024h162v-1024h-162z" />
<glyph unicode="&#xef;" horiz-adv-x="342" d="M-67 1153v211h160v-211h-160zM90 0v1024h162v-1024h-162zM250 1153v211h160v-211h-160z" />
<glyph unicode="&#xf0;" d="M74 471q0 312 22 391q15 53 44.5 91.5t64 57.5t65 27.5t58.5 8.5q43 0 80 -17t50.5 -30.5t33.5 -36.5q-11 85 -24 134.5t-38 98.5l-225 -70l-33 95l199 61q-38 43 -61 63.5t-66 51.5l137 57q38 -29 64 -54t63 -71l141 45l35 -100l-115 -35q54 -105 69 -230.5t15 -418.5 q0 -344 -22 -426q-6 -25 -14 -45t-28 -47t-47 -45.5t-74.5 -31.5t-107.5 -13q-81 0 -146.5 28.5t-98.5 89.5q-27 50 -34 116.5t-7 254.5zM246 598q0 -229 2 -301q1 -36 2 -55t7 -49t17 -45t32 -27t52 -12q86 0 104.5 76.5t18.5 318.5q0 205 -2 258q-2 29 -6 50t-15 45.5 t-33.5 38t-55.5 13.5q-31 0 -52 -7t-34.5 -28.5t-21 -39.5t-11 -63t-4 -75.5t-0.5 -97.5z" />
<glyph unicode="&#xf1;" horiz-adv-x="768" d="M90 0v1024h156v-94q17 21 31 34.5t42 34.5t65 32t81 11q35 0 63.5 -7t49.5 -17t37 -28.5t26.5 -34.5t18 -42.5t11 -45t5.5 -50t2 -48v-48.5v-721h-166v668v47.5t-1 42t-3.5 39.5t-6.5 33t-10 29.5t-15 22t-21 18t-28 9.5t-36 4q-28 0 -50.5 -8.5t-36.5 -20.5t-24 -35 t-15 -40.5t-7.5 -48t-3 -48t-0.5 -50.5v-662h-164zM127 1165q4 96 51.5 140.5t104.5 44.5h11t12 -1.5t11.5 -2t14 -3.5t15.5 -5t20.5 -7t24.5 -8.5t32 -11t39 -13.5q32 -12 54 -12q14 0 24 4.5t15 10t8.5 16.5t4 16.5l1.5 16.5h74q-3 -54 -20 -93t-41.5 -57.5t-47.5 -26.5 t-45 -8q-28 0 -100 25q-4 2 -7 2.5t-7.5 2.5t-8.5 3q-82 31 -108 31q-53 0 -58 -64h-74z" />
<glyph unicode="&#xf2;" d="M74 485q0 287 22 375q48 182 271 182q186 0 251 -133q26 -53 30.5 -112t4.5 -297q0 -250 -22 -336q-6 -25 -13.5 -45t-27.5 -47t-47 -45.5t-74.5 -31.5t-108.5 -13q-81 0 -146.5 28.5t-98.5 89.5q-28 50 -34.5 116.5t-6.5 268.5zM137 1374h223l109 -221h-133zM246 596 q0 -229 2 -299q1 -36 2 -55t7 -49t17 -45t32 -27t52 -12q86 0 104.5 76t18.5 317q0 207 -2 260q-5 145 -110 145q-31 0 -52 -7t-34.5 -28.5t-21 -39.5t-11 -63t-4 -75.5t-0.5 -97.5z" />
<glyph unicode="&#xf3;" d="M74 485q0 287 22 375q48 182 271 182q186 0 251 -133q26 -53 30.5 -112t4.5 -297q0 -250 -22 -336q-6 -25 -13.5 -45t-27.5 -47t-47 -45.5t-74.5 -31.5t-108.5 -13q-81 0 -146.5 28.5t-98.5 89.5q-28 50 -34.5 116.5t-6.5 268.5zM246 596q0 -229 2 -299q1 -36 2 -55 t7 -49t17 -45t32 -27t52 -12q86 0 104.5 76t18.5 317q0 207 -2 260q-5 145 -110 145q-31 0 -52 -7t-34.5 -28.5t-21 -39.5t-11 -63t-4 -75.5t-0.5 -97.5zM275 1153l108 221h223l-200 -221h-131z" />
<glyph unicode="&#xf4;" d="M74 485q0 287 22 375q48 182 271 182q186 0 251 -133q26 -53 30.5 -112t4.5 -297q0 -250 -22 -336q-6 -25 -13.5 -45t-27.5 -47t-47 -45.5t-74.5 -31.5t-108.5 -13q-81 0 -146.5 28.5t-98.5 89.5q-28 50 -34.5 116.5t-6.5 268.5zM102 1153l207 225h135l201 -225h-178 l-111 129l-116 -129h-138zM246 596q0 -229 2 -299q1 -36 2 -55t7 -49t17 -45t32 -27t52 -12q86 0 104.5 76t18.5 317q0 207 -2 260q-5 145 -110 145q-31 0 -52 -7t-34.5 -28.5t-21 -39.5t-11 -63t-4 -75.5t-0.5 -97.5z" />
<glyph unicode="&#xf5;" d="M74 485q0 287 22 375q48 182 271 182q186 0 251 -133q26 -53 30.5 -112t4.5 -297q0 -250 -22 -336q-6 -25 -13.5 -45t-27.5 -47t-47 -45.5t-74.5 -31.5t-108.5 -13q-81 0 -146.5 28.5t-98.5 89.5q-28 50 -34.5 116.5t-6.5 268.5zM108 1165q4 96 51.5 140.5t104.5 44.5h11 t12 -1.5t11.5 -2t14 -3.5t15.5 -5t20.5 -7t24.5 -8.5t32 -11t39 -13.5q32 -12 54 -12q14 0 24 4.5t15 10t8.5 16.5t4 16.5l1.5 16.5h74q-3 -54 -20 -93t-41.5 -57.5t-47.5 -26.5t-45 -8q-28 0 -100 25q-4 2 -7 2.5t-7.5 2.5t-8.5 3q-82 31 -108 31q-53 0 -58 -64h-74z M246 596q0 -229 2 -299q1 -36 2 -55t7 -49t17 -45t32 -27t52 -12q86 0 104.5 76t18.5 317q0 207 -2 260q-5 145 -110 145q-31 0 -52 -7t-34.5 -28.5t-21 -39.5t-11 -63t-4 -75.5t-0.5 -97.5z" />
<glyph unicode="&#xf6;" d="M74 485q0 287 22 375q48 182 271 182q186 0 251 -133q26 -53 30.5 -112t4.5 -297q0 -250 -22 -336q-6 -25 -13.5 -45t-27.5 -47t-47 -45.5t-74.5 -31.5t-108.5 -13q-81 0 -146.5 28.5t-98.5 89.5q-28 50 -34.5 116.5t-6.5 268.5zM123 1153v211h160v-211h-160zM246 596 q0 -229 2 -299q1 -36 2 -55t7 -49t17 -45t32 -27t52 -12q86 0 104.5 76t18.5 317q0 207 -2 260q-5 145 -110 145q-31 0 -52 -7t-34.5 -28.5t-21 -39.5t-11 -63t-4 -75.5t-0.5 -97.5zM440 1153v211h160v-211h-160z" />
<glyph unicode="&#xf7;" horiz-adv-x="1024" d="M0 514v162h1024v-162h-1024zM399 299q0 48 35 81.5t82 33.5q46 0 80.5 -32.5t34.5 -84.5q0 -47 -34 -80t-83 -33q-50 0 -82.5 33t-32.5 82zM399 887q0 50 32.5 84.5t84.5 34.5q51 0 83 -34.5t32 -82.5q0 -41 -30 -77t-85 -36q-49 0 -83 32.5t-34 78.5z" />
<glyph unicode="&#xf8;" d="M29 25l63 116q-13 57 -16.5 123t-3.5 238q0 216 9.5 293.5t35.5 126.5q33 61 101 90.5t149 29.5q128 0 202 -67l45 72l58 -46l-58 -92q22 -47 29.5 -106.5t7.5 -214.5q0 -201 -6.5 -300.5t-22.5 -149t-51 -85.5q-68 -71 -204 -71q-68 0 -119 16t-70 30t-43 38l-43 -86z M244 403l229 400q-3 17 -4.5 24.5t-9.5 25.5t-18 27.5t-30 18t-46 8.5q-29 0 -50 -8t-34 -27t-20.5 -34.5t-11 -47.5t-4 -48t-1.5 -52v-287zM248 262q0 -17 0.5 -27t3 -31t9.5 -35t18.5 -29.5t31 -23t45.5 -7.5q28 0 49 8t33.5 24t20.5 31.5t11.5 39.5t4.5 38t2 37 q6 185 2 379z" />
<glyph unicode="&#xf9;" horiz-adv-x="768" d="M90 379v645h164v-672l2 -98q0 -150 119 -150q29 0 52 9t37.5 21.5t25 35.5t15.5 40.5t7.5 48t3 47.5t0.5 48v670h162v-1024h-158v94q-18 -22 -31.5 -36t-40.5 -34.5t-63.5 -31t-81.5 -10.5q-114 0 -166 79q-30 47 -38.5 110.5t-8.5 207.5zM156 1374h223l108 -221h-133z " />
<glyph unicode="&#xfa;" horiz-adv-x="768" d="M90 379v645h164v-672l2 -98q0 -150 119 -150q29 0 52 9t37.5 21.5t25 35.5t15.5 40.5t7.5 48t3 47.5t0.5 48v670h162v-1024h-158v94q-18 -22 -31.5 -36t-40.5 -34.5t-63.5 -31t-81.5 -10.5q-114 0 -166 79q-30 47 -38.5 110.5t-8.5 207.5zM293 1153l108 221h223 l-200 -221h-131z" />
<glyph unicode="&#xfb;" horiz-adv-x="768" d="M90 379v645h164v-672l2 -98q0 -150 119 -150q29 0 52 9t37.5 21.5t25 35.5t15.5 40.5t7.5 48t3 47.5t0.5 48v670h162v-1024h-158v94q-18 -22 -31.5 -36t-40.5 -34.5t-63.5 -31t-81.5 -10.5q-114 0 -166 79q-30 47 -38.5 110.5t-8.5 207.5zM121 1153l207 225h135l201 -225 h-179l-110 129l-117 -129h-137z" />
<glyph unicode="&#xfc;" horiz-adv-x="768" d="M90 379v645h164v-672l2 -98q0 -150 119 -150q29 0 52 9t37.5 21.5t25 35.5t15.5 40.5t7.5 48t3 47.5t0.5 48v670h162v-1024h-158v94q-18 -22 -31.5 -36t-40.5 -34.5t-63.5 -31t-81.5 -10.5q-114 0 -166 79q-30 47 -38.5 110.5t-8.5 207.5zM150 1153v211h160v-211h-160z M467 1153v211h160v-211h-160z" />
<glyph unicode="&#xfd;" horiz-adv-x="681" d="M12 1026h176l162 -825l131 825h174l-176 -893q-36 -179 -50.5 -235t-35.5 -97q-22 -43 -50.5 -71.5t-62.5 -41.5t-64 -17.5t-69 -4.5h-106v141h75t61.5 5.5t47 17.5t29.5 36t10 60q0 45 -20 125zM252 1153l108 221h223l-200 -221h-131z" />
<glyph unicode="&#xfe;" horiz-adv-x="768" d="M88 -326v1772h164v-520q20 25 32 38.5t38.5 35t60.5 32t76 10.5q65 0 116 -29.5t80 -84.5q22 -41 30.5 -104.5t8.5 -219.5q0 -291 -12 -391q-32 -231 -233 -231q-41 0 -74 9.5t-57 30t-33.5 30.5t-26.5 32v-410h-170zM258 465q0 -228 31 -289q37 -72 112 -72q35 0 59 16 t34.5 43t14.5 45t5 38q8 104 8 289q0 223 -12 276q-21 100 -113 100q-117 0 -135 -180q-4 -47 -4 -266z" />
<glyph unicode="&#xff;" horiz-adv-x="681" d="M12 1026h176l162 -825l131 825h174l-176 -893q-36 -179 -50.5 -235t-35.5 -97q-22 -43 -50.5 -71.5t-62.5 -41.5t-64 -17.5t-69 -4.5h-106v141h75t61.5 5.5t47 17.5t29.5 36t10 60q0 45 -20 125zM104 1153v211h160v-211h-160zM422 1153v211h160v-211h-160z" />
<glyph unicode="&#x152;" horiz-adv-x="1323" d="M90 590q0 530 31 645q10 38 30 73.5t57.5 74t102.5 62t150 23.5q37 0 55 -2q10 -1 69.5 -8t69.5 -8q54 -4 109 -4h496v-162h-429v-430h365v-164h-365v-528h449v-162h-522q-22 0 -159 -10t-163 -10q-134 0 -217 69q-76 66 -102.5 177t-26.5 364zM276 702q0 -196 5 -309 q1 -25 2 -37.5t4 -37.5t7 -39.5t11.5 -36.5t16.5 -35t24 -28.5t33 -23.5t42.5 -14t53.5 -6q141 0 170 129q12 61 12 240v471q0 143 -6 186q-16 154 -176 154q-47 0 -82.5 -16.5t-53.5 -36.5t-30.5 -52t-15.5 -48t-6 -40q-11 -95 -11 -420z" />
<glyph unicode="&#x153;" horiz-adv-x="1110" d="M74 532q0 62 6 191q1 45 3 70t12 64t28 71q19 32 49.5 55.5t57.5 34.5t59.5 17t45.5 6.5t27 0.5q111 0 203 -77q28 25 48.5 38.5t59 26t85.5 12.5q70 0 131 -28t98 -82q30 -45 39.5 -103t9.5 -143v-199h-395q0 -10 -1 -73.5t-1 -75.5q0 -132 18 -168q11 -25 39 -42 t68 -17q28 0 48.5 8.5t33.5 26t20.5 35.5t11 47.5t4.5 50.5t1 55h153q-3 -74 -5.5 -108.5t-17.5 -83.5t-44 -81q-31 -36 -85.5 -57.5t-119.5 -21.5q-54 0 -97.5 16t-61.5 30.5t-40 37.5q-90 -84 -217 -84q-19 0 -37.5 1.5t-54 11t-63.5 25.5t-56 49t-41 78q-12 42 -17 114 t-5 271zM240 569q0 -186 2 -252q1 -36 2.5 -57t8.5 -54t19 -51t35.5 -32t57.5 -14q32 0 54.5 13.5t33.5 29.5t18 44t8 42t2 38q6 153 6 230q4 39 0.5 169.5t-16.5 164.5q-12 34 -40 53.5t-66 19.5q-112 0 -119 -161q-6 -129 -6 -183zM641 621h240q0 133 -7 178 q-1 14 -5.5 28.5t-15.5 35.5t-35.5 34.5t-59.5 13.5q-117 0 -117 -166v-124z" />
<glyph unicode="&#x178;" horiz-adv-x="811" d="M0 1446h193l213 -723l215 723h190l-317 -879v-567h-187v567zM139 1589v217h170v-217h-170zM504 1589v217h170v-217h-170z" />
<glyph unicode="&#x2c6;" horiz-adv-x="468" d="M-37 1153l207 225h135l201 -225h-178l-111 129l-117 -129h-137z" />
<glyph unicode="&#x2dc;" horiz-adv-x="468" d="M-23 1165q4 96 51.5 140.5t104.5 44.5h11t12 -1.5t11.5 -2t14 -3.5t15.5 -5t20.5 -7t24.5 -8.5t32 -11t39 -13.5q32 -12 54 -12q14 0 24 4.5t15 10t8.5 16.5t4 16.5l1.5 16.5h74q-3 -54 -20 -93t-41.5 -57.5t-47.5 -26.5t-45 -8q-28 0 -100 25q-4 2 -7 2.5t-7.5 2.5 t-8.5 3q-82 31 -108 31q-53 0 -58 -64h-74z" />
<glyph unicode="&#x2000;" horiz-adv-x="922" />
<glyph unicode="&#x2001;" horiz-adv-x="1845" />
<glyph unicode="&#x2002;" horiz-adv-x="922" />
<glyph unicode="&#x2003;" horiz-adv-x="1845" />
<glyph unicode="&#x2004;" horiz-adv-x="615" />
<glyph unicode="&#x2005;" horiz-adv-x="461" />
<glyph unicode="&#x2006;" horiz-adv-x="307" />
<glyph unicode="&#x2007;" horiz-adv-x="307" />
<glyph unicode="&#x2008;" horiz-adv-x="230" />
<glyph unicode="&#x2009;" horiz-adv-x="369" />
<glyph unicode="&#x200a;" horiz-adv-x="102" />
<glyph unicode="&#x2010;" horiz-adv-x="555" d="M41 473v160h471v-160h-471z" />
<glyph unicode="&#x2011;" horiz-adv-x="555" d="M41 473v160h471v-160h-471z" />
<glyph unicode="&#x2012;" horiz-adv-x="555" d="M41 473v160h471v-160h-471z" />
<glyph unicode="&#x2013;" horiz-adv-x="768" d="M43 473v160h682v-160h-682z" />
<glyph unicode="&#x2014;" horiz-adv-x="894" d="M43 473v160h811v-160h-811z" />
<glyph unicode="&#x2018;" horiz-adv-x="342" d="M82 926v231q0 46 2 74.5t11.5 68.5t27 65.5t52 48.5t83.5 34v-107q-23 -7 -39 -19.5t-23.5 -28t-11.5 -35.5t-4 -42.5v-48.5h78v-241h-176z" />
<glyph unicode="&#x2019;" horiz-adv-x="342" d="M82 926v106q23 7 39 19.5t23.5 28t11.5 35.5t4 42.5v48.5h-78v242h176v-231q0 -46 -2 -74.5t-11.5 -68.5t-27 -65.5t-52 -48.5t-83.5 -34z" />
<glyph unicode="&#x201a;" horiz-adv-x="342" d="M82 0v242h176v-232q0 -46 -2 -74.5t-11.5 -68.5t-27 -65.5t-52 -48.5t-83.5 -34v107q23 7 39 19.5t23.5 28t11.5 35.5t4 42.5v48.5h-78z" />
<glyph unicode="&#x201c;" horiz-adv-x="641" d="M84 926v231q0 33 0.5 53.5t4 51t10 50.5t19.5 44t31 40t46 30t63 22v-107q-28 -8 -45 -24t-23.5 -42.5t-7.5 -47.5t0 -60h76v-241h-174zM381 926v231q0 47 1.5 75t11 68.5t27 65.5t52 48t84.5 34v-107q-29 -8 -46 -24t-24 -42.5t-8 -47.5t0 -60h78v-241h-176z" />
<glyph unicode="&#x201d;" horiz-adv-x="641" d="M82 924v106q29 8 46 24t24 42.5t8 47.5t0 60h-78v242h176v-232q0 -38 -1.5 -62.5t-6.5 -58.5t-16.5 -57t-30 -47t-49.5 -40t-72 -25zM381 924v106q29 8 46 24t24 42.5t8 47.5t0 60h-78v242h176v-232q0 -39 -1 -62.5t-6 -58.5t-16.5 -57.5t-30 -46.5t-49.5 -40t-73 -25z " />
<glyph unicode="&#x201e;" horiz-adv-x="641" d="M82 0v242h176v-232q0 -38 -1.5 -62.5t-6.5 -58.5t-16.5 -57.5t-30 -47.5t-49.5 -40t-72 -25v105q29 9 46 25t24 43t8 48t0 60h-78zM381 0v242h176v-232q0 -38 -1.5 -62.5t-6.5 -58.5t-16.5 -57.5t-30 -47.5t-49.5 -40t-72 -25v105q29 9 46 25t24 43t8 48t0 60h-78z" />
<glyph unicode="&#x2022;" horiz-adv-x="681" d="M76 723q0 109 77.5 187.5t190.5 78.5t188.5 -75t75.5 -191q0 -121 -76 -193.5t-184 -72.5q-118 0 -195 77.5t-77 188.5z" />
<glyph unicode="&#x2026;" horiz-adv-x="2048" d="M254 0v242h174v-242h-174zM936 0v242h174v-242h-174zM1618 0v242h174v-242h-174z" />
<glyph unicode="&#x202f;" horiz-adv-x="369" />
<glyph unicode="&#x2039;" horiz-adv-x="382" d="M41 487v177l287 319v-238l-152 -170l152 -169v-242z" />
<glyph unicode="&#x203a;" horiz-adv-x="382" d="M57 164v242l152 169l-152 170v238l287 -319v-177z" />
<glyph unicode="&#x205f;" horiz-adv-x="461" />
<glyph unicode="&#x2122;" horiz-adv-x="1406" d="M33 1346v100h553v-100h-215v-580h-119v580h-219zM643 766v680h162l170 -537l166 537h162v-680h-117l4 420l6 139l-33 -115l-139 -444h-106l-173 557l9 -137l4 -420h-115z" />
<glyph unicode="&#x25fc;" horiz-adv-x="1024" d="M0 0v1024h1024v-1024h-1024z" />
</font>
</defs>
</svg>
